<svg height="480pt" viewBox="-80 0 480 480.0401" width="480pt" xmlns="http://www.w3.org/2000/svg"><path d="m104.019531 368h112v24h-112zm0 0" fill="#898890"/><path d="m104.019531 392h112v24h-112zm0 0" fill="#898890"/><path d="m104.019531 424c.027344 8.824219 7.175781 15.972656 16 16h80c8.824219-.027344 15.972657-7.175781 16-16v-8h-112zm0 0" fill="#898890"/><path d="m160.019531 8c-88.398437 0-152 71.601562-152 160 0 43.328125 36.175781 94.398438 66.960938 124.304688 18.582031 18.0625 29.058593 42.882812 29.039062 68.800781v6.894531h112v-6.929688c-.019531-25.914062 10.457031-50.734374 29.039063-68.796874 30.785156-29.875 66.960937-80.945313 66.960937-124.273438 0-88.398438-63.597656-160-152-160zm-72 224h-32v-48h32zm56 0h-32v-80h32zm56 0h-32v-112h32zm56 0h-32v-144h32zm0 0" fill="#d8d7da"/><path d="m160.019531 472c17.671875 0 32-14.328125 32-32h-64c0 17.671875 14.328125 32 32 32zm0 0" fill="#d8d7da"/><path d="m56.019531 184h32v48h-32zm0 0" fill="#ab2300"/><path d="m112.019531 152h32v80h-32zm0 0" fill="#ff5023"/><path d="m168.019531 120h32v112h-32zm0 0" fill="#ffcd00"/><path d="m224.019531 88h32v144h-32zm0 0" fill="#009698"/><g fill="#231f20"><path d="m160.019531 0c-91.199219 0-159.9999998 72.222656-159.9999998 168 0 46.167969 37.3749998 98.894531 69.3828128 130.039062 16.976562 16.589844 26.566406 39.308594 26.617187 63.039063v62.921875c0 13.253906 10.746094 24 24 24h.800781c3.785157 18.644531 20.175782 32.039062 39.199219 32.039062 19.023438 0 35.414063-13.394531 39.199219-32.039062h.800781c13.253907 0 24-10.746094 24-24v-62.921875c.050781-23.730469 9.644531-46.449219 26.617188-63.039063 32.007812-31.144531 69.382812-83.871093 69.382812-130.039062 0-95.777344-68.800781-168-160-168zm48 376v8h-96v-8zm-96 24h96v8h-96zm48 64c-10.167969-.011719-19.230469-6.417969-22.632812-16h45.265625c-3.402344 9.582031-12.464844 15.988281-22.632813 16zm40-32h-80c-4.417969 0-8-3.582031-8-8h96c0 4.417969-3.582031 8-8 8zm39.464844-145.433594c-19.785156 19.351563-31.082031 45.761719-31.410156 73.433594h-96.109375c-.328125-27.671875-11.625-54.082031-31.410156-73.433594-32.117188-31.246094-64.535157-80.039062-64.535157-118.566406 0-86.65625 61.90625-152 144-152 82.097657 0 144 65.34375 144 152 0 38.527344-32.414062 87.320312-64.535156 118.566406zm0 0"/><path d="m48.019531 240h48v-64h-48zm16-48h16v32h-16zm0 0"/><path d="m104.019531 240h48v-96h-48zm16-80h16v64h-16zm0 0"/><path d="m160.019531 240h48v-128h-48zm16-112h16v96h-16zm0 0"/><path d="m216.019531 80v160h48v-160zm32 144h-16v-128h16zm0 0"/></g></svg>