<svg height="480pt" viewBox="0 0 480 480" width="480pt" xmlns="http://www.w3.org/2000/svg"><path d="m168 56h256v-16c0-17.671875-14.328125-32-32-32h-304c-17.671875 0-32 14.328125-32 32v16zm0 0" fill="#898890"/><path d="m320 152-8-96h-72v96zm0 0" fill="#ffcd00"/><path d="m320 152h80l-16-96h-72zm0 0" fill="#ff5023"/><path d="m424 56h-40l16 96h72l-24-96zm0 0" fill="#ffcd00"/><path d="m240 152v-96h-72l-8 96zm0 0" fill="#ff5023"/><path d="m168 56h-72l-16 96h80zm0 0" fill="#ffcd00"/><path d="m96 56h-64l-24 96h72zm0 0" fill="#ff5023"/><path d="m240 152v8c.003906 5.5 1.121094 10.941406 3.28125 16 6.386719 14.582031 20.796875 24.003906 36.71875 24.003906s30.332031-9.421875 36.71875-24.003906c2.160156-5.058594 3.277344-10.5 3.28125-16v-8zm0 0" fill="#ffe477"/><path d="m320 160c.003906 5.5 1.121094 10.941406 3.28125 16 6.386719 14.582031 20.796875 24.003906 36.71875 24.003906s30.332031-9.421875 36.71875-24.003906c2.160156-5.058594 3.277344-10.5 3.28125-16v-8h-80zm0 0" fill="#ff6243"/><path d="m400 160v4c-.011719 4.089844.691406 8.152344 2.078125 12 5.054687 14.398438 18.664063 24.023438 33.921875 24 1.335938.003906 2.671875-.078125 4-.238281 18.214844-2.039063 31.992188-17.433594 32-35.761719v-12h-72zm0 0" fill="#ffe477"/><path d="m160 152v8c.003906 5.5 1.121094 10.941406 3.28125 16 6.386719 14.582031 20.796875 24.003906 36.71875 24.003906s30.332031-9.421875 36.71875-24.003906c2.160156-5.058594 3.277344-10.5 3.28125-16v-8zm0 0" fill="#ff6243"/><path d="m80 152v8c.003906 5.5 1.121094 10.941406 3.28125 16 6.386719 14.582031 20.796875 24.003906 36.71875 24.003906s30.332031-9.421875 36.71875-24.003906c2.160156-5.058594 3.277344-10.5 3.28125-16v-8zm0 0" fill="#ffe477"/><path d="m77.921875 176c1.386719-3.847656 2.089844-7.910156 2.078125-12v-12h-72v12c.007812 18.328125 13.785156 33.722656 32 35.761719 1.328125.160156 2.664062.242187 4 .238281 15.257812.023438 28.867188-9.601562 33.921875-24zm0 0" fill="#ff6243"/><path d="m436 200c-15.257812.023438-28.867188-9.601562-33.921875-24-1.386719-3.847656-2.089844-7.910156-2.078125-12v-4c-.003906 5.5-1.121094 10.941406-3.28125 16-6.386719 14.582031-20.796875 24.003906-36.71875 24.003906s-30.332031-9.421875-36.71875-24.003906c-2.160156-5.058594-3.277344-10.5-3.28125-16-.003906 5.5-1.121094 10.941406-3.28125 16-6.386719 14.582031-20.796875 24.003906-36.71875 24.003906s-30.332031-9.421875-36.71875-24.003906c-2.160156-5.058594-3.277344-10.5-3.28125-16-.003906 5.5-1.121094 10.941406-3.28125 16-6.386719 14.582031-20.796875 24.003906-36.71875 24.003906s-30.332031-9.421875-36.71875-24.003906c-2.160156-5.058594-3.277344-10.5-3.28125-16-.003906 5.5-1.121094 10.941406-3.28125 16-6.386719 14.582031-20.796875 24.003906-36.71875 24.003906s-30.332031-9.421875-36.71875-24.003906c-2.160156-5.058594-3.277344-10.5-3.28125-16v4c.011719 4.089844-.691406 8.152344-2.078125 12-5.054687 14.398438-18.664063 24.023438-33.921875 24-1.335938.003906-2.671875-.078125-4-.238281v272.238281h32v-208h112v208h256v-272.238281c-1.328125.160156-2.664062.242187-4 .238281zm-59.039062 168.960938c-4.492188 4.507812-10.597657 7.039062-16.960938 7.039062h-13.441406c-11.246094 23.617188-37.34375 36.300781-62.863282 30.554688-25.519531-5.746094-43.660156-28.394532-43.695312-54.554688v-40h112v16h8c9.699219.007812 18.441406 5.855469 22.152344 14.820312 3.710937 8.960938 1.664062 19.277344-5.191406 26.140626zm0 0" fill="#898890"/><path d="m72 264h112v208h-112zm0 0" fill="#c6c5ca"/><path d="m352 328v-16h-112v40c.035156 26.160156 18.175781 48.808594 43.695312 54.554688 25.519532 5.746093 51.617188-6.9375 62.863282-30.554688 3.613281-7.484375 5.472656-15.691406 5.441406-24zm0 0" fill="#e0e0e2"/><path d="m360 328h-8v24c.03125 8.308594-1.828125 16.515625-5.441406 24h13.441406c13.253906 0 24-10.746094 24-24s-10.746094-24-24-24zm0 0" fill="#e0e0e2"/><g fill="#231f20"><path d="m479.777344 150.871094c-.042969-.269532.046875-.535156 0-.800782l-24-96c-.886719-3.570312-4.097656-6.074218-7.777344-6.070312h-16v-8c-.027344-22.082031-17.917969-39.9726562-40-40h-304c-22.082031.0273438-39.972656 17.917969-40 40v8h-16c-3.671875 0-6.871094 2.5-7.761719 6.0625l-24 96c-.0625.273438 0 .539062 0 .800781-.105469.371094-.1874998.753907-.238281 1.136719v12c-.00390625 19.660156 13.074219 36.925781 32 42.246094v265.753906c0 4.417969 3.582031 8 8 8h400c4.417969 0 8-3.582031 8-8v-265.761719c18.925781-5.316406 32.003906-22.578125 32-42.238281v-12c-.046875-.382812-.121094-.757812-.222656-1.128906zm-18.023438-6.871094h-54.976562l-13.328125-80h48.304687zm-157.113281-80 6.664063 80h-63.304688v-80zm72.582031 0 13.328125 80h-63.199219l-6.664062-80zm-145.222656 80h-63.304688l6.664063-80h56.640625zm-79.359375 0h-63.199219l13.328125-80h56.527344zm-.640625 16c.046875 8.5-3.308594 16.667969-9.320312 22.679688-6.011719 6.011718-14.179688 9.367187-22.679688 9.320312-12.703125-.03125-24.203125-7.527344-29.359375-19.136719-1.742187-4.0625-2.640625-8.441406-2.640625-12.863281zm80 0c.046875 8.5-3.308594 16.667969-9.320312 22.679688-6.011719 6.011718-14.179688 9.367187-22.679688 9.320312-12.703125-.03125-24.203125-7.527344-29.359375-19.136719-1.742187-4.0625-2.640625-8.441406-2.640625-12.863281zm80 0c.046875 8.5-3.308594 16.667969-9.320312 22.679688-6.011719 6.011718-14.179688 9.367187-22.679688 9.320312-12.703125-.03125-24.203125-7.527344-29.359375-19.136719-1.742187-4.0625-2.640625-8.441406-2.640625-12.863281zm80 0c.046875 8.5-3.308594 16.667969-9.320312 22.679688-6.011719 6.011718-14.179688 9.367187-22.679688 9.320312-12.703125-.03125-24.203125-7.527344-29.359375-19.136719-1.742187-4.0625-2.640625-8.441406-2.640625-12.863281zm-328-120c0-13.253906 10.746094-24 24-24h304c13.253906 0 24 10.746094 24 24v8h-352zm-25.753906 24h48.304687l-13.328125 80h-54.976562zm-22.246094 100v-4h56v4c.019531 3.191406-.523438 6.363281-1.601562 9.367188-3.945313 11.191406-14.53125 18.664062-26.398438 18.632812-1.042969 0-2.085938-.0625-3.121094-.191406-14.171875-1.566406-24.890625-13.550782-24.878906-27.808594zm64 300v-192h96v192zm352 0h-240v-200c0-4.417969-3.582031-8-8-8h-112c-4.417969 0-8 3.582031-8 8v200h-16v-256.175781c.640625-.0625 1.265625-.199219 1.894531-.289063.632813-.085937 1.203125-.160156 1.792969-.261718 1.753906-.308594 3.484375-.722657 5.183594-1.242188.257812-.078125.511718-.128906.800781-.207031 1.917969-.628907 3.789063-1.390625 5.601563-2.28125.488281-.230469.949218-.503907 1.429687-.800781 1.339844-.707032 2.640625-1.488282 3.898437-2.335938.488282-.328125.972657-.644531 1.445313-.992188 1.535156-1.109374 2.996094-2.316406 4.378906-3.613281.070313-.074219.167969-.136719.238281-.214843 1.433594-1.398438 2.769532-2.890626 4-4.464844.359376-.457032.679688-.9375 1.023438-1.410156.441406-.605469.921875-1.191407 1.328125-1.824219.511719.714843 1.105469 1.351562 1.65625 2.035156.449219.558594.871094 1.117187 1.34375 1.644531 1.140625 1.292969 2.347656 2.519532 3.625 3.671875.296875.28125.566406.585938.878906.859375 1.597657 1.382813 3.28125 2.664063 5.039063 3.832032.472656.300781.96875.558593 1.449218.855468 1.328126.800782 2.679688 1.597656 4.082032 2.269532.671875.328124 1.359375.609374 2.039062.90625 1.285156.558593 2.589844 1.054687 3.925782 1.503906.738281.238281 1.464843.472656 2.210937.679687 1.414063.398438 2.847656.703125 4.300781.96875.671875.117188 1.335938.269531 2.019532.367188 4.324218.644531 8.71875.644531 13.046874 0 .703126-.097657 1.382813-.265625 2.070313-.390625 1.449219-.265625 2.890625-.5625 4.289063-.960938.800781-.226562 1.550781-.488281 2.328124-.746094 1.28125-.4375 2.542969-.910156 3.785157-1.453124.757812-.328126 1.511719-.671876 2.253906-1.042969 1.226563-.605469 2.402344-1.277344 3.570313-1.992188.671874-.40625 1.351562-.796875 2.007812-1.238281 1.269531-.863281 2.476562-1.816406 3.664062-2.792969.46875-.390625.964844-.734375 1.421876-1.136719 1.609374-1.4375 3.125-2.976562 4.535156-4.605468.234375-.273438.425781-.578125.648437-.847656.992188-1.21875 1.976563-2.402344 2.855469-3.753907.929688 1.359375 1.925781 2.667969 2.984375 3.921875.183594.222656.34375.480469.539063.703125 1.40625 1.628907 2.921874 3.164063 4.535156 4.589844.464844.417969.96875.800781 1.445312 1.167969 1.175782.96875 2.402344 1.90625 3.640625 2.761718.648438.441407 1.320313.800782 1.984375 1.230469 1.175782.714844 2.402344 1.386719 3.59375 2 .734375.363281 1.480469.707031 2.230469 1.035157 1.25.542968 2.527344 1.023437 3.824219 1.453124.761718.257813 1.511718.519532 2.289062.746094 1.414063.390625 2.855469.695313 4.3125.960938.695313.125 1.367188.292968 2.0625.390625 4.351563.648437 8.777344.648437 13.128906 0 .703126-.097657 1.382813-.265625 2.070313-.390625 1.449219-.265625 2.890625-.5625 4.289063-.960938.800781-.226562 1.550781-.488281 2.328124-.746094 1.28125-.4375 2.542969-.910156 3.785157-1.453124.757812-.328126 1.511719-.671876 2.253906-1.042969 1.226563-.605469 2.402344-1.277344 3.570313-1.992188.671874-.40625 1.351562-.796875 2.007812-1.238281 1.269531-.863281 2.476562-1.816406 3.664062-2.792969.46875-.390625.964844-.734375 1.421876-1.136719 1.609374-1.4375 3.125-2.976562 4.535156-4.605468.234375-.273438.425781-.578125.648437-.847656.992188-1.21875 1.976563-2.402344 2.855469-3.753907.929688 1.359375 1.925781 2.667969 2.984375 3.921875.183594.222656.34375.480469.539063.703125 1.40625 1.628907 2.921874 3.164063 4.535156 4.589844.464844.417969.96875.800781 1.445312 1.167969 1.175782.96875 2.402344 1.90625 3.640625 2.761718.648438.441407 1.320313.800782 1.984375 1.230469 1.175782.714844 2.402344 1.386719 3.59375 2 .734375.363281 1.480469.707031 2.230469 1.035157 1.25.542968 2.527344 1.023437 3.824219 1.453124.800781.257813 1.511718.519532 2.289062.746094 1.414063.390625 2.855469.695313 4.3125.960938.695313.125 1.367188.292968 2.0625.390625 4.351563.648437 8.777344.648437 13.128906 0 .703126-.097657 1.382813-.265625 2.070313-.390625 1.449219-.265625 2.890625-.5625 4.289063-.960938.800781-.226562 1.550781-.488281 2.328124-.746094 1.28125-.4375 2.542969-.910156 3.785157-1.453124.757812-.328126 1.511719-.671876 2.253906-1.042969 1.226563-.605469 2.402344-1.277344 3.570313-1.992188.671874-.40625 1.351562-.796875 2.007812-1.238281 1.269531-.863281 2.476562-1.816406 3.664062-2.792969.46875-.390625.964844-.734375 1.421876-1.136719 1.609374-1.4375 3.125-2.976562 4.535156-4.605468.234375-.273438.425781-.578125.648437-.847656.992188-1.21875 1.976563-2.402344 2.855469-3.753907.929688 1.359375 1.925781 2.667969 2.984375 3.921875.183594.222656.34375.480469.539063.703125 1.40625 1.628907 2.921874 3.164063 4.535156 4.589844.464844.417969.96875.800781 1.445312 1.167969 1.175782.96875 2.402344 1.90625 3.640625 2.761718.648438.441407 1.320313.800782 1.984375 1.230469 1.175782.714844 2.402344 1.386719 3.59375 2 .734375.363281 1.480469.707031 2.230469 1.035157 1.25.542968 2.527344 1.023437 3.824219 1.453124.800781.257813 1.511718.519532 2.289062.746094 1.414063.390625 2.855469.695313 4.3125.960938.695313.125 1.367188.292968 2.0625.390625 4.328125.644531 8.726563.644531 13.054688 0 .679687-.097657 1.335937-.25 2.007812-.367188 1.457032-.265625 2.898438-.570312 4.304688-.96875.753906-.207031 1.480468-.441406 2.21875-.679687 1.335937-.449219 2.628906-.953125 3.917968-1.503906.6875-.296876 1.375-.585938 2.046876-.914063 1.410156-.6875 2.769531-1.460937 4.097656-2.277344.472656-.296875.960937-.546875 1.421875-.847656 1.769531-1.171875 3.453125-2.457031 5.050781-3.851563.320312-.277343.605469-.597656.917969-.886718 1.265625-1.148438 2.464843-2.367188 3.59375-3.648438.472656-.535156.902343-1.09375 1.34375-1.648437.550781-.679688 1.136719-1.3125 1.648437-2.023438.398438.625.871094 1.191407 1.304688 1.792969.351562.480469.679687.976562 1.046875 1.441406 1.230469 1.578125 2.566406 3.074219 4 4.476563.070312.066406.144531.113281.214843.1875 1.390626 1.308593 2.859376 2.527343 4.410157 3.644531.46875.347656.949219.664062 1.4375.992188 1.261719.851562 2.570312 1.632812 3.914062 2.34375.472657.257812.933594.523437 1.421875.800781 1.8125.894531 3.683594 1.65625 5.601563 2.28125.238281.078125.496093.128906.742187.199219 1.707032.523437 3.445313.9375 5.203125 1.25.597657.101562 1.191407.183593 1.789063.261718.601562.082032 1.257812.226563 1.898437.289063zm32-300c-.007812 14.300781-10.792969 26.300781-25.015625 27.824219-.992187.121093-1.988281.179687-2.984375.175781-11.886719.007812-22.476562-7.5-26.398438-18.71875-1.070312-2.976562-1.613281-6.117188-1.601562-9.28125v-4h56zm0 0"/><path d="m360 320v-8c0-4.417969-3.582031-8-8-8h-112c-4.417969 0-8 3.582031-8 8v40c.039062 35.328125 28.671875 63.960938 64 64 22.828125.085938 43.929688-12.148438 55.199219-32h8.800781c17.671875 0 32-14.328125 32-32s-14.328125-32-32-32zm-64 80c-26.5-.027344-47.972656-21.5-48-48v-32h96v32c.027344 7.125-1.570312 14.164062-4.671875 20.574219-7.84375 16.824219-24.765625 27.539062-43.328125 27.425781zm75.304688-36.695312c-2.992188 3.011718-7.0625 4.703124-11.304688 4.695312h-2.015625c.070313-.273438.09375-.558594.160156-.800781.40625-1.65625.695313-3.34375.96875-5.039063.125-.800781.3125-1.601562.414063-2.457031.308594-2.554687.464844-5.128906.472656-7.703125v-16c6.464844.007812 12.289062 3.90625 14.765625 9.878906 2.472656 5.972656 1.105469 12.847656-3.460937 17.425782zm0 0"/><path d="m224 424c0 4.417969 3.582031 8 8 8h128c4.417969 0 8-3.582031 8-8s-3.582031-8-8-8h-128c-4.417969 0-8 3.582031-8 8zm0 0"/><path d="m272 296c4.417969 0 8-3.582031 8-8 0-7.625 4.625-11.472656 12.800781-17.601562 8.550781-6.398438 19.199219-14.398438 19.199219-30.398438 0-4.417969-3.582031-8-8-8s-8 3.582031-8 8c0 7.625-4.625 11.472656-12.800781 17.601562-8.550781 6.398438-19.199219 14.398438-19.199219 30.398438 0 4.417969 3.582031 8 8 8zm0 0"/><path d="m312 296c4.417969 0 8-3.582031 8-8 0-7.625 4.625-11.472656 12.800781-17.601562 8.550781-6.398438 19.199219-14.398438 19.199219-30.398438 0-4.417969-3.582031-8-8-8s-8 3.582031-8 8c0 7.625-4.625 11.472656-12.800781 17.601562-8.550781 6.398438-19.199219 14.398438-19.199219 30.398438 0 4.417969 3.582031 8 8 8zm0 0"/></g></svg>