<svg height="480pt" viewBox="-37 0 480 480" width="480pt" xmlns="http://www.w3.org/2000/svg"><g fill="#c49a6c"><path d="m186.582031 8h-128l-16 48h128zm0 0"/><path d="m362.582031 56 16-48h-128l-16 48zm0 0"/><path d="m42.582031 424h320v48h-320zm0 0"/></g><path d="m340.917969 340.96875 21.664062 83.03125 21.664063-83.03125c17.265625-66.207031 17.265625-135.730469 0-201.9375l-21.664063-83.03125-21.664062 83.03125c-17.265625 66.207031-17.265625 135.730469 0 201.9375zm0 0" fill="#8b5e3c"/><path d="m340.917969 340.96875c-17.265625-66.207031-17.265625-135.730469 0-201.9375l21.664062-83.03125h-128v128l-32-24-32 24v-128h-128l21.664063 83.03125c17.265625 66.207031 17.265625 135.730469 0 201.9375l-21.664063 83.03125h320zm-102.457031 3.03125c-12.496094 12.496094-32.757813 12.496094-45.253907 0l-22.625-22.625c-12.496093-12.496094-12.496093-32.757812 0-45.253906 12.496094-12.5 32.757813-12.5 45.257813 0l22.621094 22.621094c12.5 12.5 12.5 32.761718 0 45.257812zm0 0" fill="#c2b59b"/><path d="m64.246094 139.03125-21.664063-83.03125-21.664062 83.03125c-17.265625 66.207031-17.265625 135.730469 0 201.9375l21.664062 83.03125 21.664063-83.03125c17.265625-66.207031 17.265625-135.730469 0-201.9375zm0 0" fill="#8b5e3c"/><path d="m234.582031 56 16-48h-64l-16 48zm0 0" fill="#ab2300"/><path d="m170.582031 184 32-24 32 24v-128h-64zm0 0" fill="#ab2300"/><path d="m216.382812 316.640625-19.777343-8.578125c-6.183594-2.675781-11.359375-7.238281-14.800781-13.03125l-11.222657-18.910156c-12.496093 12.496094-12.496093 32.757812 0 45.253906l22.625 22.625c12.496094 12.496094 32.757813 12.496094 45.253907 0l-6.214844-12.367188c-3.367188-6.703124-8.984375-12.007812-15.863282-14.992187zm0 0" fill="#8b5e3c"/><path d="m215.839844 276.121094c-12.5-12.5-32.761719-12.5-45.257813 0l11.199219 18.910156c3.4375 5.792969 8.617188 10.355469 14.800781 13.03125l19.777344 8.578125c6.878906 2.984375 12.496094 8.289063 15.863281 14.992187l6.238282 12.367188c12.5-12.496094 12.5-32.757812 0-45.257812zm0 0" fill="#a97c50"/><path d="m391.980469 137.007812-21.054688-80.726562 15.25-45.753906c.8125-2.4375.402344-5.121094-1.101562-7.207032-1.503907-2.085937-3.921875-3.320312-6.492188-3.320312h-320c-3.445312 0-6.503906 2.203125-7.59375 5.472656l-16 48c0 .101563 0 .207032-.0625.3125-.027343.066406-.054687.132813-.085937.199219l-21.65625 83.023437c-17.578125 67.535157-17.578125 138.449219 0 205.984376l21.398437 82.039062v46.96875c0 4.417969 3.582031 8 8 8h320c4.417969 0 8-3.582031 8-8v-46.96875l21.398438-82.039062c17.578125-67.535157 17.578125-138.449219 0-205.984376zm-58.796875 205.984376 19.046875 73.007812h-299.296875l19.046875-73.007812c17.578125-67.535157 17.578125-138.449219 0-205.984376l-19.046875-73.007812h109.648437v120c0 3.03125 1.710938 5.800781 4.421875 7.15625 2.710938 1.355469 5.953125 1.0625 8.378906-.757812l27.199219-20.398438 27.199219 20.398438c2.425781 1.820312 5.667969 2.113281 8.378906.757812 2.710938-1.355469 4.421875-4.125 4.421875-7.15625v-120h109.648438l-19.046875 73.007812c-17.578125 67.535157-17.578125 138.449219 0 205.984376zm-106.601563-278.992188v104l-19.199219-14.398438c-2.84375-2.136718-6.757812-2.136718-9.601562 0l-19.199219 14.398438v-104zm130.230469-16h-111.132812l10.671874-32h111.132813zm-117.328125-32-10.671875 32h-47.132812l10.671874-32zm-175.132813 0h111.125l-10.664062 32h-111.132812zm-35.691406 125.046875 13.921875-53.351563 13.917969 53.351563c16.890625 64.886719 16.890625 133.019531 0 197.90625l-13.917969 53.351563-13.921875-53.351563c-16.886718-64.886719-16.886718-133.019531 0-197.90625zm325.921875 322.953125h-304v-32h304zm21.917969-125.046875-13.917969 53.351563-13.921875-53.351563c-16.886718-64.886719-16.886718-133.019531 0-197.90625l13.921875-53.351563 13.917969 53.351563c16.890625 64.886719 16.890625 133.019531 0 197.90625zm0 0" fill="#231f20"/><path d="m244.117188 293.089844-22.625-22.625c-15.628907-15.59375-40.933594-15.59375-56.566407 0-.238281.230468-.390625.511718-.617187.75-.078125.089844-.15625.183594-.222656.28125-14.707032 15.71875-14.335938 40.261718.839843 55.527344l22.632813 22.632812c15.621094 15.613281 40.9375 15.613281 56.558594 0 .113281-.113281.183593-.242188.289062-.351562.105469-.113282.183594-.214844.273438-.328126 15.015624-15.691406 14.769531-40.5-.5625-55.886718zm-33.933594-11.3125 22.621094 22.621094c5.980468 6.019531 8.328124 14.757812 6.167968 22.960937-4.230468-8.050781-11.078125-14.421875-19.414062-18.0625l-19.777344-8.570313c-4.640625-2-8.527344-5.421874-11.09375-9.773437l-7.609375-12.800781c9.386719-5.613282 21.390625-4.113282 29.105469 3.640625zm-11.3125 56.566406-22.632813-22.632812c-6.296875-6.339844-8.535156-15.660157-5.800781-24.167969l4.488281 7.578125c4.289063 7.25 10.761719 12.949218 18.496094 16.285156l19.777344 8.59375c5.152343 2.226562 9.359375 6.191406 11.894531 11.199219l3.289062 6.535156c-9.441406 5.828125-21.640624 4.425781-29.511718-3.390625zm0 0" fill="#231f20"/></svg>