<svg height="480pt" viewBox="-72 0 480 480" width="480pt" xmlns="http://www.w3.org/2000/svg"><path d="m8 440h320v32h-320zm0 0" fill="#a97c50"/><path d="m328 112h-120v48c0 22.089844-17.910156 40-40 40s-40-17.910156-40-40v-48h-120v328h320zm-124.121094 240c-12.496094 12.496094-32.757812 12.496094-45.253906 0l-22.625-22.625c-12.496094-12.496094-12.496094-32.757812 0-45.253906 12.496094-12.5 32.757812-12.5 45.257812 0l22.621094 22.621094c12.5 12.5 12.5 32.761718 0 45.257812zm92.121094 56" fill="#c2b59b"/><path d="m8 40h120v72h-120zm0 0" fill="#a97c50"/><path d="m208 40h120v72h-120zm0 0" fill="#a97c50"/><path d="m8 8h120v32h-120zm0 0" fill="#c49a6c"/><path d="m208 8h120v32h-120zm0 0" fill="#c49a6c"/><path d="m181.800781 324.640625-19.777343-8.578125c-6.179688-2.675781-11.359376-7.238281-14.800782-13.03125l-11.222656-18.910156c-12.496094 12.496094-12.496094 32.757812 0 45.253906l22.625 22.625c12.496094 12.496094 32.757812 12.496094 45.253906 0l-6.214844-12.367188c-3.367187-6.703124-8.984374-12.007812-15.863281-14.992187zm0 0" fill="#8b5e3c"/><path d="m181.257812 284.121094c-12.5-12.5-32.761718-12.5-45.257812 0l11.199219 18.910156c3.4375 5.792969 8.617187 10.355469 14.800781 13.03125l19.777344 8.578125c6.878906 2.984375 12.496094 8.289063 15.863281 14.992187l6.238281 12.367188c12.5-12.496094 12.5-32.757812 0-45.257812zm0 0" fill="#a97c50"/><path d="m128 112v48c0 22.089844 17.910156 40 40 40s40-17.910156 40-40v-152h-80zm0 0" fill="#ab2300"/><g fill="#231f20"><path d="m328 0h-320c-4.417969 0-8 3.582031-8 8v464c0 4.417969 3.582031 8 8 8h320c4.417969 0 8-3.582031 8-8v-464c0-4.417969-3.582031-8-8-8zm-208 104h-104v-56h104zm-104 16h104v40c0 26.507812 21.492188 48 48 48s48-21.492188 48-48v-40h104v312h-304zm304-16h-104v-56h104zm0-72h-104v-16h104zm-120 128c0 17.671875-14.328125 32-32 32s-32-14.328125-32-32v-144h64zm-184-144h104v16h-104zm304 448h-304v-16h304zm0 0"/><path d="m209.535156 301.089844-22.625-22.625c-15.617187-15.621094-40.945312-15.621094-56.566406 0-.238281.230468-.398438.519531-.632812.800781-.0625.078125-.144532.160156-.207032.246094-14.828125 15.679687-14.453125 40.320312.839844 55.542969l22.625 22.632812c15.632812 15.59375 40.933594 15.59375 56.566406 0 .113282-.113281.183594-.238281.296875-.351562l.257813-.3125c15.101562-15.660157 14.855468-40.542969-.554688-55.902344zm-50.902344-18.328125c6.363282-.011719 12.46875 2.511719 16.96875 7.015625l22.621094 22.621094c6.089844 5.96875 8.460938 14.769531 6.183594 22.984374-4.226562-8.066406-11.082031-14.445312-19.429688-18.085937l-19.777343-8.570313c-4.636719-2-8.519531-5.421874-11.085938-9.773437l-7.609375-12.800781c3.667969-2.191406 7.855469-3.363282 12.128906-3.390625zm5.648438 63.582031-22.625-22.632812c-6.414062-6.277344-8.671875-15.671876-5.816406-24.183594l4.503906 7.59375c4.289062 7.246094 10.765625 12.949218 18.496094 16.285156l19.777344 8.59375c5.152343 2.226562 9.363281 6.191406 11.894531 11.199219l3.289062 6.535156c-9.441406 5.832031-21.648437 4.429687-29.519531-3.390625zm0 0"/><path d="m296 368c-4.417969 0-8 3.582031-8 8v24h-24c-4.417969 0-8 3.582031-8 8s3.582031 8 8 8h32c4.417969 0 8-3.582031 8-8v-32c0-4.417969-3.582031-8-8-8zm0 0"/></g></svg>