<svg height="480pt" viewBox="0 0 480 480" width="480pt" xmlns="http://www.w3.org/2000/svg"><path d="m408 8h-336c-35.347656 0-64 28.652344-64 64v48h464v-48c0-35.347656-28.652344-64-64-64zm-192 72c0 8.835938-7.164062 16-16 16h-128c-8.835938 0-16-7.164062-16-16v-32c0-8.835938 7.164062-16 16-16h128c8.835938 0 16 7.164062 16 16zm208 0c0 8.835938-7.164062 16-16 16h-128c-8.835938 0-16-7.164062-16-16v-32c0-8.835938 7.164062-16 16-16h128c8.835938 0 16 7.164062 16 16zm0 0" fill="#898890"/><path d="m8 392v32c0 26.507812 21.492188 48 48 48h368c26.507812 0 48-21.492188 48-48v-32zm48 48h368c8.835938 0 16-7.164062 16-16 0 8.835938-7.164062 16-16 16h-368c-8.835938 0-16-7.164062-16-16 0 8.835938 7.164062 16 16 16zm0 0" fill="#898890"/><path d="m152 360h-128v32h432v-32zm0 0" fill="#acabb1"/><path d="m352 152h-8v32h-32v-32h-8c-17.671875 0-32-14.328125-32-32h-64c0 17.671875-14.328125 32-32 32h-8v32h-32v-32h-8c-17.671875 0-32-14.328125-32-32h-56v240h112c-35.347656 0-64-28.652344-64-64v-80h128v80c0 35.347656-28.652344 64-64 64h176c-35.347656 0-64-28.652344-64-64v-80h128v80c0 35.347656-28.652344 64-64 64h112v-240h-56c0 17.671875-14.328125 32-32 32zm0 0" fill="#57565c"/><path d="m392 296v-40.214844l-12.183594-2.960937c-13.578125-3.304688-27.789062-2.992188-41.207031.910156l-15.808594 4.59375c-12.355469 3.578125-25.390625 4.125-38 1.601563l-20.800781-4.160157v40.230469c0 35.347656 28.652344 64 64 64s64-28.652344 64-64zm0 0" fill="#8b5e3c"/><path d="m322.800781 258.328125 15.808594-4.59375c13.417969-3.902344 27.628906-4.214844 41.207031-.910156l12.183594 2.960937v-39.785156h-128v39.785156l20.800781 4.160156c12.613281 2.519532 25.644531 1.964844 38-1.617187zm0 0" fill="#d8d7da"/><path d="m128 152h48c17.671875 0 32-14.328125 32-32h-112c0 17.671875 14.328125 32 32 32zm0 0" fill="#c6c5ca"/><path d="m136 152h32v32h-32zm0 0" fill="#898890"/><path d="m304 152h48c17.671875 0 32-14.328125 32-32h-112c0 17.671875 14.328125 32 32 32zm0 0" fill="#c6c5ca"/><path d="m312 152h32v32h-32zm0 0" fill="#898890"/><path d="m112 64c0 8.835938-7.164062 16-16 16s-16-7.164062-16-16 7.164062-16 16-16 16 7.164062 16 16zm0 0" fill="#ffaf46"/><path d="m200 32h-128c-8.835938 0-16 7.164062-16 16v32c0 8.835938 7.164062 16 16 16h128c8.835938 0 16-7.164062 16-16v-32c0-8.835938-7.164062-16-16-16zm-104 48c-8.835938 0-16-7.164062-16-16s7.164062-16 16-16 16 7.164062 16 16-7.164062 16-16 16zm0 0" fill="#00b6bd"/><path d="m408 32h-128c-8.835938 0-16 7.164062-16 16v32c0 8.835938 7.164062 16 16 16h128c8.835938 0 16-7.164062 16-16v-32c0-8.835938-7.164062-16-16-16zm-104 48c-8.835938 0-16-7.164062-16-16s7.164062-16 16-16 16 7.164062 16 16-7.164062 16-16 16zm0 0" fill="#00b6bd"/><path d="m320 64c0 8.835938-7.164062 16-16 16s-16-7.164062-16-16 7.164062-16 16-16 16 7.164062 16 16zm0 0" fill="#ffaf46"/><path d="m146.800781 258.328125 15.808594-4.59375c13.417969-3.902344 27.628906-4.214844 41.207031-.910156l12.183594 2.960937v-39.785156h-128v39.785156l20.800781 4.160156c12.613281 2.519532 25.644531 1.964844 38-1.617187zm0 0" fill="#d8d7da"/><path d="m216 296v-40.214844l-12.183594-2.960937c-13.578125-3.304688-27.789062-2.992188-41.207031.910156l-15.808594 4.59375c-12.355469 3.578125-25.390625 4.125-38 1.601563l-20.800781-4.160157v40.230469c0 35.347656 28.652344 64 64 64s64-28.652344 64-64zm0 0" fill="#8b5e3c"/><g fill="#231f20"><path d="m472 128c4.417969 0 8-3.582031 8-8v-48c-.042969-39.746094-32.253906-71.9570312-72-72h-336c-39.746094.0429688-71.9570312 32.253906-72 72v48c0 4.417969 3.582031 8 8 8h24v224h-8c-4.417969 0-8 3.582031-8 8v24h-8c-4.417969 0-8 3.582031-8 8v32c.0351562 30.914062 25.085938 55.964844 56 56h368c30.914062-.035156 55.964844-25.085938 56-56v-32c0-4.417969-3.582031-8-8-8h-8v-24c0-4.417969-3.582031-8-8-8h-8v-224zm-456-56c.035156-30.914062 25.085938-55.964844 56-56h336c30.914062.035156 55.964844 25.085938 56 56v40h-448zm304 88h16v16h-16zm-16-16c-10.167969-.011719-19.230469-6.417969-22.632812-16h93.265624c-3.402343 9.582031-12.464843 15.988281-22.632812 16zm-160 16h16v16h-16zm-16-16c-10.167969-.011719-19.230469-6.417969-22.632812-16h93.265624c-3.402343 9.582031-12.464843 15.988281-22.632812 16zm336 280c-.027344 22.082031-17.917969 39.972656-40 40h-368c-22.082031-.027344-39.972656-17.917969-40-40v-24h448zm-432-40v-16h416v16zm64-88v-30.457031l11.199219 2.25c13.878906 2.757812 28.214843 2.144531 41.808593-1.785157l15.800782-4.59375c12.082031-3.492187 24.867187-3.769531 37.085937-.796874l6.074219 1.472656v33.910156c0 30.929688-25.074219 56-56 56-30.929688 0-56-25.070312-56-56zm112-50.398438-2.289062-.5625c-14.941407-3.621093-30.566407-3.273437-45.335938 1l-15.800781 4.59375c-11.117188 3.214844-22.84375 3.71875-34.199219 1.464844l-14.398438-2.882812v-25.214844h112.023438zm64 50.398438v-30.457031l11.199219 2.25c13.878906 2.757812 28.214843 2.144531 41.808593-1.785157l15.800782-4.59375c12.082031-3.492187 24.867187-3.769531 37.085937-.796874l6.074219 1.472656v33.910156c0 30.929688-25.074219 56-56 56-30.929688 0-56-25.070312-56-56zm112-50.398438-2.289062-.5625c-14.941407-3.621093-30.566407-3.273437-45.335938 1l-15.800781 4.59375c-11.117188 3.214844-22.84375 3.71875-34.199219 1.464844l-14.398438-2.882812v-25.214844h112.023438zm48 106.398438h-58.847656c16.96875-13.636719 26.84375-34.230469 26.847656-56v-80c0-4.417969-3.582031-8-8-8h-128c-4.417969 0-8 3.582031-8 8v80c.003906 21.769531 9.878906 42.363281 26.847656 56h-85.695312c16.96875-13.636719 26.84375-34.230469 26.847656-56v-80c0-4.417969-3.582031-8-8-8h-128c-4.417969 0-8 3.582031-8 8v80c.003906 21.769531 9.878906 42.363281 26.847656 56h-58.847656v-224h40.800781c3.828125 18.613281 20.199219 31.976562 39.199219 32v24c0 4.417969 3.582031 8 8 8h32c4.417969 0 8-3.582031 8-8v-24c19-.023438 35.371094-13.386719 39.199219-32h49.601562c3.828125 18.613281 20.199219 31.976562 39.199219 32v24c0 4.417969 3.582031 8 8 8h32c4.417969 0 8-3.582031 8-8v-24c19-.023438 35.371094-13.386719 39.199219-32h40.800781zm0 0"/><path d="m440 416c-4.417969 0-8 3.582031-8 8s-3.582031 8-8 8h-368c-4.417969 0-8-3.582031-8-8s-3.582031-8-8-8-8 3.582031-8 8c0 13.253906 10.746094 24 24 24h368c13.253906 0 24-10.746094 24-24 0-4.417969-3.582031-8-8-8zm0 0"/><path d="m72 104h128c13.253906 0 24-10.746094 24-24v-32c0-13.253906-10.746094-24-24-24h-128c-13.253906 0-24 10.746094-24 24v32c0 13.253906 10.746094 24 24 24zm-8-56c0-4.417969 3.582031-8 8-8h128c4.417969 0 8 3.582031 8 8v32c0 4.417969-3.582031 8-8 8h-128c-4.417969 0-8-3.582031-8-8zm0 0"/><path d="m72 64c0 13.253906 10.746094 24 24 24s24-10.746094 24-24-10.746094-24-24-24-24 10.746094-24 24zm24-8c4.417969 0 8 3.582031 8 8s-3.582031 8-8 8-8-3.582031-8-8 3.582031-8 8-8zm0 0"/><path d="m136 72h16c4.417969 0 8-3.582031 8-8s-3.582031-8-8-8h-16c-4.417969 0-8 3.582031-8 8s3.582031 8 8 8zm0 0"/><path d="m176 72h16c4.417969 0 8-3.582031 8-8s-3.582031-8-8-8h-16c-4.417969 0-8 3.582031-8 8s3.582031 8 8 8zm0 0"/><path d="m280 104h128c13.253906 0 24-10.746094 24-24v-32c0-13.253906-10.746094-24-24-24h-128c-13.253906 0-24 10.746094-24 24v32c0 13.253906 10.746094 24 24 24zm-8-56c0-4.417969 3.582031-8 8-8h128c4.417969 0 8 3.582031 8 8v32c0 4.417969-3.582031 8-8 8h-128c-4.417969 0-8-3.582031-8-8zm0 0"/><path d="m280 64c0 13.253906 10.746094 24 24 24s24-10.746094 24-24-10.746094-24-24-24-24 10.746094-24 24zm24-8c4.417969 0 8 3.582031 8 8s-3.582031 8-8 8-8-3.582031-8-8 3.582031-8 8-8zm0 0"/><path d="m344 72h16c4.417969 0 8-3.582031 8-8s-3.582031-8-8-8h-16c-4.417969 0-8 3.582031-8 8s3.582031 8 8 8zm0 0"/><path d="m384 72h16c4.417969 0 8-3.582031 8-8s-3.582031-8-8-8h-16c-4.417969 0-8 3.582031-8 8s3.582031 8 8 8zm0 0"/></g></svg>