<svg height="480pt" viewBox="-63 0 479 480" width="480pt" xmlns="http://www.w3.org/2000/svg"><path d="m129.300781 393.761719c-65.359375 5.039062-112.800781 20.238281-112.800781 38.238281 0 22.078125 71.601562 40 160 40s160-17.921875 160-40c0-18-47.441406-33.199219-112.800781-38.238281-26.71875 32.398437-47.199219 54.238281-47.199219 54.238281s-20.480469-21.839844-47.199219-54.238281zm0 0" fill="#00b6bd"/><path d="m176.5 8c-92.785156 0-168 75.214844-168 168 0 60.398438 71.199219 157.359375 120.800781 217.761719 26.71875 32.398437 47.199219 54.238281 47.199219 54.238281s20.480469-21.839844 47.199219-54.238281c49.601562-60.402344 120.800781-157.363281 120.800781-217.761719 0-92.785156-75.214844-168-168-168zm80.960938 224.960938c-4.492188 4.507812-10.597657 7.039062-16.960938 7.039062h-13.441406c-11.246094 23.617188-37.34375 36.300781-62.863282 30.554688-25.519531-5.746094-43.660156-28.394532-43.695312-54.554688v-40h112v16h8c9.699219.007812 18.441406 5.855469 22.152344 14.820312 3.710937 8.960938 1.664062 19.277344-5.191406 26.140626zm0 0" fill="#c49a6c"/><path d="m232.5 192v-16h-112v40c.035156 26.160156 18.175781 48.808594 43.695312 54.554688 25.519532 5.746093 51.617188-6.9375 62.863282-30.554688 3.613281-7.484375 5.472656-15.691406 5.441406-24zm0 0" fill="#e0e0e2"/><path d="m240.5 192h-8v24c.03125 8.308594-1.828125 16.515625-5.441406 24h13.441406c13.253906 0 24-10.746094 24-24s-10.746094-24-24-24zm0 0" fill="#c49a6c"/><g fill="#231f20"><path d="m231.699219 248h8.800781c17.671875 0 32-14.328125 32-32s-14.328125-32-32-32v-8c0-4.417969-3.582031-8-8-8h-112c-4.417969 0-8 3.582031-8 8v40c.039062 35.328125 28.671875 63.960938 64 64 22.828125.085938 43.929688-12.148438 55.199219-32zm24.800781-32c0 8.835938-7.164062 16-16 16h-2.015625c.070313-.28125.09375-.566406.160156-.847656.40625-1.65625.703125-3.351563.96875-5.046875.125-.800781.3125-1.601563.40625-2.402344.316407-2.554687.476563-5.128906.480469-7.703125v-16c8.835938 0 16 7.164062 16 16zm-80 48c-26.5-.027344-47.972656-21.5-48-48v-32h96v32c.027344 7.128906-1.570312 14.167969-4.671875 20.585938-7.847656 16.816406-24.769531 27.527343-43.328125 27.414062zm0 0"/><path d="m248.5 288c0-4.417969-3.582031-8-8-8h-128c-4.417969 0-8 3.582031-8 8s3.582031 8 8 8h128c4.417969 0 8-3.582031 8-8zm0 0"/><path d="m196.058594 118.671875c-6.703125 3.261719-11.121094 9.886719-11.558594 17.328125 0 4.417969 3.582031 8 8 8s8-3.582031 8-8c0-.910156 1.3125-1.929688 4.441406-4 6.707032-3.261719 11.128906-9.898438 11.558594-17.34375-.4375-7.441406-4.855469-14.066406-11.558594-17.328125-3.128906-2.089844-4.441406-3.113281-4.441406-4s1.3125-1.914063 4.433594-4c6.707031-3.253906 11.132812-9.882813 11.566406-17.328125 0-4.417969-3.582031-8-8-8s-8 3.582031-8 8c0 .894531-1.3125 1.910156-4.433594 4-6.707031 3.246094-11.132812 9.871094-11.566406 17.3125.4375 7.441406 4.855469 14.066406 11.558594 17.328125 3.128906 2.085937 4.441406 3.101563 4.441406 4 0 .894531-1.3125 1.945313-4.441406 4.03125zm0 0"/><path d="m156.058594 134.671875c-6.703125 3.261719-11.121094 9.886719-11.558594 17.328125 0 4.417969 3.582031 8 8 8s8-3.582031 8-8c0-.910156 1.3125-1.929688 4.441406-4 6.707032-3.261719 11.128906-9.898438 11.558594-17.34375-.4375-7.441406-4.855469-14.066406-11.558594-17.328125-3.128906-2.089844-4.441406-3.113281-4.441406-4s1.3125-1.914063 4.433594-4c6.707031-3.253906 11.132812-9.882813 11.566406-17.328125 0-4.417969-3.582031-8-8-8s-8 3.582031-8 8c0 .894531-1.3125 1.910156-4.433594 4-6.707031 3.246094-11.132812 9.871094-11.566406 17.3125.4375 7.441406 4.855469 14.066406 11.558594 17.328125 3.128906 2.085937 4.441406 3.101563 4.441406 4 0 .894531-1.3125 1.945313-4.441406 4.03125zm0 0"/><path d="m239.339844 387.199219c53.71875-66.886719 113.160156-153.824219 113.160156-211.199219 0-97.203125-78.796875-176-176-176s-176 78.796875-176 176c0 57.375 59.433594 144.304688 113.160156 211.199219-36.945312 3.945312-105.160156 15.273437-105.160156 44.800781 0 32.984375 87.089844 48 168 48s168-15.015625 168-48c0-29.527344-68.214844-40.855469-105.160156-44.800781zm-62.839844-371.199219c88.324219.101562 159.898438 71.675781 160 160 0 43.71875-42.257812 119.246094-118.976562 212.664062-17.902344 21.734376-33.113282 38.800782-41.023438 47.503907-.992188-1.066407-2.089844-2.28125-3.296875-3.648438-8.457031-9.398437-22.054687-24.800781-37.71875-43.839843-76.726563-93.433594-118.984375-168.960938-118.984375-212.679688.101562-88.324219 71.675781-159.898438 160-160zm0 448c-98.34375 0-152-21.144531-152-32 0-7.574219 29.785156-23.894531 101.296875-29.9375l.871094 1.050781c.976562 1.183594 1.945312 2.34375 2.910156 3.488281.601563.726563 1.203125 1.4375 1.800781 2.152344l2.722656 3.199219 1.941407 2.285156 2.449219 2.882813 1.847656 2.160156 2.488281 2.894531 1.601563 1.816407 2.460937 2.847656 1.386719 1.601562 2.398437 2.796875 1.03125 1.167969 2.648438 3.007812.410156.464844 2.765625 3.113282.402344.449218 2.46875 2.765625.386718.425781c6.109376 6.808594 9.78125 10.734376 9.871094 10.824219 1.511719 1.609375 3.621094 2.523438 5.832032 2.523438 2.207031 0 4.320312-.914063 5.832031-2.523438.085937-.089843 3.777343-4 9.917969-10.882812l.320312-.351563c.800781-.902344 1.679688-1.871094 2.570312-2.871094l.296876-.328124 2.757812-3.113282.464844-.519531 2.648437-3.007813.960938-1.09375 2.628906-3.007812 1.152344-1.328125 2.730469-3.144531 1.277343-1.480469 2.792969-3.25 1.488281-1.75c.945313-1.097656 1.886719-2.214844 2.855469-3.34375l1.496094-1.769531 3.199218-3.757813 1.34375-1.601562 3.386719-4.054688.613281-.753906c71.488282 6.058594 101.273438 22.378906 101.273438 29.953125 0 10.855469-53.65625 32-152 32zm0 0"/></g></svg>