<svg height="479pt" viewBox="-47 0 479 479.99572" width="479pt" xmlns="http://www.w3.org/2000/svg"><path d="m273.621094 103.996094h-208v48h208zm0 0" fill="#ab2300"/><path d="m111.019531 307.996094 100.800781-8.800782c24.550782-2.144531 49.242188-2.015624 73.769532.382813l44.894531 4.417969c-1.472656-24.566406-7.65625-48.621094-18.222656-70.847656l-38.640625-81.152344h-208l-38.640625 81.152344c-10.5625 22.226562-16.75 46.28125-18.222657 70.847656l11.734376 1.65625c29.992187 4.207031 60.363281 4.992187 90.527343 2.34375zm18.601563-28" fill="#f1f2f2"/><path d="m30.421875 405.117188 30.703125 58.328124c2.765625 5.253907 8.214844 8.546876 14.152344 8.550782h188.6875c5.941406-.003906 11.386718-3.296875 14.152344-8.550782l30.703124-58.328124c16.339844-31.089844 23.832032-66.066407 21.664063-101.121094l-44.910156-4.390625c-24.527344-2.402344-49.21875-2.53125-73.769531-.386719l-100.800782 8.800781c-30.167968 2.628907-60.539062 1.824219-90.527344-2.398437l-11.71875-1.625c-2.167968 35.054687 5.324219 70.03125 21.664063 101.121094zm219.046875 34.878906c2.96875 0 5.695312-1.644532 7.082031-4.273438l23.941407-45.511718c8.84375-16.8125 14.601562-35.074219 17.007812-53.917969-2.40625 18.84375-8.164062 37.105469-17.007812 53.917969l-23.941407 45.511718c-1.386719 2.628906-4.113281 4.273438-7.082031 4.273438zm-119.847656-64" fill="#754c29"/><path d="m177.621094 71.996094h101.335937l10.664063-64-272 32 48 64h112zm0 0" fill="#f1f2f2"/><path d="m329.621094 103.996094c8.835937 0 16 7.164062 16 16v88l32 16v-120c0-17.671875-14.328125-32-32-32h-66.664063l-5.335937 32zm0 0" fill="#898890"/><path d="m177.621094 103.996094h96l5.335937-32h-101.335937zm0 0" fill="#898890"/><g fill="#231f20"><path d="m345.621094 63.996094h-57.222656l9.109374-54.6875c.410157-2.476563-.363281-5-2.09375-6.820313-1.726562-1.820312-4.210937-2.722656-6.703124-2.4374998l-272 31.9999998c-2.847657.328125-5.300782 2.152344-6.433594 4.785157-1.132813 2.628906-.773438 5.667968.945312 7.960937l46.398438 61.863281v43.519532l-37.863282 79.527343c-10.832031 22.855469-17.214843 47.5625-18.816406 72.800781 0 .128907-.105468.230469-.128906.359376.003906.269531.023438.535156.058594.800781-2.222656 36.4375 5.550781 72.792969 22.476562 105.136719l30.699219 58.390624c4.140625 7.890626 12.320313 12.820313 21.230469 12.800782h188.6875c8.910156.019531 17.09375-4.910156 21.234375-12.800782l30.695312-58.328124c16.753907-32 24.546875-67.933594 22.558594-104v-.070313c-.007813-.167969-.023437-.332031-.046875-.496094-1.40625-25.851562-7.835938-51.183593-18.929688-74.578125l-37.855468-79.542968v-38.183594h48c4.417968 0 8 3.582031 8 8v88c0 3.03125 1.710937 5.804687 4.425781 7.160156l32 16c2.480469 1.238281 5.425781 1.105469 7.78125-.351562 2.359375-1.460938 3.792969-4.035157 3.792969-6.808594v-120c-.027344-22.082032-17.917969-39.972656-40-40zm-65.601563-46.816406-7.839843 46.816406h-94.558594c-4.417969 0-8 3.582031-8 8v24h-100l-37.253906-49.679688zm-13.175781 78.816406h-81.222656v-16h83.894531zm-1.222656 48h-192v-32h192zm36.121094 257.398437-30.695313 58.328125c-1.386719 2.628906-4.113281 4.273438-7.082031 4.273438h-188.6875c-2.96875 0-5.695313-1.644532-7.078125-4.273438l-30.699219-58.328125c-14.234375-27.199219-21.445312-57.527343-20.984375-88.222656l2.867187.398437c18.835938 2.65625 37.832032 3.992188 56.855469 4 11.855469 0 23.683594-.511718 35.488281-1.542968l100.800782-8.800782c24.054687-2.097656 48.253906-1.972656 72.285156.367188l37.921875 3.714844c.769531 31.324218-6.453125 62.328125-20.992187 90.085937zm19.878906-106.3125-35.253906-3.445312c-25.003907-2.433594-50.175782-2.5625-75.203126-.386719l-100.796874 8.800781c-29.574219 2.582031-59.347657 1.804688-88.746094-2.320312l-4.222656-.597657c2.078124-21 7.757812-41.484374 16.800781-60.554687l36.476562-76.582031h197.890625l36.472656 76.582031c8.746094 18.441406 14.351563 38.214844 16.582032 58.503906zm48-84-16-8v-83.085937c0-13.253906-10.746094-24-24-24h-46.558594l2.671875-16h59.886719c13.253906 0 24 10.746094 24 24zm0 0"/><path d="m129.621094 223.996094h-32c-4.417969 0-8 3.582031-8 8 0 4.417968 3.582031 8 8 8h32c4.417968 0 8-3.582032 8-8 0-4.417969-3.582032-8-8-8zm0 0"/><path d="m129.621094 271.996094h-48c-4.417969 0-8 3.582031-8 8 0 4.417968 3.582031 8 8 8h48c4.417968 0 8-3.582032 8-8 0-4.417969-3.582032-8-8-8zm0 0"/><path d="m129.621094 319.996094h-32c-4.417969 0-8 3.582031-8 8 0 4.417968 3.582031 8 8 8h32c4.417968 0 8-3.582032 8-8 0-4.417969-3.582032-8-8-8zm0 0"/><path d="m129.621094 367.996094h-48c-4.417969 0-8 3.582031-8 8 0 4.417968 3.582031 8 8 8h48c4.417968 0 8-3.582032 8-8 0-4.417969-3.582032-8-8-8zm0 0"/><path d="m129.621094 415.996094h-32c-4.417969 0-8 3.582031-8 8 0 4.417968 3.582031 8 8 8h32c4.417968 0 8-3.582032 8-8 0-4.417969-3.582032-8-8-8zm0 0"/><path d="m298.515625 328.347656c-4.367187-.507812-8.339844 2.566406-8.949219 6.921875-2.28125 17.890625-7.75 35.230469-16.144531 51.199219l-23.953125 45.527344h-39.847656c-4.417969 0-8 3.582031-8 8 0 4.417968 3.582031 8 8 8h39.847656c5.941406 0 11.394531-3.289063 14.160156-8.542969l23.945313-45.511719c9.296875-17.660156 15.347656-36.84375 17.871093-56.640625.269532-2.105469-.308593-4.234375-1.609374-5.914062-1.296876-1.679688-3.210938-2.773438-5.320313-3.039063zm0 0"/></g></svg>