<svg height="480pt" viewBox="0 0 480 480" width="480pt" xmlns="http://www.w3.org/2000/svg"><path d="m24 72h432v360h-432zm0 0" fill="#e0e0e2"/><path d="m120 392v-120c0-8.835938 7.164062-16 16-16s16 7.164062 16 16v88h32v-160c0-35.347656-28.652344-64-64-64s-64 28.652344-64 64v232h64zm0 0" fill="#00b6bd"/><path d="m440 392h32v80h-32zm0 0" fill="#c49a6c"/><path d="m440 272v88h32v-88c0-8.835938-7.164062-16-16-16s-16 7.164062-16 16zm0 0" fill="#754c29"/><path d="m360 392h32v80h-32zm0 0" fill="#c49a6c"/><path d="m360 360c-8.835938 0-16 7.164062-16 16s7.164062 16 16 16h112v-32zm0 0" fill="#603913"/><path d="m120 432v40h32v-80h-32zm0 0" fill="#c49a6c"/><path d="m152 272c0-8.835938-7.164062-16-16-16s-16 7.164062-16 16v88h32zm0 0" fill="#754c29"/><path d="m200 392h32v80h-32zm0 0" fill="#c49a6c"/><path d="m120 360v32h112c8.835938 0 16-7.164062 16-16s-7.164062-16-16-16zm0 0" fill="#603913"/><path d="m280 320h32v152h-32zm0 0" fill="#c49a6c"/><path d="m376 304c0-8.835938-7.164062-16-16-16h-128c-8.835938 0-16 7.164062-16 16s7.164062 16 16 16h128c8.835938 0 16-7.164062 16-16zm0 0" fill="#754c29"/><path d="m8 8v52c-.003906 12.019531 6 23.25 16 29.921875 11.042969 7.375 25.25 8.074219 36.964844 1.816406 11.714844-6.257812 19.03125-18.457031 19.035156-31.738281v-52zm0 0" fill="#ff5023"/><path d="m80 8v48c0 22.089844 17.910156 40 40 40s40-17.910156 40-40v-48zm0 0" fill="#ffcd00"/><path d="m160 8v48c0 22.089844 17.910156 40 40 40s40-17.910156 40-40v-48zm0 0" fill="#ff5023"/><path d="m240 8v48c0 22.089844 17.910156 40 40 40s40-17.910156 40-40v-48zm0 0" fill="#ffcd00"/><path d="m320 8v48c0 22.089844 17.910156 40 40 40s40-17.910156 40-40v-48zm0 0" fill="#ff5023"/><path d="m400 56v4c.003906 13.28125 7.320312 25.480469 19.035156 31.738281 11.714844 6.257813 25.921875 5.558594 36.964844-1.816406 10-6.671875 16.003906-17.902344 16-29.921875v-52h-72zm0 0" fill="#ffcd00"/><path d="m256 144h64v48h-64zm0 0" fill="#bdfdff"/><path d="m320 144h64v48h-64zm0 0" fill="#9bfbff"/><path d="m256 192h64v48h-64zm0 0" fill="#9bfbff"/><path d="m320 192h64v48h-64zm0 0" fill="#bdfdff"/><path d="m152 392h32v40h-32zm0 0" fill="#00b6bd"/><g fill="#231f20"><path d="m360 328c13.253906 0 24-10.746094 24-24s-10.746094-24-24-24h-128c-13.253906 0-24 10.746094-24 24s10.746094 24 24 24h40v144c0 4.417969 3.582031 8 8 8h32c4.417969 0 8-3.582031 8-8v-144zm-136-24c0-4.417969 3.582031-8 8-8h128c4.417969 0 8 3.582031 8 8s-3.582031 8-8 8h-128c-4.417969 0-8-3.582031-8-8zm80 160h-16v-136h16zm0 0"/><path d="m480 60v-52c0-4.417969-3.582031-8-8-8h-464c-4.417969 0-8 3.582031-8 8v52c-.00390625 13.128906 5.867188 25.566406 16 33.910156v338.089844c0 4.417969 3.582031 8 8 8h88v32c0 4.417969 3.582031 8 8 8h32c4.417969 0 8-3.582031 8-8v-72h32v72c0 4.417969 3.582031 8 8 8h32c4.417969 0 8-3.582031 8-8v-73.472656c11.011719-3.878906 17.621094-15.132813 15.644531-26.640625-1.980469-11.507813-11.96875-19.910157-23.644531-19.886719h-40v-152c0-39.765625-32.234375-72-72-72s-72 32.234375-72 72v224h-16v-321.703125c18.609375 5.351563 38.523438-2.167969 48.945312-18.488281 9.144532 12.894531 24.066407 20.449218 39.875 20.183594 15.8125-.265626 30.472657-8.316407 39.179688-21.511719 8.875 13.433593 23.898438 21.519531 40 21.519531s31.125-8.085938 40-21.519531c8.875 13.433593 23.898438 21.519531 40 21.519531s31.125-8.085938 40-21.519531c8.707031 13.195312 23.367188 21.246093 39.179688 21.511719 15.808593.265624 30.730468-7.289063 39.875-20.183594 10.421874 16.320312 30.335937 23.839844 48.945312 18.488281v147.199219c-9.546875 3.375-15.949219 12.378906-16 22.503906v80h-72c-11.675781-.023438-21.664062 8.378906-23.644531 19.886719-1.976563 11.507812 4.632812 22.761719 15.644531 26.640625v73.472656c0 4.417969 3.582031 8 8 8h32c4.417969 0 8-3.582031 8-8v-72h32v72c0 4.417969 3.582031 8 8 8h32c4.417969 0 8-3.582031 8-8v-200c-.042969-10.132812-6.445312-19.148438-16-22.527344v-155.5625c10.132812-8.34375 16.003906-20.78125 16-33.910156zm-336 292h-16v-80c0-4.417969 3.582031-8 8-8s8 3.582031 8 8zm0 112h-16v-64h16zm80 0h-16v-64h16zm16-88c0 4.417969-3.582031 8-8 8h-104v-16h104c4.417969 0 8 3.582031 8 8zm-176-176c0-30.929688 25.070312-56 56-56s56 25.070312 56 56v152h-16v-80c0-13.253906-10.746094-24-24-24s-24 10.746094-24 24v152h-48zm384 72c0-4.417969 3.582031-8 8-8s8 3.582031 8 8v80h-16zm-88 96h104v16h-104c-4.417969 0-8-3.582031-8-8s3.582031-8 8-8zm24 96h-16v-64h16zm80 0h-16v-64h16zm-392-404c0 15.464844-12.535156 28-28 28s-28-12.535156-28-28v-44h56zm48 28c-17.671875 0-32-14.328125-32-32v-40h64v40c0 17.671875-14.328125 32-32 32zm80 0c-17.671875 0-32-14.328125-32-32v-40h64v40c0 17.671875-14.328125 32-32 32zm80 0c-17.671875 0-32-14.328125-32-32v-40h64v40c0 17.671875-14.328125 32-32 32zm80 0c-17.671875 0-32-14.328125-32-32v-40h64v40c0 17.671875-14.328125 32-32 32zm48-28v-44h56v44c0 15.464844-12.535156 28-28 28s-28-12.535156-28-28zm0 0"/><path d="m384 248c4.417969 0 8-3.582031 8-8v-96c0-4.417969-3.582031-8-8-8h-128c-4.417969 0-8 3.582031-8 8v96c0 4.417969 3.582031 8 8 8zm-120-48h48v32h-48zm64 32v-32h48v32zm48-48h-48v-32h48zm-64-32v32h-48v-32zm0 0"/></g></svg>