<svg height="481pt" viewBox="0 -4 481.47395 481" width="481pt" xmlns="http://www.w3.org/2000/svg"><path d="m250.5625 80.253906-124.707031-72-13.597657 19.863282-72.527343 105.929687.007812.007813-.007812-.007813-31.730469 46.34375 138.5625 80 73.957031-160.105469zm0 0" fill="#d8d7da"/><path d="m409.761719 323.222656-8.289063-30.910156-12.421875-46.402344-216.371093 58.007813 20.714843 77.273437c13.144531 48.929688 57.5 82.9375 108.164063 82.9375 50.664062 0 95.015625-34.007812 108.164062-82.9375 5.15625-18.984375 5.15625-39 0-57.984375zm-185.464844 49.6875c9.382813 34.945313 41.03125 59.261719 77.214844 59.320313-36.183594-.058594-67.832031-24.375-77.214844-59.320313zm0 0" fill="#00b6bd"/><path d="m402.992188 267.054688-7.726563 2.070312 6.207031 23.203125 7.730469-2.074219c16.875-4.074218 33.925781 6.050782 38.421875 22.824219 4.492188 16.773437-5.207031 34.066406-21.863281 38.976563l-12.207031 3.273437c-.238282 8.738281-1.511719 17.421875-3.792969 25.863281l22.253906-5.96875c19.390625-5.121094 34.558594-20.21875 39.769531-39.585937 5.214844-19.363281-.324218-40.035157-14.519531-54.199219s-34.878906-19.65625-54.234375-14.398438zm0 0" fill="#009698"/><path d="m401.472656 292.3125 8.28125 30.910156zm0 0" fill="#898890"/><path d="m409.753906 323.222656-8.28125-30.910156zm0 0" fill="#898890"/><g fill="#231f20"><path d="m255 86.910156c2.308594-1.53125 3.660156-4.152344 3.570312-6.921875-.089843-2.769531-1.605468-5.296875-4.007812-6.675781l-124.714844-72c-3.617187-2.09375-8.234375-1.046875-10.597656 2.398438l-9.410156 13.777343-19.703125-11.378906c-11.488281-6.605469-26.160157-2.667969-32.800781 8.800781l-48 83.136719c-6.609376 11.488281-2.671876 26.164063 8.800781 32.800781l10.113281 5.832032-26.855469 39.199218c-1.257812 1.839844-1.6875 4.117188-1.195312 6.289063.496093 2.171875 1.875 4.039062 3.800781 5.152343l138.5625 80c1.214844.703126 2.59375 1.074219 4 1.070313.8125-.003906 1.621094-.128906 2.398438-.375 2.140624-.683594 3.898437-2.230469 4.839843-4.273437l73.007813-158.046876zm-228.863281 30.046875c-3.816407-2.210937-5.125-7.097656-2.917969-10.917969l48-83.144531c1.058594-1.832031 2.804688-3.167969 4.855469-3.703125 2.046875-.5625 4.234375-.277344 6.0625.800782l18.632812 10.765624-63.457031 92.65625zm187.121093-20-70.28125 152.121094-123.496093-71.296875 108.800781-158.894531 107.136719 61.863281-19.320313 12.878906c-1.230468.824219-2.214844 1.964844-2.839844 3.304688zm0 0"/><path d="m301.511719 424.230469c-32.558594-.054688-61.039063-21.9375-69.488281-53.382813-1.15625-4.25-5.53125-6.761718-9.785157-5.625-4.253906 1.136719-6.789062 5.5-5.667969 9.761719 10.320313 38.441406 45.140626 65.183594 84.941407 65.246094 4.417969 0 8-3.582031 8-8s-3.582031-8-8-8zm0 0"/><path d="m479.304688 304.582031c-9.1875-34.117187-44.257813-54.363281-78.398438-45.253906l-4.144531-15.449219c-1.144531-4.265625-5.527344-6.796875-9.792969-5.65625l-216.351562 57.976563c-4.265626 1.144531-6.796876 5.527343-5.65625 9.792969l20.703124 77.269531c13.808594 51.609375 60.089844 87.859375 113.5 88.90625 53.414063 1.046875 101.078126-33.359375 116.902344-84.386719l17.964844-4.796875c34.152344-9.148437 54.417969-44.253906 45.257812-78.402344zm-57.917969 40.359375c-.042969-.589844-.160157-1.183594-.203125-1.773437-.21875-2.800781-.535156-5.597657-.949219-8.386719-.144531-1.015625-.296875-2.03125-.472656-3.046875-.617188-3.542969-1.34375-7.078125-2.28125-10.582031l-6.207031-23.203125c8.324218-2.347657 17.269531-.035157 23.410156 6.054687 6.144531 6.089844 8.535156 15.011719 6.261718 23.359375-2.277343 8.34375-8.863281 14.816407-17.25 16.949219zm-92.898438 107.722656c-55.480469 14.867188-112.507812-18.058593-127.375-73.539062l-18.632812-69.550781 200.878906-53.832031 18.640625 69.542968c2.617188 9.714844 3.804688 19.761719 3.527344 29.816406-.238282 8.113282-1.429688 16.167969-3.558594 24-9.652344 35.851563-37.640625 63.867188-73.480469 73.5625zm130.570313-107.472656c-6.335938 11.0625-16.832032 19.128906-29.152344 22.398438l-9.671875 2.585937v-.160156c.40625-2.730469.542969-5.542969.796875-8.335937l6.816406-1.824219c14.007813-3.515625 25.035156-14.308594 28.847656-28.242188 3.808594-13.929687-.183593-28.832031-10.449218-38.988281-10.265625-10.160156-25.210938-13.992188-39.101563-10.035156l-2.070312-7.734375c18.761719-5.042969 38.714843 1.722656 50.542969 17.140625 11.824218 15.417968 13.1875 36.441406 3.457031 53.257812zm0 0"/><path d="m282.5625 196.390625c-4.417969 0-8 3.582031-8 8 .023438 22.082031 17.917969 39.972656 40 40 4.417969 0 8-3.582031 8-8s-3.582031-8-8-8c-13.257812 0-24-10.746094-24-24 0-4.417969-3.582031-8-8-8zm0 0"/><path d="m242.5625 116.390625c0 4.417969 3.582031 8 8 8 13.253906 0 24 10.746094 24 24v32c0 4.417969 3.582031 8 8 8s8-3.582031 8-8v-32c-.027344-22.082031-17.921875-39.972656-40-40-4.417969 0-8 3.582031-8 8zm0 0"/></g></svg>