<svg height="480pt" viewBox="-52 0 480 480.0007" width="480pt" xmlns="http://www.w3.org/2000/svg"><path d="m66.886719 8c-4.703125 0-9.164063 2.066406-12.207031 5.65625-3.039063 3.585938-4.347657 8.328125-3.578126 12.96875l24.417969 146.65625c2.582031 15.433594 15.949219 26.738281 31.601563 26.71875h81.757812c15.652344.019531 29.019532-11.285156 31.601563-26.71875l23.519531-141.28125 4-24zm47 160c-3.90625 0-7.242188-2.824219-7.886719-6.679688l-5.710938-26.273437 5.710938 26.273437c.644531 3.855469 3.980469 6.679688 7.886719 6.679688h27.023437zm0 0" fill="#ab2300"/><path d="m304 304c22.089844 0 40 17.910156 40 40s-17.910156 40-40 40h-26.082031l-.957031 7.121094c-.941407 5.742187-2.386719 11.390625-4.320313 16.878906h31.359375c35.34375 0 64-28.652344 64-64s-28.65625-64-64-64h-12.242188l-3.199218 24zm0 0" fill="#009698"/><path d="m27.121094 391.121094c7.429687 46.59375 47.617187 80.878906 94.796875 80.878906h60.242187c40.664063-.035156 76.902344-25.667969 90.480469-64 1.933594-5.488281 3.378906-11.136719 4.320313-16.878906l.957031-7.121094 10.640625-80 3.199218-24 4.242188-32h-288zm94.796875 48.878906c-31.367188.105469-58.152344-22.628906-63.140625-53.601562 4.988281 30.972656 31.773437 53.707031 63.140625 53.601562zm0 0" fill="#00b6bd"/><path d="m268.136719 85.40625c-1.007813 4.527344.09375 9.261719 2.992187 12.878906 2.898438 3.613282 7.285156 5.714844 11.917969 5.714844 7.480469-.003906 13.859375-5.417969 15.074219-12.800781l7.664062-45.96875c1.535156-9.273438-1.082031-18.75-7.160156-25.921875s-15-11.304688-24.402344-11.308594h-26.222656l-4 24h16.054688c4.855468 0 9.445312 2.203125 12.480468 5.988281 3.035156 3.789063 4.1875 8.746094 3.136719 13.484375zm0 0" fill="#ab2300"/><g fill="#231f20"><path d="m67.632812 174.585938c3.160157 19.328124 19.898438 33.492187 39.488282 33.414062h81.757812c19.585938.082031 36.324219-14.082031 39.488282-33.40625l22.417968-134.59375h9.269532c2.425781.003906 4.71875 1.105469 6.234374 3 1.515626 1.890625 2.09375 4.367188 1.566407 6.734375l-7.535157 33.929687c-1.773437 8.238282 1.046876 16.792969 7.371094 22.363282 6.324219 5.570312 15.164063 7.289062 23.113282 4.492187 7.949218-2.796875 13.769531-9.671875 15.210937-17.976562l7.664063-45.976563c1.929687-11.59375-1.339844-23.453125-8.9375-32.425781-7.601563-8.96875-18.761719-14.140625-30.519532-14.140625h-207.34375c-7.054687 0-13.75 3.101562-18.3125 8.480469-4.5625 5.382812-6.523437 12.496093-5.367187 19.457031zm224.902344-150.097657c4.570313 5.375 6.53125 12.496094 5.359375 19.457031l-7.664062 45.976563c-.4375 2.605469-2.253907 4.773437-4.75 5.65625-2.492188.882813-5.269531.34375-7.25-1.410156-1.984375-1.75-2.859375-4.441407-2.285157-7.023438l7.542969-33.945312c1.578125-7.105469-.15625-14.542969-4.710937-20.21875-4.558594-5.679688-11.441406-8.980469-18.722656-8.980469h-6.605469l.167969-1.023438 1.160156-6.976562h19.445312c7.058594-.007812 13.757813 3.097656 18.3125 8.488281zm-231.734375-5.65625c1.503907-1.800781 3.730469-2.839843 6.078125-2.832031h171.671875l-25.96875 156c-1.917969 11.582031-11.964843 20.054688-23.703125 20h-81.757812c-11.742188.058594-21.789063-8.417969-23.707032-20l-24.421874-146.6875c-.402344-2.324219.261718-4.703125 1.808593-6.480469zm0 0"/><path d="m98.113281 162.648438c1.289063 7.703124 7.957031 13.347656 15.765625 13.351562h27.023438c4.417968 0 8-3.582031 8-8s-3.582032-8-8-8l-27.09375-.40625-5.714844-26.273438c-.9375-4.320312-5.203125-7.058593-9.523438-6.117187-4.316406.941406-7.054687 5.207031-6.113281 9.523437zm0 0"/><path d="m304 272h-3.121094l3.046875-22.945312c.304688-2.285157-.390625-4.589844-1.910156-6.324219-1.515625-1.734375-3.710937-2.730469-6.015625-2.730469h-288c-2.308594 0-4.503906.996094-6.019531 2.734375-1.519531 1.734375-2.214844 4.042969-1.9101565 6.328125l19.1289065 143.320312c7.886719 50.574219 51.535156 87.804688 102.71875 87.617188h60.242187c41.9375-.074219 79.734375-25.300781 95.894532-64h25.945312c39.765625 0 72-32.234375 72-72s-32.234375-72-72-72zm-121.839844 192h-60.242187c-43.238281.175781-80.136719-31.230469-86.871094-73.945312l-17.902344-134.054688h269.71875l-17.792969 133.824219c-.875 5.273437-2.214843 10.464843-4 15.503906-12.460937 35.113281-45.652343 58.601563-82.910156 58.671875zm161.488282-80.398438c-10.515626 10.511719-24.78125 16.414063-39.648438 16.398438h-20.679688c.605469-2.542969 1.136719-5.160156 1.597657-7.816406v-.183594h19.082031c26.507812 0 48-21.492188 48-48s-21.492188-48-48-48h-6.296875l1.0625-8h5.234375c22.660156-.019531 43.097656 13.617188 51.78125 34.546875 8.679688 20.929687 3.890625 45.03125-12.132812 61.054687zm-48.082032-71.601562h8.433594c17.671875 0 32 14.328125 32 32s-14.328125 32-32 32h-16.945312zm0 0"/><path d="m166.160156 432h-44.242187c-27.429688.066406-50.847657-19.796875-55.253907-46.871094-.425781-2.859375-2.359374-5.261718-5.058593-6.292968-2.695313-1.03125-5.742188-.53125-7.964844 1.316406-2.222656 1.84375-3.277344 4.742187-2.761719 7.582031 5.664063 34.8125 35.773438 60.355469 71.039063 60.265625h44.242187c4.417969 0 8-3.582031 8-8s-3.582031-8-8-8zm0 0"/></g></svg>