<svg height="480pt" viewBox="0 0 480 480" width="480pt" xmlns="http://www.w3.org/2000/svg"><path d="m8 408v32c0 17.671875 14.328125 32 32 32h400c17.671875 0 32-14.328125 32-32v-32zm400 32" fill="#898890"/><path d="m152 376h-128v32h432v-32zm0 0" fill="#acabb1"/><path d="m432 88h-424v128h464v-128zm-192 96c-17.671875 0-32-14.328125-32-32s14.328125-32 32-32 32 14.328125 32 32-14.328125 32-32 32zm0 0" fill="#898890"/><path d="m112 24c0-8.835938-7.164062-16-16-16h-32c-8.835938 0-16 7.164062-16 16v64h64zm0 0" fill="#c6c5ca"/><path d="m216 24c0-8.835938-7.164062-16-16-16h-32c-8.835938 0-16 7.164062-16 16v64h64zm0 0" fill="#c6c5ca"/><path d="m328 24c0-8.835938-7.164062-16-16-16h-32c-8.835938 0-16 7.164062-16 16v64h64zm0 0" fill="#d8d7da"/><path d="m432 24c0-8.835938-7.164062-16-16-16h-32c-8.835938 0-16 7.164062-16 16v64h64zm0 0" fill="#d8d7da"/><path d="m272 152c0 17.671875-14.328125 32-32 32s-32-14.328125-32-32 14.328125-32 32-32 32 14.328125 32 32zm0 0" fill="#ffaf46"/><path d="m423.671875 236.894531c4.78125 6.371094 4.148437 15.289063-1.488281 20.921875l-4.800782 4.800782c-6.007812 6-9.382812 14.144531-9.382812 22.640624 0-8.492187 3.371094-16.632812 9.375-22.632812l4.800781-4.800781c5.632813-5.632813 6.269531-14.546875 1.488281-20.921875l-15.664062-20.902344h-48v24h-16v24h-32v-24h-16v-24h-112v24h-16v24h-32v-24h-16v-24h-48l-15.671875 20.894531c-4.78125 6.371094-4.148437 15.289063 1.488281 20.921875l4.800782 4.800782c6.007812 6 9.382812 14.144531 9.382812 22.640624 0-8.492187-3.371094-16.632812-9.375-22.632812l-4.800781-4.800781c-5.632813-5.632813-6.269531-14.546875-1.488281-20.921875l15.664062-20.902344h-48v160h128c-17.671875 0-32-14.328125-32-32v-48h64v48c0 17.671875-14.328125 32-32 32h176c-17.671875 0-32-14.328125-32-32v-48h64v48c0 17.671875-14.328125 32-32 32h128v-160h-48zm0 0" fill="#57565c"/><path d="m184 344v-48h-64v48c0 17.671875 14.328125 32 32 32s32-14.328125 32-32zm0 0" fill="#c6c5ca"/><path d="m360 344v-48h-64v48c0 17.671875 14.328125 32 32 32s32-14.328125 32-32zm0 0" fill="#c6c5ca"/><path d="m136 240h48v-24h-64v24zm0 0" fill="#c6c5ca"/><path d="m312 240h48v-24h-64v24zm0 0" fill="#c6c5ca"/><path d="m136 240h32v24h-32zm0 0" fill="#898890"/><path d="m312 240h32v24h-32zm0 0" fill="#898890"/><g fill="#231f20"><path d="m408 432h-336c-4.417969 0-8 3.582031-8 8s3.582031 8 8 8h336c4.417969 0 8-3.582031 8-8s-3.582031-8-8-8zm0 0"/><path d="m472 40c-4.417969 0-8 3.582031-8 8v32h-24v-56c0-13.253906-10.746094-24-24-24h-32c-13.253906 0-24 10.746094-24 24v56h-24v-56c0-13.253906-10.746094-24-24-24h-32c-13.253906 0-24 10.746094-24 24v56h-32v-56c0-13.253906-10.746094-24-24-24h-32c-13.253906 0-24 10.746094-24 24v56h-24v-56c0-13.253906-10.746094-24-24-24h-32c-13.253906 0-24 10.746094-24 24v56h-24v-32c0-4.417969-3.582031-8-8-8s-8 3.582031-8 8v168c0 4.417969 3.582031 8 8 8h8v176h-8c-4.417969 0-8 3.582031-8 8v32c.0273438 22.082031 17.917969 39.972656 40 40h400c22.082031-.027344 39.972656-17.917969 40-40v-32c0-4.417969-3.582031-8-8-8h-8v-176h8c4.417969 0 8-3.582031 8-8v-168c0-4.417969-3.582031-8-8-8zm-96-16c0-4.417969 3.582031-8 8-8h32c4.417969 0 8 3.582031 8 8v56h-48zm-104 0c0-4.417969 3.582031-8 8-8h32c4.417969 0 8 3.582031 8 8v56h-48zm-112 0c0-4.417969 3.582031-8 8-8h32c4.417969 0 8 3.582031 8 8v56h-48zm-104 0c0-4.417969 3.582031-8 8-8h32c4.417969 0 8 3.582031 8 8v56h-48zm408 416c0 13.253906-10.746094 24-24 24h-400c-13.253906 0-24-10.746094-24-24v-24h448zm-432-40v-16h416v16zm96-56v-40h48v40c0 13.253906-10.746094 24-24 24s-24-10.746094-24-24zm176 0v-40h48v40c0 13.253906-10.746094 24-24 24s-24-10.746094-24-24zm144 24h-88.207031c5.292969-6.882812 8.175781-15.316406 8.207031-24v-48c0-4.417969-3.582031-8-8-8h-64c-4.417969 0-8 3.582031-8 8v48c.03125 8.683594 2.914062 17.117188 8.207031 24h-112.414062c5.292969-6.882812 8.175781-15.316406 8.207031-24v-48c0-4.417969-3.582031-8-8-8h-64c-4.417969 0-8 3.582031-8 8v48c.03125 8.683594 2.914062 17.117188 8.207031 24h-88.207031v-144h24l-6.070312 8.097656c-7.121094 9.570313-6.171876 22.90625 2.230468 31.375l4.800782 4.800782c4.496093 4.507812 7.023437 10.613281 7.039062 16.984374v34.742188c0 4.417969 3.582031 8 8 8s8-3.582031 8-8v-34.742188c.027344-10.613281-4.195312-20.796874-11.71875-28.28125l-4.800781-4.800781c-2.816407-2.816406-3.132813-7.269531-.746094-10.457031l13.265625-17.71875h36v16c0 4.417969 3.582031 8 8 8h8v16c0 4.417969 3.582031 8 8 8h32c4.417969 0 8-3.582031 8-8v-16h8c4.417969 0 8-3.582031 8-8v-16h96v16c0 4.417969 3.582031 8 8 8h8v16c0 4.417969 3.582031 8 8 8h32c4.417969 0 8-3.582031 8-8v-16h8c4.417969 0 8-3.582031 8-8v-16h36l13.273438 17.695312c2.390624 3.1875 2.074218 7.648438-.746094 10.464844l-4.800782 4.800782c-7.53125 7.484374-11.753906 17.675781-11.726562 28.296874v34.742188c0 4.417969 3.582031 8 8 8s8-3.582031 8-8v-34.742188c.015625-6.363281 2.542969-12.460937 7.03125-16.96875l4.800781-4.800781c8.402344-8.46875 9.351563-21.804687 2.230469-31.375l-6.0625-8.113281h24zm-304-120h16v8h-16zm-16-16v-8h48v8zm192 16h16v8h-16zm-16-16v-8h48v8zm160-24h-448v-112h448zm0 0"/><path d="m240 112c-22.089844 0-40 17.910156-40 40s17.910156 40 40 40 40-17.910156 40-40c-.027344-22.082031-17.917969-39.972656-40-40zm0 64c-13.253906 0-24-10.746094-24-24s10.746094-24 24-24 24 10.746094 24 24-10.746094 24-24 24zm0 0"/><path d="m328 128h-16c-4.417969 0-8 3.582031-8 8s3.582031 8 8 8h16c4.417969 0 8-3.582031 8-8s-3.582031-8-8-8zm0 0"/><path d="m368 128h-16c-4.417969 0-8 3.582031-8 8s3.582031 8 8 8h16c4.417969 0 8-3.582031 8-8s-3.582031-8-8-8zm0 0"/><path d="m408 128h-16c-4.417969 0-8 3.582031-8 8s3.582031 8 8 8h16c4.417969 0 8-3.582031 8-8s-3.582031-8-8-8zm0 0"/><path d="m328 152h-16c-4.417969 0-8 3.582031-8 8s3.582031 8 8 8h16c4.417969 0 8-3.582031 8-8s-3.582031-8-8-8zm0 0"/><path d="m368 152h-16c-4.417969 0-8 3.582031-8 8s3.582031 8 8 8h16c4.417969 0 8-3.582031 8-8s-3.582031-8-8-8zm0 0"/><path d="m408 152h-16c-4.417969 0-8 3.582031-8 8s3.582031 8 8 8h16c4.417969 0 8-3.582031 8-8s-3.582031-8-8-8zm0 0"/><path d="m88 128h-16c-4.417969 0-8 3.582031-8 8s3.582031 8 8 8h16c4.417969 0 8-3.582031 8-8s-3.582031-8-8-8zm0 0"/><path d="m128 128h-16c-4.417969 0-8 3.582031-8 8s3.582031 8 8 8h16c4.417969 0 8-3.582031 8-8s-3.582031-8-8-8zm0 0"/><path d="m168 128h-16c-4.417969 0-8 3.582031-8 8s3.582031 8 8 8h16c4.417969 0 8-3.582031 8-8s-3.582031-8-8-8zm0 0"/><path d="m88 152h-16c-4.417969 0-8 3.582031-8 8s3.582031 8 8 8h16c4.417969 0 8-3.582031 8-8s-3.582031-8-8-8zm0 0"/><path d="m128 152h-16c-4.417969 0-8 3.582031-8 8s3.582031 8 8 8h16c4.417969 0 8-3.582031 8-8s-3.582031-8-8-8zm0 0"/><path d="m168 152h-16c-4.417969 0-8 3.582031-8 8s3.582031 8 8 8h16c4.417969 0 8-3.582031 8-8s-3.582031-8-8-8zm0 0"/></g></svg>