<svg height="480pt" viewBox="-91 0 480 480.00305" width="480pt" xmlns="http://www.w3.org/2000/svg"><path d="m249.203125 98.8125c3.980469-6.320312 3.054687-14.550781-2.222656-19.832031l-62.976563-70.976563-104 80 19.105469 40h135.632813zm0 0" fill="#c2b59b"/><path d="m264.003906 192.003906h-192l16 32h160zm0 0" fill="#594a42"/><path d="m88.003906 256.003906h176l-16-32h-160l-16 32zm0 0" fill="#594a42"/><path d="m59.558594 352.003906 16.726562 2.519532c24.039063 3.628906 48.492188 3.589843 72.519532-.121094l33-5.109375c22.558593-3.511719 45.5-3.78125 68.136718-.800781l26.503906 3.511718-28.441406-96h-160zm0 0" fill="#e0e0e2"/><path d="m181.820312 349.273438-33.015624 5.128906c-24.03125 3.71875-48.488282 3.769531-72.535157.144531l-16.710937-2.542969-11.203125 37.808594c-5.738281 19.359375-2.003907 40.292969 10.078125 56.476562 12.078125 16.183594 31.089844 25.714844 51.285156 25.714844h116.574219c20.191406 0 39.199219-9.53125 51.28125-25.710937 12.078125-16.179688 15.816406-37.113281 10.078125-56.472657l-11.207032-37.816406-26.488281-3.488281c-22.632812-2.992187-45.578125-2.738281-68.136719.757813zm75.152344 49.601562c2.882813 9.683594 1.019532 20.164062-5.019531 28.261719-6.042969 8.097656-15.554687 12.871093-25.660156 12.867187 10.097656 0 19.601562-4.765625 25.640625-12.859375 6.042968-8.089843 7.910156-18.558593 5.039062-28.238281zm0 0" fill="#754c29"/><path d="m264.003906 128.003906h-29.261718l-11.898438 24 11.898438-24h-135.632813l11.464844 24-11.464844-24h-27.105469l24 64h144zm0 0" fill="#c49a6c"/><path d="m138.652344 42.890625-26.648438-34.886719-39.070312 32.558594c-5.324219 4.4375-7.183594 11.796875-4.609375 18.234375l11.679687 29.207031zm0 0" fill="#c2b59b"/><g fill="#231f20"><path d="m295.324219 387.546875-36.605469-123.542969h5.285156c2.78125.015625 5.371094-1.414062 6.839844-3.777344 1.464844-2.359374 1.605469-5.3125.359375-7.800781l-14.253906-28.421875 14.253906-28.425781c1.246094-2.484375 1.105469-5.441406-.359375-7.800781-1.46875-2.359375-4.058594-3.789063-6.839844-3.773438h-12.453125l19.949219-53.191406c.921875-2.460938.578125-5.210938-.917969-7.367188-1.496093-2.15625-3.953125-3.445312-6.578125-3.441406h-16.375l8.582032-17.3125c5.714843-9.273437 4.375-21.246094-3.246094-29.023437l-62.976563-70.976563c-2.789062-3.140625-7.535156-3.589844-10.863281-1.023437l-38.726562 29.792969-22.082032-28.371094c-2.632812-3.390625-7.472656-4.09375-10.96875-1.597656l-31.949218 22.855468c-16.851563 12.175782-21.640626 35.191406-11.050782 53.078125l8.59375 14.351563 13.464844 28.226562h-14.402344c-2.625-.003906-5.082031 1.285156-6.578125 3.441406-1.496093 2.15625-1.839843 4.90625-.917969 7.367188l19.953126 53.191406h-12.457032c-2.773437-.003906-5.347656 1.433594-6.804687 3.789063-1.460938 2.359375-1.59375 5.304687-.355469 7.785156l10.21875 20.425781h-21.394531c-15.164063.050782-29.039063-8.523437-35.773438-22.113281l-2.730469-5.464844c-1.972656-3.953125-6.78125-5.558593-10.734374-3.582031-3.957032 1.972656-5.558594 6.78125-3.585938 10.734375l2.738281 5.464844c7.492188 15.125 21.445313 26.03125 37.933594 29.648437-12.257813 8.625-21.875 20.496094-27.765625 34.28125l-5.097656 11.878906c-1.175782 2.636719-.839844 5.699219.878906 8.015626 1.714844 2.320312 4.550781 3.535156 7.414062 3.179687 2.863282-.355469 5.3125-2.222656 6.410157-4.890625l5.097656-11.882812c8.269531-19.210938 25.332031-33.222657 45.785156-37.597657l-9.394531 18.773438c-1.226562 2.480469-1.085938 5.417969.371094 7.769531 1.457031 2.351562 4.023437 3.78125 6.789062 3.785156h5.289063l-36.609375 123.542969c-6.453125 21.78125-2.25 45.328125 11.339844 63.53125 13.59375 18.203125 34.976562 28.925781 57.695312 28.925781h116.574219c22.714843 0 44.101562-10.722656 57.691406-28.925781s17.792969-41.75 11.339844-63.53125zm-210.375-139.542969 8-16h150.113281l8 16zm166.113281-48-8 16h-150.113281l-8-16zm-166.363281-162.640625 25.714843-18.398437 17.304688 22.230468-45.464844 34.96875-4.175781-6.96875c-6.347656-10.730468-3.476563-24.527343 6.621094-31.832031zm5.3125 53.03125 92.960937-71.503906 58.351563 65.746094c2.65625 2.628906 3.117187 6.753906 1.113281 9.910156-.144531.230469-.273438.464844-.402344.710937l-12.261718 24.746094h-125.601563zm-6.460938 45.609375h10.519531l9.285157 19.445313c1.328125 2.777343 4.125 4.546875 7.203125 4.554687 1.191406-.003906 2.367187-.277344 3.4375-.800781 3.988281-1.902344 5.679687-6.675781 3.777344-10.664063l-5.976563-12.535156h110.046875l-6.167969 12.445313c-1.921875 3.953125-.296875 8.71875 3.640625 10.671875 3.941406 1.953125 8.71875.359375 10.695313-3.566406l9.6875-19.550782h12.761719l-18 48h-132.910157zm158.476563 128 23.25 78.457032-14.273438-1.890626c-23.382812-3.082031-47.089844-2.8125-70.398437.800782l-32.992188 5.121094c-23.234375 3.601562-46.878906 3.644531-70.128906.136718l-7.632813-1.152344 24.128907-81.472656zm29.175781 177.503906c-10.527344 14.230469-27.210937 22.585938-44.910156 22.496094h-116.574219c-17.675781.003906-34.3125-8.332031-44.886719-22.488281-10.578125-14.160156-13.847656-32.480469-8.828125-49.425781l9.226563-31.136719 9.839843 1.488281c24.847657 3.753906 50.125 3.703125 74.957032-.148437l33-5.113281c21.804687-3.382813 43.980468-3.632813 65.859375-.746094l21.34375 2.816406 9.773437 32.839844c5.105469 16.933594 1.835938 35.285156-8.800781 49.417968zm0 0"/><path d="m254.699219 391.203125c-4.234375 1.253906-6.652344 5.707031-5.398438 9.945313 2.164063 7.261718.773438 15.125-3.761719 21.199218-4.53125 6.078125-11.664062 9.65625-19.246093 9.65625-4.417969 0-8 3.582032-8 8 0 4.417969 3.582031 8 8 8 12.621093 0 24.5-5.957031 32.050781-16.066406 7.550781-10.113281 9.886719-23.195312 6.300781-35.292969-.59375-2.042969-1.976562-3.765625-3.84375-4.785156-1.863281-1.023437-4.058593-1.257813-6.101562-.65625zm0 0"/></g></svg>