<svg height="480pt" viewBox="0 0 480 480.00002" width="480pt" xmlns="http://www.w3.org/2000/svg"><g fill="#898890"><path d="m227.488281 409.648438c2.726563 2.558593 5.535157 5.03125 8.511719 7.3125-2.976562-2.28125-5.785156-4.753907-8.511719-7.3125zm0 0"/><path d="m225.335938 407.558594c-2.28125-2.253906-4.472657-4.597656-6.550782-7.046875 2.078125 2.449219 4.269532 4.792969 6.550782 7.046875zm0 0"/><path d="m198.398438 365.207031c-1.140626-3.246093-2.167969-6.542969-3.015626-9.917969.394532 1.597657.761719 3.160157 1.226563 4.710938.558594 1.769531 1.207031 3.480469 1.789063 5.207031zm0 0"/><path d="m211.015625 390.289062c2.0625 3.070313 4.25 6.054688 6.59375 8.894532-2.34375-2.839844-4.53125-5.824219-6.59375-8.894532zm0 0"/><path d="m192 328c.019531 4.0625.261719 8.117188.71875 12.152344-.457031-4.035156-.699219-8.089844-.71875-12.152344zm0 0"/><path d="m192.953125 342.246094c.484375 3.875 1.175781 7.722656 2.070313 11.523437-.894532-3.800781-1.585938-7.648437-2.070313-11.523437zm0 0"/><path d="m204.878906 379.945312c1.410156 2.664063 2.921875 5.277344 4.546875 7.839844-1.617187-2.523437-3.132812-5.136718-4.546875-7.839844zm0 0"/><path d="m199.152344 367.3125c1.328125 3.523438 2.832031 6.980469 4.511718 10.351562-1.675781-3.371093-3.183593-6.828124-4.511718-10.351562zm0 0"/></g><path d="m280 136v-48h-272v48zm0 0" fill="#957856"/><path d="m200 472h208c8.488281.011719 16.636719-3.355469 22.640625-9.359375s9.371094-14.152344 9.359375-22.640625h-272c0 17.671875 14.328125 32 32 32zm0 0" fill="#009698"/><path d="m416 328v-80h-224v80c.019531 4.0625.261719 8.117188.71875 12.152344.082031.703125.144531 1.40625.234375 2.09375.484375 3.875 1.175781 7.722656 2.070313 11.523437.121093.511719.265624 1.015625.390624 1.519531.851563 3.375 1.875 6.671876 3.019532 9.917969.246094.695313.460937 1.410157.71875 2.105469 1.328125 3.523438 2.835937 6.980469 4.511718 10.351562.382813.800782.800782 1.511719 1.214844 2.28125 1.410156 2.664063 2.921875 5.277344 4.546875 7.839844.527344.839844 1.039063 1.6875 1.597657 2.503906 2.066406 3.070313 4.25 6.054688 6.59375 8.894532.375.457031.796874.878906 1.175781 1.328125 2.078125 2.449219 4.269531 4.800781 6.550781 7.046875.710938.707031 1.425781 1.402344 2.152344 2.089844 2.726562 2.558593 5.535156 5.03125 8.511718 7.3125.480469.320312.960938.71875 1.441407 1.039062 28.121093 20.84375 64.375 27.324219 97.976562 17.503906 33.597657-9.816406 60.660157-34.796875 73.132813-67.503906 3.011718-7.734375 5.132812-15.785156 6.320312-24 .742188-5.300781 1.113282-10.648438 1.121094-16zm-159.488281 64.3125-1.472657-1.113281c-10.613281-8.195313-19.003906-18.921875-24.398437-31.199219 5.394531 12.277344 13.785156 23.003906 24.398437 31.199219l1.472657 1.082031c13.710937 10.238281 30.375 15.753906 47.488281 15.71875-17.109375.042969-33.773438-5.460938-47.488281-15.6875zm0 0" fill="#00b6bd"/><path d="m424 272h-8v24h8c13.253906 0 24 10.746094 24 24s-10.746094 24-24 24h-9.121094c-1.1875 8.214844-3.308594 16.265625-6.320312 24h15.441406c26.492188-.039062 47.960938-21.507812 48-48 0-26.507812-21.492188-48-48-48zm0 0" fill="#009698"/><path d="m263.433594 85.175781c-8.976563-44.875-48.375-77.175781-94.136719-77.175781h-50.59375c-45.761719 0-85.160156 32.300781-94.136719 77.175781l-.566406 2.824219h240zm0 0" fill="#a78966"/><path d="m264 136h-240l6.398438 80h227.203124zm0 0" fill="#ebe5dd"/><path d="m236 416.960938c-2.976562-2.28125-5.785156-4.753907-8.511719-7.3125-.726562-.6875-1.441406-1.382813-2.152343-2.089844-2.28125-2.253906-4.472657-4.597656-6.550782-7.046875-.386718-.449219-.800781-.871094-1.175781-1.328125-2.34375-2.839844-4.53125-5.824219-6.59375-8.894532-.550781-.800781-1.0625-1.664062-1.601563-2.503906-1.597656-2.546875-3.113281-5.160156-4.542968-7.839844-.398438-.800781-.800782-1.503906-1.214844-2.28125-1.679688-3.371093-3.183594-6.828124-4.511719-10.351562-.257812-.695312-.472656-1.410156-.71875-2.105469-.617187-1.726562-1.265625-3.4375-1.792969-5.207031h-151.832031l11.199219 112h144c-17.671875 0-32-14.328125-32-32h136c-23.976562.027344-47.324219-7.6875-66.558594-22-.480468-.320312-.960937-.71875-1.441406-1.039062zm0 0" fill="#ebe5dd"/><path d="m195.414062 355.289062c-.125-.511718-.269531-1.007812-.390624-1.519531-.894532-3.800781-1.585938-7.648437-2.070313-11.523437-.089844-.6875-.152344-1.390625-.234375-2.09375-.457031-4.035156-.699219-8.089844-.71875-12.152344v-80h62.398438l3.203124-32h-227.203124l14.402343 144h151.839844c-.464844-1.550781-.832031-3.136719-1.226563-4.710938zm-23.535156-35.289062c-12.496094 12.496094-32.757812 12.496094-45.253906 0l-22.625-22.625c-12.496094-12.496094-12.496094-32.757812 0-45.253906 12.496094-12.5 32.757812-12.5 45.257812 0l22.621094 22.621094c12.5 12.5 12.5 32.761718 0 45.257812zm0 0" fill="#c0ab91"/><path d="m209.425781 387.785156c.527344.839844 1.039063 1.679688 1.597657 2.503906-.558594-.816406-1.070313-1.664062-1.597657-2.503906zm0 0" fill="#898890"/><path d="m198.398438 365.207031c.25.695313.464843 1.410157.722656 2.105469-.226563-.695312-.441406-1.410156-.722656-2.105469zm0 0" fill="#898890"/><path d="m192.71875 340.152344c.082031.703125.144531 1.40625.234375 2.09375-.089844-.644532-.152344-1.390625-.234375-2.09375zm0 0" fill="#898890"/><path d="m195.023438 353.769531c.121093.511719.265624 1.007813.390624 1.519531-.125-.503906-.269531-1.007812-.390624-1.519531zm0 0" fill="#898890"/><path d="m227.488281 409.648438c-.726562-.6875-1.441406-1.382813-2.152343-2.089844.710937.707031 1.425781 1.402344 2.152343 2.089844zm0 0" fill="#898890"/><path d="m203.664062 377.664062c.382813.800782.800782 1.511719 1.214844 2.28125-.398437-.746093-.832031-1.546874-1.214844-2.28125zm0 0" fill="#898890"/><path d="m217.601562 399.199219c.375.457031.796876.878906 1.175782 1.328125-.378906-.464844-.792969-.886719-1.175782-1.328125zm0 0" fill="#898890"/><path d="m149.257812 252.121094c-12.5-12.5-32.761718-12.5-45.257812 0l11.199219 18.910156c3.4375 5.792969 8.617187 10.355469 14.800781 13.03125l19.777344 8.578125c6.878906 2.984375 12.496094 8.289063 15.863281 14.992187l6.238281 12.367188c12.5-12.496094 12.5-32.757812 0-45.257812zm0 0" fill="#a97c50"/><path d="m149.800781 292.640625-19.777343-8.578125c-6.179688-2.675781-11.359376-7.238281-14.800782-13.03125l-11.222656-18.910156c-12.496094 12.496094-12.496094 32.757812 0 45.253906l22.625 22.625c12.496094 12.496094 32.757812 12.496094 45.253906 0l-6.214844-12.367188c-3.367187-6.703124-8.984374-12.007812-15.863281-14.992187zm0 0" fill="#754c29"/><path d="m413.839844 376h10.160156c30.910156-.039062 55.960938-25.089844 56-56-.039062-30.910156-25.089844-55.960938-56-56v-16c0-4.417969-3.582031-8-8-8h-152.761719l8.152344-96h8.609375c4.417969 0 8-3.582031 8-8v-48c0-4.417969-3.582031-8-8-8h-9.601562c-11.183594-46.8125-52.972657-79.878906-101.101563-80h-50.59375c-48.128906.121094-89.917969 33.1875-101.101563 80h-9.601562c-4.417969 0-8 3.582031-8 8v48c0 4.417969 3.582031 8 8 8h8.617188l31.421874 328.800781c.410157 4.085938 3.851563 7.199219 7.960938 7.199219h352c10.613281.011719 20.792969-4.199219 28.296875-11.703125s11.714844-17.683594 11.703125-28.296875c0-4.417969-3.582031-8-8-8h-76.496094c22.339844-12.796875 39.984375-32.425781 50.335938-56zm10.160156-48v-24c8.835938 0 16 7.164062 16 16s-7.164062 16-16 16h-.265625c.175781-2.6875.265625-5.359375.265625-8zm40-8c-.039062 22.074219-17.925781 39.960938-40 40h-4.34375c.113281-.398438.191406-.800781.296875-1.214844.152344-.546875.261719-1.097656.40625-1.601562.433594-1.703125.863281-3.414063 1.214844-5.144532h2.425781c17.671875 0 32-14.324218 32-32 0-17.671874-14.328125-32-32-32v-8.039062c22.082031.027344 39.972656 17.917969 40 40zm-272-80c-4.417969 0-8 3.582031-8 8v29.910156c-1.730469-3.21875-3.90625-6.183594-6.464844-8.796875l-22.625-22.625c-15.617187-15.621093-40.945312-15.621093-56.566406 0-.230469.230469-.382812.503907-.609375.742188-.085937.09375-.164063.195312-.238281.296875-14.707032 15.722656-14.332032 40.261718.847656 55.527344l22.625 22.625c15.632812 15.59375 40.933594 15.59375 56.566406 0 .113282-.113282.183594-.238282.289063-.351563s.183593-.214844.273437-.328125c2.308594-2.472656 4.292969-5.226562 5.902344-8.199219v11.199219c.023438 4.144531.261719 8.285156.710938 12.40625.089843.921875.175781 1.832031.296874 2.753906.367188 2.964844.851563 5.898438 1.449219 8.800782h-134.417969l-12.800781-128h209.5625l-1.601562 16zm-39.015625 45.304688-19.792969-8.585938c-4.636718-1.996094-8.515625-5.417969-11.078125-9.765625l-7.609375-12.800781c9.382813-5.613282 21.386719-4.113282 29.097656 3.640625l22.621094 22.621093c5.988282 6.015626 8.335938 14.757813 6.167969 22.960938-4.226563-8.054688-11.070313-14.429688-19.40625-18.070312zm-49.136719-17.761719 4.503906 7.585937c4.28125 7.242188 10.753907 12.941406 18.480469 16.269532l19.785157 8.601562c5.148437 2.230469 9.355468 6.195312 11.894531 11.199219l3.289062 6.535156c-9.445312 5.824219-21.652343 4.410156-29.519531-3.414063l-22.625-22.625c-6.289062-6.335937-8.527344-15.648437-5.808594-24.152343zm14.855469-251.542969h50.59375c39.328125.089844 73.855469 26.1875 84.671875 64h-219.9375c10.816406-37.8125 45.34375-63.910156 84.671875-64zm-102.703125 80h256v32h-256zm239.335938 48-5.121094 64h-212.429688l-5.121094-64zm-192.136719 320-9.597657-96h137.230469c.28125.800781.625 1.601562.929688 2.398438.902343 2.402343 1.925781 4.714843 2.980469 7.027343 1.289062 2.855469 2.714843 5.636719 4.226562 8.382813.671875 1.207031 1.335938 2.398437 2.046875 3.597656 1.242187 2.074219 2.511719 4.113281 3.878906 6.113281.859375 1.25 1.777344 2.402344 2.679688 3.65625 1.992187 2.695313 4.082031 5.320313 6.320312 7.855469 1.601563 1.839844 3.257813 3.640625 4.976563 5.382812 1.039062 1.050782 2.089844 2.082032 3.199218 3.097657 2.898438 2.761719 5.933594 5.371093 9.097657 7.824219.128906.105468.65625.488281.800781.574218l.734375.539063c3.308594 2.421875 6.738281 4.675781 10.273437 6.75.421876.257812.800782.578125 1.238282.800781h-76.214844c-4.417969 0-8 3.582031-8 8 .019531 2.492188.269531 4.976562.753906 7.425781.140625.796875.375 1.476563.558594 2.222657.394531 1.628906.894531 3.230468 1.488281 4.800781.3125.796875.648438 1.550781 1.007813 2.320312.683594 1.457031 1.449218 2.871094 2.304687 4.238281.414063.671876.796875 1.351563 1.269531 1.992188.226563.328125.394532.6875.632813 1zm367.394531-16c-3.367188 9.59375-12.429688 16.007812-22.59375 16h-208c-10.167969-.011719-19.230469-6.417969-22.632812-16zm-126.59375-16c-22.265625.058594-43.945312-7.109375-61.792969-20.425781-.09375-.070313-.589843-.429688-.703125-.496094l-.640625-.46875c-2.773437-2.128906-5.359375-4.425781-7.871093-6.777344-.933594-.878906-1.851563-1.777343-2.761719-2.695312-1.503907-1.511719-2.925781-3.089844-4.328125-4.671875-1.875-2.132813-3.664063-4.355469-5.367188-6.664063-.800781-1.105469-1.664062-2.207031-2.445312-3.34375-1.152344-1.695312-2.25-3.441406-3.304688-5.199219-.65625-1.089843-1.273437-2.203124-1.882812-3.320312-1.199219-2.160156-2.328125-4.351562-3.359375-6.59375-1.03125-2.238281-1.992188-4.421875-2.847657-6.703125-.480468-1.25-.878906-2.527344-1.3125-3.792969-.796874-2.472656-1.597656-4.96875-2.214843-7.511718-.175781-.695313-.375-1.382813-.542969-2.089844-.753906-3.335938-1.328125-6.726563-1.761719-10.15625-.09375-.800782-.167969-1.53125-.246093-2.289063-.390626-3.585937-.597657-7.191406-.617188-10.800781v-72h208v72c-.007812 4.976562-.355469 9.945312-1.03125 14.871094-1.109375 7.625-3.078125 15.09375-5.871094 22.273437-15.519531 40.148438-54.054687 66.683594-97.097656 66.855469zm0 0" fill="#231f20"/><path d="m304 400c-15.410156.035156-30.414062-4.925781-42.761719-14.144531l-1.292969-.945313c-9.550781-7.394531-17.105468-17.058594-21.976562-28.109375-1.851562-3.90625-6.46875-5.636719-10.433594-3.90625-3.960937 1.730469-5.832031 6.292969-4.222656 10.304688 6 13.597656 15.3125 25.476562 27.085938 34.542969l1.355468.992187c15.089844 11.257813 33.421875 17.3125 52.246094 17.265625 4.417969 0 8-3.582031 8-8s-3.582031-8-8-8zm0 0" fill="#231f20"/><path d="m347.199219 185.601562c-8.550781 6.398438-19.199219 14.398438-19.199219 30.398438 0 4.417969 3.582031 8 8 8s8-3.582031 8-8c0-7.632812 4.625-11.480469 12.800781-17.601562 8.550781-6.398438 19.199219-14.398438 19.199219-30.398438s-10.648438-24-19.199219-30.398438c-8.175781-6.144531-12.800781-9.992187-12.800781-17.601562s4.625-11.457031 12.800781-17.601562c8.550781-6.398438 19.199219-14.398438 19.199219-30.398438 0-4.417969-3.582031-8-8-8s-8 3.582031-8 8c0 7.625-4.625 11.464844-12.800781 17.601562-8.550781 6.398438-19.199219 14.398438-19.199219 30.398438s10.648438 24 19.199219 30.398438c8.183593 6.128906 12.800781 9.976562 12.800781 17.601562s-4.625 11.464844-12.800781 17.601562zm0 0" fill="#231f20"/><path d="m395.199219 150.398438c8.183593 6.128906 12.800781 9.976562 12.800781 17.601562s-4.625 11.472656-12.800781 17.601562c-8.550781 6.398438-19.199219 14.398438-19.199219 30.398438 0 4.417969 3.582031 8 8 8s8-3.582031 8-8c0-7.632812 4.625-11.480469 12.800781-17.601562 8.550781-6.398438 19.199219-14.398438 19.199219-30.398438s-10.648438-24-19.199219-30.398438c-8.175781-6.144531-12.800781-9.992187-12.800781-17.601562s4.625-11.457031 12.800781-17.601562c8.550781-6.398438 19.199219-14.398438 19.199219-30.398438 0-4.417969-3.582031-8-8-8s-8 3.582031-8 8c0 7.625-4.625 11.464844-12.800781 17.601562-8.550781 6.398438-19.199219 14.398438-19.199219 30.398438s10.648438 24 19.199219 30.398438zm0 0" fill="#231f20"/></svg>