<svg height="478pt" viewBox="-1 0 478 478.07209" width="478pt" xmlns="http://www.w3.org/2000/svg"><path d="m429.507812 134.070312h-176l12 24h152zm0 0" fill="#c49a6c"/><path d="m428.628906 409.191406c-21.125-2.082031-42.429687-1.355468-63.363281 2.160156l-33.199219 5.601563c-20.296875 3.367187-40.945312 4.148437-61.4375 2.320313l-30.160156-2.722657c11.234375 32.074219 41.519531 53.539063 75.503906 53.519531h51.070313c36.183593-.007812 67.851562-24.324218 77.199219-59.277343zm0 0" fill="#754c29"/><path d="m325.507812 310.070312-16.800781-32h-47.199219l-23.152343 92.601563c-3.832031 15.167969-3.097657 31.128906 2.113281 45.878906l30.160156 2.722657c20.492188 1.828124 41.140625 1.046874 61.4375-2.320313l33.199219-5.601563c20.933594-3.515624 42.238281-4.242187 63.363281-2.160156l15.597656 1.601563c3.578126-13.117188 3.71875-26.933594.417969-40.121094l-23.136719-92.601563h-47.199218l-16.800782 32zm0 0" fill="#f1f2f2"/><path d="m417.507812 158.070312h-172l63.199219 120h65.679688l13.816406-26.246093 49.304687-93.753907zm-116 24 16 56zm64 56 16-56zm0 0" fill="#a97c50"/><path d="m325.507812 310.070312h32l16.839844-32h-65.679687zm0 0" fill="#c49a6c"/><path d="m116.867188 31.792969-11.59375-3.105469-23.199219-6.214844-71.382813 108.144532c-2.828125 4.289062-3.421875 9.679687-1.597656 14.484374 1.828125 4.804688 5.847656 8.4375 10.8125 9.769532l125.96875 33.753906c5.101562 1.367188 10.550781.128906 14.558594-3.308594 4.007812-3.4375 6.0625-8.632812 5.488281-13.882812l-14.277344-130.320313zm0 0" fill="#c6c5ca"/><path d="m128.460938 34.871094 3.101562-11.589844c1.714844-6.40625-2.089844-12.992188-8.496094-14.707031-6.40625-1.710938-12.988281 2.089843-14.703125 8.496093l-3.105469 11.59375 11.59375 3.105469zm0 0" fill="#898890"/><path d="m116.867188 31.792969-11.59375-3.105469zm0 0" fill="#898890"/><g fill="#231f20"><path d="m341.507812 174.070312c-4.417968 0-8 3.582032-8 8v56c0 4.421876 3.582032 8 8 8 4.417969 0 8-3.578124 8-8v-56c0-4.417968-3.582031-8-8-8zm0 0"/><path d="m389.203125 184.265625c1.210937-4.25-1.253906-8.679687-5.503906-9.890625s-8.675781 1.253906-9.886719 5.503906l-16 56c-1.214844 4.25 1.25 8.679688 5.503906 9.890625.710938.199219 1.449219.300781 2.191406.300781 3.570313 0 6.707032-2.371093 7.6875-5.804687zm0 0"/><path d="m309.203125 179.878906c-1.210937-4.25-5.636719-6.714844-9.886719-5.503906s-6.714844 5.640625-5.503906 9.890625l16 56c.976562 3.4375 4.121094 5.808594 7.695312 5.804687.742188 0 1.484376-.101562 2.199219-.300781 4.25-1.210937 6.714844-5.640625 5.503907-9.890625zm0 0"/><path d="m475.707031 203.527344c-4.609375-17.066406-22.160156-27.1875-39.238281-22.625l-2.257812.609375 10.398437-19.710938c1.308594-2.484375 1.21875-5.472656-.234375-7.875-1.453125-2.398437-4.058594-3.863281-6.867188-3.855469h-7.054687l6.214844-12.421874c1.238281-2.480469 1.105469-5.425782-.351563-7.785157-1.460937-2.359375-4.035156-3.792969-6.808594-3.792969h-176c-2.78125-.011718-5.371093 1.414063-6.835937 3.777344-1.46875 2.359375-1.605469 5.3125-.363281 7.800782l6.253906 12.421874h-7.054688c-2.804687 0-5.402343 1.46875-6.851562 3.867188s-1.535156 5.382812-.230469 7.863281l56.984375 108.269531h-49.902344c-4.417968 0-8 3.582032-8 8 0 4.421876 3.582032 8 8 8h5.757813l-20.664063 82.65625c-4.183593 16.59375-3.40625 34.046876 2.242188 50.203126l.0625.167968c12.324219 35.324219 45.652344 58.984375 83.066406 58.972656h51.070313c27.097656 0 52.683593-12.484374 69.359375-33.84375 16.675781-21.359374 22.582031-49.210937 16.007812-75.5l-20.664062-82.65625h5.761718c4.417969 0 8-3.578124 8-8 0-4.417968-3.582031-8-8-8h-49.90625l6.007813-11.421874 59.539063-15.90625c17.046874-4.601563 27.144531-22.144532 22.558593-39.199219zm-209.253906-61.457032h150.109375l-4 8h-142.109375zm157.34375 292.3125c-13.605469 17.527344-34.566406 27.753907-56.753906 27.6875h-51.070313c-22.1875.066407-43.148437-10.160156-56.753906-27.6875-2.105469-2.734374-4.011719-5.617187-5.710938-8.621093l16.398438 1.476562c7.394531.664063 14.8125.996094 22.257812 1 13.808594-.003906 27.597657-1.136719 41.222657-3.390625l33.199219-5.597656c20.222656-3.398438 40.804687-4.101562 61.210937-2.089844l5.644531.574219c-2.460937 5.953125-5.707031 11.554687-9.644531 16.648437zm-8.539063-148.3125 21.601563 86.53125c2.394531 9.652344 2.761719 19.699219 1.078125 29.503907l-8.535156-.832031c-21.824219-2.152344-43.835938-1.402344-65.464844 2.230468l-33.175781 5.601563c-19.632813 3.253906-39.597657 4.007812-59.421875 2.238281l-24.753906-2.230469c-3.296876-11.914062-3.457032-24.476562-.46875-36.472656l21.636718-86.570313h36.082032l14.589843 27.730469c1.386719 2.628907 4.113281 4.273438 7.082031 4.269531h32c2.96875.003907 5.695313-1.640624 7.078126-4.269531l14.59375-27.730469zm-93.34375 0h39.203126l-8.410157 16h-22.398437zm-8.40625-16-54.753906-104h165.503906l-54.75 104zm145.199219-50.300781c-2.136719 3.679688-5.625 6.382813-9.71875 7.535157l-45.226562 12.078124 20.304687-38.558593 16.570313-4.464844c6.246093-1.699219 12.902343.535156 16.859375 5.664063 3.957031 5.125 4.4375 12.128906 1.210937 17.746093zm0 0"/><path d="m240.5 112.753906 5.101562 1.367188c4.261719 1.117187 8.625-1.417969 9.761719-5.671875 1.136719-4.253907-1.375-8.625-5.625-9.785157l-5.09375-1.367187c-13.957031-3.789063-28.714843 2.300781-35.9375 14.832031l-22.097656 33.429688c-3.003906 5.175781-8.628906 8.257812-14.605469 8l-12.410156-113.320313c-.359375-3.28125-2.699219-6.003906-5.886719-6.855469l-15.449219-4.109374 1.035157-3.855469c1.949219-6.9375.019531-14.382813-5.050781-19.5-5.074219-5.113281-12.503907-7.109375-19.453126-5.214844-6.953124 1.890625-12.347656 7.371094-14.128906 14.351563l-1.039062 3.867187-15.457032-4.144531-15.457031-4.175782c-25.605469-6.832031-51.90625 8.359376-58.785156 33.949219l-4.140625 15.449219c-1.148438 4.269531 1.386719 8.65625 5.652344 9.800781.679687.179688 1.375.269531 2.074218.269531 3.617188 0 6.78125-2.433593 7.71875-5.925781l4.136719-15.457031c4.589844-17.0625 22.128907-27.1875 39.199219-22.632812l4.730469 1.265624-65.289063 98.894532c-4.25 6.441406-5.144531 14.527344-2.40625 21.738281 2.742188 7.210937 8.777344 12.667969 16.230469 14.664063l125.96875 33.75c7.652344 2.050781 15.824219.195312 21.835937-4.964844 6.015626-5.15625 9.097657-12.949219 8.234376-20.828125l-.097657-.894531c10.949219-.371094 20.941407-6.324219 26.480469-15.777344l22.105469-33.4375c3.574219-6.414063 11.042969-9.589844 18.144531-7.710938zm-124.394531-93.59375c.285156-1.015625.953125-1.875 1.867187-2.398437.914063-.539063 2.007813-.683594 3.03125-.402344 1.027344.273437 1.902344.945313 2.433594 1.867187.53125.917969.671875 2.011719.398438 3.039063l-1.03125 3.863281-7.699219-2.097656zm39.113281 160.097656c-2 1.730469-4.726562 2.351563-7.28125 1.652344l-125.964844-33.742187c-2.488281-.664063-4.503906-2.484375-5.417968-4.890625-.914063-2.40625-.613282-5.105469.808593-7.253906l68.230469-103.351563 17.601562 4.71875 21.886719 5.867187 19.203125 5.140626 13.679688 124.898437c.320312 2.632813-.710938 5.253906-2.746094 6.960937zm0 0"/><path d="m347.1875 328.390625c-.394531-.359375-.824219-.683594-1.28125-.957031-.40625-.316406-.867188-.5625-1.359375-.722656-.480469-.242188-.996094-.402344-1.527344-.480469-.996093-.238281-2.035156-.238281-3.03125 0-.53125.074219-1.042969.238281-1.519531.480469-.511719.175781-1 .417968-1.449219.722656-.414062.296875-.8125.617187-1.191406.957031-.707031.78125-1.273437 1.671875-1.679687 2.640625-.855469 1.9375-.855469 4.144531 0 6.082031.40625.96875.972656 1.859375 1.679687 2.640625 3.152344 3.09375 8.203125 3.09375 11.359375 0 .703125-.78125 1.273438-1.671875 1.679688-2.640625.855468-1.9375.855468-4.144531 0-6.082031-.40625-.96875-.972657-1.859375-1.679688-2.640625zm0 0"/><path d="m335.828125 352.390625c-1.464844 1.53125-2.296875 3.5625-2.320313 5.679687 0 4.421876 3.582032 8 8 8 4.417969 0 8-3.578124 8-8 .019532-3.25-1.929687-6.1875-4.933593-7.433593-3-1.246094-6.457031-.550781-8.746094 1.753906zm0 0"/><path d="m335.828125 376.390625c-1.480469 1.523437-2.3125 3.558594-2.320313 5.679687-.023437 2.128907.8125 4.175782 2.320313 5.683594.777344.703125 1.671875 1.273438 2.640625 1.679688 2.976562 1.273437 6.429688.609375 8.71875-1.679688.703125-.78125 1.273438-1.671875 1.679688-2.640625.410156-.964843.628906-1.996093.640624-3.042969-.011718-2.121093-.84375-4.15625-2.320312-5.679687-3.207031-2.957031-8.152344-2.957031-11.359375 0zm0 0"/></g></svg>