<svg height="478pt" viewBox="-46 0 478 478.24192" width="478pt" xmlns="http://www.w3.org/2000/svg"><path d="m177.746094 377.496094-53.597656-21.597656c-18.191407-7.324219-33.0625-21.070313-41.785157-38.632813l-19.945312-40.160156c-31.238281 31.242187-31.238281 81.894531 0 113.136719l56.539062 56.582031c31.238281 31.242187 81.890625 31.242187 113.132813 0l-9.925782-24.800781c-8.105468-20.28125-24.152343-36.371094-44.417968-44.527344zm0 0" fill="#603913"/><path d="m62.386719 277.121094 19.945312 40.160156c8.714844 17.558594 23.578125 31.304688 41.757813 38.632812l53.601562 21.597657c20.28125 8.140625 36.351563 24.222656 44.472656 44.511719l9.925782 24.800781c31.242187-31.242188 31.242187-81.894531 0-113.136719l-56.566406-56.566406c-31.242188-31.242188-81.894532-31.242188-113.136719 0zm0 0" fill="#754c29"/><path d="m294.433594 167.175781-5.597656 24c-4.699219 20.25-18.941407 36.957031-38.191407 44.800781l-26.554687 10.847657c24.996094 24.996093 65.519531 24.996093 90.511718 0l45.257813-45.253907c24.996094-24.996093 24.996094-65.519531 0-90.511718l-27.601563 11.445312c-19.078124 7.914063-33.160156 24.550782-37.824218 44.671875zm0 0" fill="#8b5e3c"/><path d="m250.683594 235.984375c19.25-7.84375 33.492187-24.550781 38.191406-44.800781l5.601562-24c4.660157-20.121094 18.746094-36.753906 37.824219-44.671875l27.597657-11.445313c-24.992188-24.996094-65.515626-24.996094-90.511719 0l-45.296875 45.246094c-24.992188 24.996094-24.992188 65.519531 0 90.511719zm0 0" fill="#754c29"/><path d="m74.257812 93.226562 29.257813 17.511719c17.867187 10.679688 29.417969 29.386719 30.976563 50.144531l1.597656 21.941407c30.609375-17.671875 41.097656-56.8125 23.425781-87.421875l-32-55.425782c-17.671875-30.613281-56.8125-41.101562-87.425781-23.429687l3.496094 29.300781c2.335937 19.691406 13.664062 37.1875 30.671874 47.378906zm0 0" fill="#a97c50"/><path d="m48.667969 159.402344c17.671875 30.609375 56.8125 41.09375 87.421875 23.421875l-1.597656-21.941407c-1.539063-20.769531-13.085938-39.488281-30.953126-50.1875l-29.28125-17.46875c-17-10.179687-28.324218-27.660156-30.671874-47.335937l-3.496094-29.34375c-30.613282 17.671875-41.101563 56.820313-23.421875 87.429687zm0 0" fill="#754c29"/><g fill="#231f20"><path d="m181.179688 271.464844c-34.367188-34.363282-90.082032-34.363282-124.449219 0-.136719.128906-.246094.273437-.375.40625l-.054688.066406c-33.988281 34.414062-33.796875 89.820312.429688 124l56.570312 56.566406c34.363281 34.296875 89.996094 34.320313 124.390625.058594l.046875-.050781c34.3125-34.386719 34.3125-90.058594 0-124.445313zm-56.566407 169.703125-56.570312-56.566407c-25.019531-24.960937-28.160157-64.417968-7.40625-93.023437l14.527343 29.253906c9.585938 19.328125 25.941407 34.453125 45.960938 42.496094l53.597656 21.601563c18.226563 7.363281 32.667969 21.828124 40 40.0625l7.863282 19.65625c-28.535157 24.664062-71.261719 23.148437-97.972657-3.480469zm109.925781-9.773438-4.945312-12.363281c-8.960938-22.273438-26.597656-39.949219-48.855469-48.957031l-53.597656-21.601563c-16.375-6.582031-29.757813-18.957031-37.601563-34.769531l-17.253906-34.75c28.53125-24.425781 71.054688-22.765625 97.597656 3.808594l56.570313 56.566406c24.601563 24.695313 28.007813 63.457031 8.085937 92.066406zm0 0"/><path d="m365.515625 105.402344-.054687-.050782c-28.148438-27.996093-73.632813-27.96875-101.746094.066407l-45.253906 45.253906c-27.847657 27.921875-28.078126 73.042969-.523438 101.25l.066406.070313c.160156.160156.296875.34375.457032.503906 28.132812 28.074218 73.6875 28.074218 101.824218 0l45.253906-45.253906c28.078126-28.144532 28.066407-73.710938-.023437-101.839844zm-135.769531 56.574218 45.257812-45.261718c18.445313-18.414063 47.15625-21.667969 69.253906-7.851563l-15.0625 6.25c-21.449218 8.925781-37.289062 27.628907-42.558593 50.253907l-5.554688 24c-4.125 17.710937-16.582031 32.324218-33.414062 39.203124l-21.417969 8.734376c-18.417969-22.257813-16.902344-54.871094 3.496094-75.328126zm124.457031 33.9375-45.265625 45.253907c-18.425781 18.371093-47.070312 21.644531-69.167969 7.90625l13.9375-5.679688c21.644531-8.84375 37.660157-27.628906 42.960938-50.402343l5.597656-24c4.078125-17.585938 16.367187-32.136719 33.027344-39.09375l22.398437-9.289063c18.402344 22.253906 16.890625 54.84375-3.488281 75.304687zm0 0"/><path d="m104.210938 199.386719c12.429687-.007813 24.644531-3.253907 35.441406-9.417969l.152344-.070312c.09375-.058594.191406-.089844.285156-.144532 34.398437-19.914062 46.1875-63.910156 26.355468-98.351562l-32-55.425782c-19.894531-34.375-63.847656-46.183593-98.289062-26.398437h-.050781c-34.421875 19.914063-46.210938 63.945313-26.351563 98.398437l32 55.425782c12.886719 22.300781 36.703125 36.023437 62.457032 35.984375zm-32.214844-183.402344c20.039062-.03125 38.570312 10.644531 48.589844 28l32 55.425781c12.796874 22.25 8.839843 50.347656-9.597657 68.199219l-.542969-7.304687c-1.742187-23.359376-14.726562-44.417969-34.816406-56.464844l-29.257812-17.511719c-14.839844-8.945313-24.738282-24.222656-26.839844-41.421875l-2.824219-23.679688c7.292969-3.417968 15.238281-5.203124 23.289063-5.242187zm-38.214844 15.199219 1.863281 15.640625c2.707031 22.109375 15.433594 41.742187 34.503907 53.25l29.261718 17.511719c15.617188 9.367187 25.710938 25.730468 27.082032 43.886718l1.230468 16.65625c-26.300781 12.253906-57.601562 2.390625-72.128906-22.726562l-32-55.425782c-12.949219-22.515624-8.734375-50.980468 10.1875-68.777343zm0 0"/></g></svg>