<svg height="480pt" viewBox="-32 0 480 480.70856" width="480pt" xmlns="http://www.w3.org/2000/svg"><path d="m391.792969 42.269531c-122.863281-47.257812-259.210938-45.375-380.722657 5.253907l-2.695312 1.144531 14.808594 26 26.601562 46.679687c101.992188-33.152344 211.820313-33.429687 313.980469-.800781l44.609375-71.878906zm0 0" fill="#c2b59b"/><path d="m391.792969 130.269531c-9.265625-3.570312-18.625-6.753906-28-9.761719-102.164063-32.632812-211.992188-32.351562-313.984375.800782-13.035156 4.238281-25.976563 8.886718-38.714844 14.199218l-2.71875 1.160157 14.808594 26 176.617187 310 208.574219-336zm0 0" fill="#c49a6c"/><g fill="#231f20"><path d="m411.246094 129.195312-16.582032-6.398437c-6.214843-2.398437-12.480468-4.558594-18.753906-6.703125l39.265625-63.203125c1.253907-2.023437 1.542969-4.5.785157-6.757813-.757813-2.261718-2.484376-4.0625-4.707032-4.921874l-16.566406-6.398438c-124.734375-48.199219-263.277344-46.285156-386.632812 5.34375l-2.71875 1.113281c-2.128907.871094-3.777344 2.621094-4.527344 4.792969-.746094 2.175781-.523438 4.566406.613281 6.566406l36.5625 64.214844c-10.066406 3.496094-20.089844 7.199219-30 11.320312l-2.695313 1.121094c-2.128906.882813-3.769531 2.636719-4.511718 4.816406-.7382815 2.179688-.503906 4.574219.644531 6.566407l191.433594 336c1.394531 2.449219 3.972656 3.984375 6.792969 4.039062h.152343c2.765625 0 5.339844-1.429687 6.796875-3.78125l208.578125-336c1.257813-2.027343 1.546875-4.507812.785157-6.769531-.757813-2.261719-2.488282-4.066406-4.714844-4.917969zm-376.472656-50.292968c2.019531-.738282 4-1.523438 6.042968-2.234375 3.949219-1.597657 5.953125-6.011719 4.554688-10.039063-1.398438-4.023437-5.703125-6.25-9.796875-5.054687-2.933594 1.03125-5.847657 2.148437-8.800781 3.238281l-6.941407-12.199219c118.207031-47.785156 250.164063-48.816406 369.101563-2.878906l7.554687 2.917969-7.488281 12.054687c-3.535156-1.308593-7.074219-2.628906-10.632812-3.871093-4.175782-1.445313-8.734376.769531-10.179688 4.949218-1.445312 4.175782.769531 8.734375 4.949219 10.179688 2.398437.800781 4.796875 1.757812 7.199219 2.640625l-20.128907 32.464843c-99.957031-30.851562-206.921875-30.648437-306.757812.589844zm165.320312 378.125-165.320312-290.125c2.019531-.738282 4-1.523438 6.035156-2.234375 4.097656-1.511719 6.226562-6.03125 4.78125-10.152344-1.445313-4.125-5.933594-6.324219-10.078125-4.941406-2.9375 1.03125-5.847657 2.148437-8.800781 3.238281l-6.960938-12.214844c118.203125-47.792968 250.164062-48.808594 369.089844-2.839844l7.566406 2.902344-7.480469 12.054688c-3.535156-1.316406-7.070312-2.636719-10.628906-3.878906-4.179687-1.445313-8.738281.769531-10.179687 4.949218-1.445313 4.175782.769531 8.734375 4.945312 10.179688 2.402344.839844 4.800781 1.757812 7.242188 2.640625zm0 0"/><path d="m113.976562 128.722656c-5.335937.976563-10.648437 2.042969-15.9375 3.203125-4.003906.851563-6.71875 4.59375-6.285156 8.667969.429688 4.070312 3.871094 7.160156 7.964844 7.15625.570312 0 1.140625-.0625 1.695312-.183594 5.125-1.105468 10.273438-2.132812 15.441407-3.082031 4.277343-.863281 7.070312-4.992187 6.285156-9.28125-.785156-4.292969-4.859375-7.160156-9.164063-6.453125zm0 0"/><path d="m154.175781 122.941406c-5.386719.558594-10.765625 1.203125-16.136719 1.925782-4.199218.535156-7.257812 4.25-6.972656 8.472656.28125 4.226562 3.808594 7.5 8.046875 7.464844.363281 0 .726563-.023438 1.085938-.070313 5.210937-.710937 10.425781-1.339844 15.640625-1.890625 2.914062-.203125 5.488281-1.984375 6.707031-4.640625s.894531-5.765625-.847656-8.109375c-1.746094-2.347656-4.628907-3.554688-7.523438-3.152344zm0 0"/><path d="m74.34375 137.605469c-5.230469 1.390625-10.441406 2.867187-15.632812 4.421875-3.800782 1.140625-6.195313 4.894531-5.621094 8.820312.574218 3.929688 3.941406 6.84375 7.910156 6.84375.78125 0 1.554688-.113281 2.304688-.335937 5.035156-1.511719 10.085937-2.945313 15.160156-4.292969 2.820312-.683594 5.050781-2.839844 5.824218-5.636719.777344-2.796875-.019531-5.796875-2.085937-7.835937-2.066406-2.039063-5.074219-2.796875-7.859375-1.984375zm0 0"/><path d="m194.710938 120.316406c-5.417969.144532-10.832032.367188-16.238282.671875-4.417968.125-7.902344 3.804688-7.777344 8.222657.125 4.417968 3.804688 7.902343 8.222657 7.777343h.464843c5.238282-.296875 10.480469-.511719 15.730469-.640625 4.417969-.109375 7.910157-3.78125 7.796875-8.199218-.109375-4.417969-3.78125-7.910157-8.199218-7.800782zm0 0"/><path d="m315.792969 131.4375c-5.304688-1.132812-10.621094-2.171875-15.953125-3.121094-4.351563-.777344-8.507813 2.117188-9.285156 6.46875-.777344 4.347656 2.117187 8.503906 6.46875 9.285156 5.15625.914063 10.304687 1.921876 15.441406 3.023438.550781.109375 1.109375.164062 1.671875.167969 4.089843-.007813 7.515625-3.101563 7.941406-7.167969.425781-4.070312-2.285156-7.804688-6.285156-8.65625zm0 0"/><path d="m235.320312 120.859375c-5.410156-.28125-10.820312-.480469-16.234374-.597656-2.128907-.070313-4.195313.722656-5.734376 2.195312-1.539062 1.472657-2.417968 3.503907-2.441406 5.636719-.09375 4.414062 3.410156 8.070312 7.824219 8.167969 5.25.117187 10.496094.304687 15.738281.582031h.429688c4.417968.117188 8.09375-3.371094 8.210937-7.792969.113281-4.417969-3.375-8.089843-7.792969-8.207031zm0 0"/><path d="m355.160156 141.386719c-5.199218-1.535157-10.417968-2.984375-15.648437-4.351563-2.78125-.765625-5.757813.023438-7.792969 2.066406-2.035156 2.046876-2.816406 5.027344-2.039062 7.804688.777343 2.777344 2.992187 4.921875 5.792968 5.609375 5.070313 1.316406 10.136719 2.722656 15.199219 4.21875.730469.214844 1.492187.328125 2.253906.328125 3.976563-.007812 7.34375-2.929688 7.910157-6.863281.566406-3.933594-1.84375-7.683594-5.652344-8.8125zm0 0"/><path d="m275.757812 124.574219c-5.375-.710938-10.753906-1.332031-16.132812-1.867188-4.398438-.441406-8.320312 2.765625-8.761719 7.160157-.441406 4.398437 2.765625 8.320312 7.160157 8.761718 5.214843.53125 10.429687 1.136719 15.640624 1.808594.347657.042969.703126.066406 1.054688.0625 4.203125-.019531 7.675781-3.289062 7.945312-7.480469.273438-4.195312-2.746093-7.882812-6.914062-8.445312zm0 0"/><path d="m258.03125 50.628906c5.214844.53125 10.429688 1.136719 15.640625 1.808594.351563.042969.703125.066406 1.054687.0625 4.203126-.019531 7.675782-3.289062 7.945313-7.480469.273437-4.195312-2.746094-7.882812-6.914063-8.445312-5.375-.714844-10.753906-1.335938-16.132812-1.867188-4.398438-.441406-8.320312 2.765625-8.761719 7.160157-.441406 4.398437 2.765625 8.320312 7.160157 8.761718zm0 0"/><path d="m218.773438 48.261719c5.25.117187 10.496093.304687 15.738281.582031h.429687c4.421875.117188 8.09375-3.371094 8.210938-7.792969.113281-4.417969-3.375-8.089843-7.792969-8.207031-5.40625-.28125-10.820313-.480469-16.230469-.597656-4.417968-.097656-8.082031 3.402344-8.175781 7.824218-.097656 4.417969 3.402344 8.078126 7.820313 8.175782zm0 0"/><path d="m297.023438 56.070312c5.15625.914063 10.304687 1.921876 15.441406 3.023438.550781.109375 1.109375.164062 1.671875.167969 4.089843-.007813 7.515625-3.101563 7.941406-7.167969.425781-4.070312-2.285156-7.804688-6.285156-8.65625-5.304688-1.132812-10.621094-2.171875-15.953125-3.121094-4.351563-.777344-8.507813 2.117188-9.285156 6.46875-.777344 4.347656 2.117187 8.503906 6.46875 9.285156zm0 0"/><path d="m335.472656 64.515625c5.070313 1.324219 10.136719 2.730469 15.199219 4.21875.730469.214844 1.492187.328125 2.253906.328125 3.976563-.007812 7.34375-2.929688 7.910157-6.863281.566406-3.933594-1.84375-7.683594-5.652344-8.8125-5.199219-1.535157-10.417969-2.984375-15.648438-4.351563-2.78125-.765625-5.757812.023438-7.792968 2.066406-2.035157 2.046876-2.8125 5.027344-2.035157 7.804688.777344 2.777344 2.988281 4.921875 5.789063 5.609375zm0 0"/><path d="m194.710938 32.316406c-5.417969.144532-10.832032.367188-16.238282.671875-4.417968.125-7.902344 3.804688-7.777344 8.222657.125 4.417968 3.804688 7.902343 8.222657 7.777343h.464843c5.238282-.296875 10.480469-.511719 15.730469-.640625 4.417969-.109375 7.910157-3.78125 7.796875-8.199218-.109375-4.417969-3.78125-7.910157-8.199218-7.800782zm0 0"/><path d="m154.175781 34.941406c-5.386719.558594-10.765625 1.203125-16.136719 1.925782-4.199218.535156-7.257812 4.25-6.972656 8.472656.28125 4.226562 3.808594 7.5 8.046875 7.464844.363281 0 .726563-.023438 1.085938-.070313 5.210937-.710937 10.425781-1.339844 15.640625-1.890625 2.914062-.203125 5.488281-1.984375 6.707031-4.640625s.894531-5.765625-.847656-8.109375c-1.746094-2.347656-4.628907-3.554688-7.523438-3.152344zm0 0"/><path d="m113.976562 40.722656c-5.335937.976563-10.648437 2.042969-15.9375 3.203125-4.003906.851563-6.71875 4.59375-6.285156 8.667969.429688 4.070312 3.871094 7.160156 7.964844 7.15625.570312 0 1.140625-.0625 1.695312-.183594 5.125-1.105468 10.273438-2.132812 15.441407-3.082031 4.277343-.863281 7.070312-4.992187 6.285156-9.28125-.785156-4.292969-4.859375-7.160156-9.164063-6.453125zm0 0"/><path d="m74.34375 49.605469c-5.230469 1.390625-10.441406 2.867187-15.632812 4.421875-3.800782 1.140625-6.195313 4.894531-5.621094 8.820312.574218 3.929688 3.941406 6.84375 7.910156 6.84375.78125 0 1.554688-.113281 2.304688-.335937 5.035156-1.511719 10.085937-2.945313 15.160156-4.292969 2.820312-.683594 5.050781-2.839844 5.824218-5.636719.777344-2.796875-.019531-5.796875-2.085937-7.835937-2.066406-2.039063-5.074219-2.796875-7.859375-1.984375zm0 0"/></g></svg>