<svg height="480pt" viewBox="0 0 480 480" width="480pt" xmlns="http://www.w3.org/2000/svg"><path d="m136 8h-128v464h128zm-64 432c-13.253906 0-24-10.746094-24-24s10.746094-24 24-24 24 10.746094 24 24-10.746094 24-24 24zm32-160h-64v-240h64zm0 0" fill="#009698"/><path d="m304 8h-128v464h128zm-64 432c-13.253906 0-24-10.746094-24-24s10.746094-24 24-24 24 10.746094 24 24-10.746094 24-24 24zm32-160h-64v-240h64zm0 0" fill="#ab2300"/><path d="m344 472h128v-464h-128zm64-32c-13.253906 0-24-10.746094-24-24s10.746094-24 24-24 24 10.746094 24 24-10.746094 24-24 24zm-32-400h64v240h-64zm0 0" fill="#ffcd00"/><path d="m40 40h64v240h-64zm0 0" fill="#d8d7da"/><path d="m96 416c0 13.253906-10.746094 24-24 24s-24-10.746094-24-24 10.746094-24 24-24 24 10.746094 24 24zm0 0" fill="#d8d7da"/><path d="m208 40h64v240h-64zm0 0" fill="#d8d7da"/><path d="m264 416c0 13.253906-10.746094 24-24 24s-24-10.746094-24-24 10.746094-24 24-24 24 10.746094 24 24zm0 0" fill="#d8d7da"/><path d="m376 40h64v240h-64zm0 0" fill="#d8d7da"/><path d="m432 416c0 13.253906-10.746094 24-24 24s-24-10.746094-24-24 10.746094-24 24-24 24 10.746094 24 24zm0 0" fill="#d8d7da"/><g fill="#231f20"><path d="m136 0h-128c-4.417969 0-8 3.582031-8 8v464c0 4.417969 3.582031 8 8 8h128c4.417969 0 8-3.582031 8-8v-464c0-4.417969-3.582031-8-8-8zm-8 464h-112v-448h112zm0 0"/><path d="m304 0h-128c-4.417969 0-8 3.582031-8 8v464c0 4.417969 3.582031 8 8 8h128c4.417969 0 8-3.582031 8-8v-464c0-4.417969-3.582031-8-8-8zm-8 464h-112v-448h112zm0 0"/><path d="m472 0h-128c-4.417969 0-8 3.582031-8 8v464c0 4.417969 3.582031 8 8 8h128c4.417969 0 8-3.582031 8-8v-464c0-4.417969-3.582031-8-8-8zm-8 464h-112v-448h112zm0 0"/><path d="m40 288h64c4.417969 0 8-3.582031 8-8v-240c0-4.417969-3.582031-8-8-8h-64c-4.417969 0-8 3.582031-8 8v240c0 4.417969 3.582031 8 8 8zm8-240h48v224h-48zm0 0"/><path d="m96 304h-48c-4.417969 0-8 3.582031-8 8s3.582031 8 8 8h48c4.417969 0 8-3.582031 8-8s-3.582031-8-8-8zm0 0"/><path d="m96 328h-48c-4.417969 0-8 3.582031-8 8s3.582031 8 8 8h48c4.417969 0 8-3.582031 8-8s-3.582031-8-8-8zm0 0"/><path d="m96 352h-48c-4.417969 0-8 3.582031-8 8s3.582031 8 8 8h48c4.417969 0 8-3.582031 8-8s-3.582031-8-8-8zm0 0"/><path d="m72 384c-17.671875 0-32 14.328125-32 32s14.328125 32 32 32 32-14.328125 32-32-14.328125-32-32-32zm0 48c-8.835938 0-16-7.164062-16-16s7.164062-16 16-16 16 7.164062 16 16-7.164062 16-16 16zm0 0"/><path d="m208 288h64c4.417969 0 8-3.582031 8-8v-240c0-4.417969-3.582031-8-8-8h-64c-4.417969 0-8 3.582031-8 8v240c0 4.417969 3.582031 8 8 8zm8-240h48v224h-48zm0 0"/><path d="m264 304h-48c-4.417969 0-8 3.582031-8 8s3.582031 8 8 8h48c4.417969 0 8-3.582031 8-8s-3.582031-8-8-8zm0 0"/><path d="m264 328h-48c-4.417969 0-8 3.582031-8 8s3.582031 8 8 8h48c4.417969 0 8-3.582031 8-8s-3.582031-8-8-8zm0 0"/><path d="m264 352h-48c-4.417969 0-8 3.582031-8 8s3.582031 8 8 8h48c4.417969 0 8-3.582031 8-8s-3.582031-8-8-8zm0 0"/><path d="m240 384c-17.671875 0-32 14.328125-32 32s14.328125 32 32 32 32-14.328125 32-32-14.328125-32-32-32zm0 48c-8.835938 0-16-7.164062-16-16s7.164062-16 16-16 16 7.164062 16 16-7.164062 16-16 16zm0 0"/><path d="m376 288h64c4.417969 0 8-3.582031 8-8v-240c0-4.417969-3.582031-8-8-8h-64c-4.417969 0-8 3.582031-8 8v240c0 4.417969 3.582031 8 8 8zm8-240h48v224h-48zm0 0"/><path d="m432 304h-48c-4.417969 0-8 3.582031-8 8s3.582031 8 8 8h48c4.417969 0 8-3.582031 8-8s-3.582031-8-8-8zm0 0"/><path d="m432 328h-48c-4.417969 0-8 3.582031-8 8s3.582031 8 8 8h48c4.417969 0 8-3.582031 8-8s-3.582031-8-8-8zm0 0"/><path d="m432 352h-48c-4.417969 0-8 3.582031-8 8s3.582031 8 8 8h48c4.417969 0 8-3.582031 8-8s-3.582031-8-8-8zm0 0"/><path d="m408 384c-17.671875 0-32 14.328125-32 32s14.328125 32 32 32 32-14.328125 32-32-14.328125-32-32-32zm0 48c-8.835938 0-16-7.164062-16-16s7.164062-16 16-16 16 7.164062 16 16-7.164062 16-16 16zm0 0"/></g></svg>