<svg height="480pt" viewBox="-72 0 480 480.09942" width="480pt" xmlns="http://www.w3.org/2000/svg"><path d="m27.335938 153.699219c8.339843 14.542969 12.726562 31.011719 12.722656 47.777343v126.621094h104v-208h-136zm0 0" fill="#e0e0e2"/><path d="m40.058594 360.097656v80c0 17.675782 14.324218 32 32 32h144c17.671875 0 32-14.324218 32-32v-80zm176 64c0 8.839844-7.164063 16-16 16 8.835937 0 16-7.160156 16-16zm0 0" fill="#754c29"/><path d="m248.058594 328.097656v-208h-104v208zm0 0" fill="#e0e0e2"/><path d="m192.058594 80.097656c0-8.835937-7.164063-16-16-16h-64c-8.835938 0-16 7.164063-16 16v16h96zm0 0" fill="#57565c"/><path d="m160.058594 24.097656c0 8.839844-7.164063 16-16 16-8.835938 0-16-7.160156-16-16 0-8.835937 7.164062-16 16-16 8.835937 0 16 7.164063 16 16zm0 0" fill="#898890"/><path d="m248.058594 328.097656h-208v32h208zm0 0" fill="#57565c"/><path d="m280.058594 200.097656c8.835937 0 16 7.164063 16 16v128c0 8.839844-7.164063 16-16 16h-32v32h32c26.507812 0 48-21.488281 48-48v-128c0-26.507812-21.492188-48-48-48h-32v32zm0 0" fill="#898890"/><g fill="#231f20"><path d="m280.058594 160.097656h-24v-40c0-4.417968-3.582032-8-8-8h-96v-8h40c4.417968 0 8-3.578125 8-8v-16c0-13.253906-10.746094-24-24-24h-24v-9.46875c11.019531-3.898437 17.628906-15.167968 15.652344-26.6875-1.976563-11.519531-11.964844-19.941406-23.652344-19.941406-11.691406 0-21.679688 8.421875-23.65625 19.941406-1.976563 11.519532 4.636718 22.789063 15.65625 26.6875v9.46875h-24c-13.257813 0-24 10.746094-24 24v16c0 4.421875 3.582031 8 8 8h40v8h-128c-2.859375 0-5.503906 1.523438-6.933594 4-1.433594 2.472656-1.433594 5.523438-.003906 8l19.28125 33.601563c7.628906 13.324219 11.648437 28.414062 11.65625 43.769531v238.628906c.023437 22.082032 17.917968 39.976563 40 40h144c22.078125-.023437 39.972656-17.917968 40-40v-40h24c30.914062-.035156 55.964844-25.085937 56-56v-128c-.035156-30.910156-25.085938-55.964844-56-56zm-136-144c4.417968 0 8 3.582032 8 8 0 4.421875-3.582032 8-8 8-4.417969 0-8-3.578125-8-8 0-4.417968 3.582031-8 8-8zm-40 64c0-4.417968 3.582031-8 8-8h64c4.417968 0 8 3.582032 8 8v8h-80zm136 256v16h-192v-16zm16-128h24c4.417968 0 8 3.582032 8 8v128c0 4.421875-3.582032 8-8 8h-24zm-16-80v192h-88v-192zm-205.785156 21.601563-12.398438-21.601563h114.183594v192h-88v-118.628906c-.003906-18.164062-4.757813-36.011719-13.785156-51.769531zm205.785156 290.398437c0 13.257813-10.746094 24-24 24h-144c-13.257813 0-24-10.742187-24-24v-72h192zm80-96c-.027344 22.082032-17.921875 39.976563-40 40h-24v-16h24c13.253906 0 24-10.742187 24-24v-128c0-13.253906-10.746094-24-24-24h-24v-16h24c22.078125.027344 39.972656 17.921875 40 40zm0 0"/><path d="m216.058594 400.097656c-4.417969 0-8 3.582032-8 8v16c0 4.421875-3.582032 8-8 8h-16c-4.417969 0-8 3.582032-8 8 0 4.421875 3.582031 8 8 8h16c13.253906 0 24-10.742187 24-24v-16c0-4.417968-3.582032-8-8-8zm0 0"/></g></svg>