<svg height="480pt" viewBox="-72 0 480 480" width="480pt" xmlns="http://www.w3.org/2000/svg"><path d="m8 440v32h240v-32zm0 0" fill="#57565c"/><path d="m248 144v-32h-240v32zm0 0" fill="#57565c"/><path d="m232 440v-296h-208v296zm-32-32" fill="#00b6bd"/><path d="m192 96c0-8.835938-7.164062-16-16-16h-96c-8.835938 0-16 7.164062-16 16v16h128zm0 0" fill="#898890"/><path d="m144 56v-32c0-8.835938-7.164062-16-16-16s-16 7.164062-16 16v56h32zm0 0" fill="#57565c"/><path d="m144 32h152v24h-152zm0 0" fill="#e0e0e2"/><path d="m296 72h32v-64h-32zm0 0" fill="#8b5e3c"/><g fill="#231f20"><path d="m328 0h-32c-4.417969 0-8 3.582031-8 8v16h-136c0-13.253906-10.746094-24-24-24s-24 10.746094-24 24v48h-24c-13.253906 0-24 10.746094-24 24v8h-48c-4.417969 0-8 3.582031-8 8v32c0 4.417969 3.582031 8 8 8h8v280h-8c-4.417969 0-8 3.582031-8 8v32c0 4.417969 3.582031 8 8 8h240c4.417969 0 8-3.582031 8-8v-32c0-4.417969-3.582031-8-8-8h-8v-280h8c4.417969 0 8-3.582031 8-8v-32c0-4.417969-3.582031-8-8-8h-48v-8c0-13.253906-10.746094-24-24-24h-24v-8h136v8c0 4.417969 3.582031 8 8 8h32c4.417969 0 8-3.582031 8-8v-64c0-4.417969-3.582031-8-8-8zm-88 464h-224v-16h224zm-16-32h-192v-280h192zm16-296h-224v-16h224zm-56-40v8h-112v-8c0-4.417969 3.582031-8 8-8h96c4.417969 0 8 3.582031 8 8zm-64-24v-48c0-4.417969 3.582031-8 8-8s8 3.582031 8 8v48zm32-24v-8h136v8zm168 16h-16v-48h16zm0 0"/><path d="m168 416h32c4.417969 0 8-3.582031 8-8v-32c0-4.417969-3.582031-8-8-8s-8 3.582031-8 8v24h-24c-4.417969 0-8 3.582031-8 8s3.582031 8 8 8zm0 0"/></g></svg>