<svg height="480pt" viewBox="-36 0 480 480" width="480pt" xmlns="http://www.w3.org/2000/svg"><path d="m24 440c-8.835938 0-16 7.164062-16 16s7.164062 16 16 16h288c8.835938 0 16-7.164062 16-16s-7.164062-16-16-16zm0 0" fill="#c49a6c"/><path d="m24 208c-8.835938 0-16 7.164062-16 16s7.164062 16 16 16h288c8.835938 0 16-7.164062 16-16s-7.164062-16-16-16zm0 0" fill="#c49a6c"/><path d="m248 288c0 8.835938-7.164062 16-16 16h-128c-8.835938 0-16-7.164062-16-16v-48h-56v200h272v-200h-56zm24 120h-208v-64h208zm0 0" fill="#8b5e3c"/><path d="m32 208h272c0-61.855469-50.144531-112-112-112h-48c-61.855469 0-112 50.144531-112 112zm38.679688-32c12.746093-29.132812 41.519531-47.96875 73.320312-48-31.800781.03125-60.574219 18.867188-73.320312 48zm0 0" fill="#c2b59b"/><path d="m336 8 8 32h32l8-32zm0 0" fill="#603913"/><path d="m336 72h48l-8-32h-32zm0 0" fill="#603913"/><path d="m104 304h128c8.835938 0 16-7.164062 16-16v-48h-160v48c0 8.835938 7.164062 16 16 16zm0 0" fill="#ffaf46"/><path d="m64 408h208v-64h-208zm104-40c4.417969 0 8 3.582031 8 8s-3.582031 8-8 8-8-3.582031-8-8 3.582031-8 8-8zm0 0" fill="#ffaf46"/><path d="m176 376c0 4.417969-3.582031 8-8 8s-8-3.582031-8-8 3.582031-8 8-8 8 3.582031 8 8zm0 0" fill="#898890"/><path d="m184 32c0 8.835938-7.164062 16-16 16s-16-7.164062-16-16 7.164062-16 16-16 16 7.164062 16 16zm0 0" fill="#898890"/><g fill="#231f20"><path d="m144 120c-34.980469.023438-66.632812 20.746094-80.648438 52.800781-1.25 2.636719-.964843 5.742188.742188 8.105469 1.707031 2.367188 4.566406 3.613281 7.460938 3.257812 2.898437-.355468 5.367187-2.257812 6.453124-4.964843 11.46875-26.226563 37.367188-43.179688 65.992188-43.199219 4.417969 0 8-3.582031 8-8s-3.582031-8-8-8zm0 0"/><path d="m400 32h-13.753906l5.515625-22.054688c.597656-2.390624.0625-4.925781-1.453125-6.867187-1.519532-1.941406-3.84375-3.078125-6.308594-3.078125h-48c-2.464844 0-4.789062 1.136719-6.308594 3.078125-1.515625 1.941406-2.050781 4.476563-1.453125 6.867187l5.515625 22.054688h-85.753906c-1.578125.003906-3.125.46875-4.441406 1.34375l-45.957032 30.65625h-21.601562v-9.472656c11.019531-3.894532 17.632812-15.164063 15.65625-26.683594-1.976562-11.523438-11.96875-19.941406-23.65625-19.941406s-21.679688 8.417968-23.65625 19.941406c-1.976562 11.519531 4.636719 22.789062 15.65625 26.683594v9.472656h-24c-4.417969 0-8 3.582031-8 8s3.582031 8 8 8h24v8h-16c-63.105469.101562-115.359375 49.039062-119.59375 112h-.40625c-13.253906 0-24 10.746094-24 24s10.746094 24 24 24v184c-13.253906 0-24 10.746094-24 24s10.746094 24 24 24h288c13.253906 0 24-10.746094 24-24s-10.746094-24-24-24v-184c13.253906 0 24-10.746094 24-24s-10.746094-24-24-24h-.40625c-4.234375-62.960938-56.488281-111.898438-119.59375-112h-16v-8h24c1.578125-.003906 3.125-.46875 4.441406-1.34375l45.957032-30.65625h83.355468l-5.515625 22.054688c-.597656 2.390624-.0625 4.925781 1.453125 6.867187 1.519532 1.941406 3.84375 3.078125 6.308594 3.078125h48c2.464844 0 4.789062-1.136719 6.308594-3.078125 1.515625-1.941406 2.050781-4.476563 1.453125-6.867187l-5.515625-22.054688h13.753906c4.417969 0 8-3.582031 8-8s-3.582031-8-8-8zm-232-8c4.417969 0 8 3.582031 8 8s-3.582031 8-8 8-8-3.582031-8-8 3.582031-8 8-8zm152 432c0 4.417969-3.582031 8-8 8h-288c-4.417969 0-8-3.582031-8-8s3.582031-8 8-8h288c4.417969 0 8 3.582031 8 8zm-24-24h-256v-184h40v40c0 13.253906 10.746094 24 24 24h128c13.253906 0 24-10.746094 24-24v-40h40zm-200-184h144v40c0 4.417969-3.582031 8-8 8h-128c-4.417969 0-8-3.582031-8-8zm224-24c0 4.417969-3.582031 8-8 8h-288c-4.417969 0-8-3.582031-8-8s3.582031-8 8-8h288c4.417969 0 8 3.582031 8 8zm-24.304688-24h-255.390624c4.242187-54.144531 49.386718-95.9375 103.695312-96h48c54.308594.0625 99.453125 41.855469 103.695312 96zm50.550782-184h27.507812l-4 16h-19.507812zm27.507812 48h-27.507812l4-16h19.507812zm0 0"/><path d="m64 336c-4.417969 0-8 3.582031-8 8v64c0 4.417969 3.582031 8 8 8h208c4.417969 0 8-3.582031 8-8v-64c0-4.417969-3.582031-8-8-8zm200 64h-192v-48h192zm0 0"/><path d="m184 376c0 8.835938-7.164062 16-16 16s-16-7.164062-16-16 7.164062-16 16-16 16 7.164062 16 16zm0 0"/></g></svg>