<svg height="480pt" viewBox="-36 0 480 480" width="480pt" xmlns="http://www.w3.org/2000/svg"><path d="m388.425781 31.152344c2.476563-4.960938 2.210938-10.847656-.703125-15.566406-2.917968-4.714844-8.066406-7.585938-13.609375-7.585938h-12.226562c-5.542969 0-10.691407 2.871094-13.609375 7.585938-2.914063 4.71875-3.179688 10.605468-.703125 15.566406l4.425781 8.847656v24h32v-24zm0 0" fill="#603913"/><path d="m8 440v32h320v-32zm0 0" fill="#c49a6c"/><path d="m8 224v32h320v-32zm0 0" fill="#c49a6c"/><path d="m32 440h272v-184h-272zm32-128h208v96h-208zm0 0" fill="#8b5e3c"/><path d="m144 224h48c61.855469 0 112-50.144531 112-112h-272c0 61.855469 50.144531 112 112 112zm121.320312-80c-12.746093 29.132812-41.519531 47.96875-73.320312 48 31.800781-.03125 60.574219-18.867188 73.320312-48zm0 0" fill="#c2b59b"/><path d="m272 312h-208v96h208zm-104 40c-4.417969 0-8-3.582031-8-8s3.582031-8 8-8 8 3.582031 8 8-3.582031 8-8 8zm0 0" fill="#ffaf46"/><path d="m176 344c0 4.417969-3.582031 8-8 8s-8-3.582031-8-8 3.582031-8 8-8 8 3.582031 8 8zm0 0" fill="#898890"/><path d="m184 48c0-8.835938-7.164062-16-16-16s-16 7.164062-16 16v16h32zm0 0" fill="#898890"/><g fill="#231f20"><path d="m192 200c34.980469-.023438 66.632812-20.746094 80.648438-52.800781 1.605468-4.011719-.265626-8.574219-4.226563-10.304688s-8.578125 0-10.429687 3.90625c-11.46875 26.226563-37.367188 43.179688-65.992188 43.199219-4.417969 0-8 3.582031-8 8s3.582031 8 8 8zm0 0"/><path d="m400 56h-8v-14.113281l3.574219-7.152344c3.722656-7.4375 3.328125-16.273437-1.046875-23.351563-4.371094-7.074218-12.097656-11.382812-20.414063-11.382812h-12.226562c-8.316407 0-16.042969 4.308594-20.414063 11.382812-4.375 7.078126-4.769531 15.914063-1.046875 23.351563l3.574219 7.152344v14.113281h-96c-1.242188 0-2.464844.285156-3.574219.839844l-46.3125 23.160156h-22.113281v-8h8c4.417969 0 8-3.582031 8-8v-16c0-13.253906-10.746094-24-24-24s-24 10.746094-24 24v16c0 4.417969 3.582031 8 8 8h8v8h-24c-4.417969 0-8 3.582031-8 8s3.582031 8 8 8h24v8h-128c-4.417969 0-8 3.582031-8 8 .054688 42.980469 23.089844 82.648438 60.390625 104h-76.390625c-4.417969 0-8 3.582031-8 8v32c0 4.417969 3.582031 8 8 8h16v168h-16c-4.417969 0-8 3.582031-8 8v32c0 4.417969 3.582031 8 8 8h320c4.417969 0 8-3.582031 8-8v-32c0-4.417969-3.582031-8-8-8h-16v-168h16c4.417969 0 8-3.582031 8-8v-32c0-4.417969-3.582031-8-8-8h-76.390625c37.300781-21.351562 60.335937-61.019531 60.390625-104 0-4.417969-3.582031-8-8-8h-128v-8h24c1.242188 0 2.464844-.285156 3.574219-.839844l46.3125-23.160156h110.113281v8c0 4.417969 3.582031 8 8 8s8-3.582031 8-8v-8h24c4.417969 0 8-3.582031 8-8s-3.582031-8-8-8zm-240-8c0-4.417969 3.582031-8 8-8s8 3.582031 8 8v8h-16zm160 416h-304v-16h304zm-24-32h-256v-168h256zm24-200v16h-304v-16zm-128-16h-48c-54.308594-.0625-99.453125-41.855469-103.695312-96h255.390624c-4.242187 54.144531-49.386718 95.9375-103.695312 96zm168-160v-16c.011719-1.238281-.261719-2.460938-.800781-3.574219l-4.421875-8.851562c-1.238282-2.472657-1.109375-5.40625.339844-7.761719 1.445312-2.355469 4.007812-3.796875 6.769531-3.8125h12.226562c2.769531 0 5.34375 1.4375 6.800781 3.796875 1.457032 2.355469 1.589844 5.300781.351563 7.777344l-4.425781 8.851562c-.554688 1.109375-.839844 2.332031-.839844 3.574219v16zm0 0"/><path d="m64 416h208c4.417969 0 8-3.582031 8-8v-96c0-4.417969-3.582031-8-8-8h-208c-4.417969 0-8 3.582031-8 8v96c0 4.417969 3.582031 8 8 8zm8-96h192v80h-192zm0 0"/><path d="m184 344c0 8.835938-7.164062 16-16 16s-16-7.164062-16-16 7.164062-16 16-16 16 7.164062 16 16zm0 0"/></g></svg>