<svg height="480pt" viewBox="-77 0 480 480" width="480pt" xmlns="http://www.w3.org/2000/svg"><path d="m205.265625 208c0-8.835938-7.164063-16-16-16h-144c-8.835937 0-16 7.164062-16 16s7.164063 16 16 16h144c8.835937 0 16-7.164062 16-16zm0 0" fill="#594a42"/><path d="m205.265625 240c0-8.835938-7.164063-16-16-16h-144c-8.835937 0-16 7.164062-16 16s7.164063 16 16 16h144c8.835937 0 16-7.164062 16-16zm0 0" fill="#594a42"/><path d="m71.976562 472h90.578126c19.804687 0 38.496093-9.167969 50.617187-24.832031 12.117187-15.667969 16.304687-36.058594 11.332031-55.230469l-35.238281-135.9375h-144l-35.199219 135.9375c-4.972656 19.164062-.789062 39.550781 11.320313 55.210938 12.113281 15.664062 30.792969 24.839843 50.589843 24.851562zm115.886719-44.414062c6.082031-7.8125 8.175781-18.011719 5.664063-27.585938 2.476562 9.582031.378906 19.769531-5.683594 27.59375-6.058594 7.824219-15.394531 12.402344-25.289062 12.40625 9.910156.03125 19.269531-4.558594 25.308593-12.414062zm0 0" fill="#8b5e3c"/><path d="m189.265625 181.886719c-.011719-9.34375 1.613281-18.621094 4.800781-27.40625l27.199219-74.480469h-208l27.199219 74.480469c3.1875 8.785156 4.8125 18.0625 4.800781 27.40625v10.113281h144zm0 0" fill="#9b8579"/><path d="m309.265625 8h-48l8 24h32zm0 0" fill="#754c29"/><g fill="#231f20"><path d="m181.535156 422.679688c-4.523437 5.902343-11.546875 9.347656-18.980468 9.320312-4.421876 0-8 3.582031-8 8s3.578124 8 8 8c12.378906 0 24.058593-5.730469 31.632812-15.519531 7.578125-9.792969 10.191406-22.539063 7.085938-34.519531-.664063-2.824219-2.804688-5.066407-5.589844-5.863282-2.789063-.796875-5.789063-.019531-7.84375 2.027344-2.054688 2.046875-2.839844 5.042969-2.054688 7.835938 1.898438 7.191406.324219 14.855468-4.25 20.71875zm0 0"/><path d="m317.265625 24h-4.90625l4.488281-13.472656c.8125-2.4375.40625-5.117188-1.097656-7.203125-1.503906-2.085938-3.914062-3.324219-6.484375-3.324219h-48c-2.570313 0-4.984375 1.238281-6.484375 3.324219-1.503906 2.085937-1.914062 4.765625-1.101562 7.203125l4.488281 13.472656h-60.902344c-1.402344-.007812-2.785156.355469-4 1.054688l-54.128906 30.945312h-45.871094c-4.417969 0-8 3.582031-8 8s3.582031 8 8 8h-80c-2.613281 0-5.058594 1.277344-6.554687 3.414062-1.496094 2.140626-1.855469 4.878907-.957032 7.328126l27.152344 74.480468c2.882812 7.90625 4.359375 16.253906 4.359375 24.664063v3.585937c-7.566406 2.617188-13.308594 8.867188-15.273437 16.628906-1.96875 7.761719.105468 15.992188 5.511718 21.898438-5.175781 5.664062-7.300781 13.476562-5.714844 20.984375 1.585938 7.507813 6.691407 13.792969 13.714844 16.878906l-33.199218 128.066407c-5.589844 21.5625-.886719 44.5 12.746093 62.121093 13.628907 17.621094 34.648438 27.941407 56.925781 27.949219h90.578126c22.28125 0 43.308593-10.316406 56.941406-27.9375 13.636718-17.625 18.34375-40.566406 12.753906-62.132812l-33.199219-128.066407c7.023438-3.085937 12.128907-9.371093 13.714844-16.878906s-.542969-15.320313-5.714844-20.984375c5.40625-5.90625 7.476563-14.140625 5.503907-21.90625-1.972657-7.761719-7.71875-14.007812-15.289063-16.621094v-3.585937c0-8.410157 1.472656-16.757813 4.359375-24.664063l27.152344-74.480468c.894531-2.449219.539062-5.1875-.957032-7.328126-1.496093-2.136718-3.945312-3.414062-6.554687-3.414062h-80c1.402344.007812 2.78125-.355469 4-1.054688l54.128906-30.945312h117.871094c4.417969 0 8-3.582031 8-8s-3.582031-8-8-8zm-272 176h144c4.417969 0 8 3.582031 8 8s-3.582031 8-8 8h-144c-4.417969 0-8-3.582031-8-8s3.582031-8 8-8zm152 40c0 4.417969-3.582031 8-8 8h-144c-4.417969 0-8-3.582031-8-8s3.582031-8 8-8h144c4.417969 0 8 3.582031 8 8zm9.597656 202.273438c-10.570312 13.757812-26.960937 21.792968-44.308593 21.726562h-90.578126c-17.332031.003906-33.6875-8.019531-44.296874-21.726562-10.605469-13.707032-14.269532-31.550782-9.917969-48.328126l33.6875-129.945312h131.632812l33.679688 129.945312c4.417969 16.769532.757812 34.640626-9.898438 48.328126zm2.96875-354.273438-23.238281 63.734375c-3.53125 9.664063-5.332031 19.867187-5.328125 30.152344v2.113281h-128v-2.113281c.003906-10.285157-1.800781-20.488281-5.328125-30.152344l-23.242188-63.734375zm65.199219-64-2.664062-8h25.792968l-2.664062 8zm0 0"/></g></svg>