<svg height="480pt" viewBox="-16 0 480 480.00075" width="480pt" xmlns="http://www.w3.org/2000/svg"><path d="m40 200v128c0 79.53125 64.472656 144 144 144h16c79.53125 0 144-64.46875 144-144v-128zm32 128c.066406 61.828125 50.171875 111.933594 112 112-61.828125-.066406-111.933594-50.171875-112-112zm0 0" fill="#00b6bd"/><path d="m392 40c8.808594-.066406 15.933594-7.191406 16-16-.027344-8.824219-7.175781-15.972656-16-16h-288c-8.808594.066406-15.933594 7.191406-16 16 .027344 8.828125 7.175781 15.972656 16 16h16v24h-88c-13.253906 0-24 10.746094-24 24s10.746094 24 24 24h160v24h-40c-8.808594.066406-15.933594 7.191406-16 16 .027344 8.828125 7.175781 15.972656 16 16h112c8.808594-.066406 15.933594-7.191406 16-16-.027344-8.824219-7.175781-15.972656-16-16h-40v-24h64c13.253906 0 24-10.746094 24-24s-10.746094-24-24-24h-104v-24zm0 0" fill="#ffb655"/><path d="m344 232h24c39.765625 0 72 32.234375 72 72v13.871094c.007812 19.464844-7.863281 38.105468-21.824219 51.667968-13.957031 13.566407-32.816406 20.898438-52.269531 20.332032l-35.355469-1.070313 5.449219-28.800781h24c26.511719 0 48-21.488281 48-48 0-26.507812-21.488281-48-48-48h-16zm0 0" fill="#009698"/><g fill="#231f20"><path d="m184 432c-57.410156-.066406-103.933594-46.589844-104-104 0-4.417969-3.582031-8-8-8s-8 3.582031-8 8c.074219 66.242188 53.757812 119.925781 120 120 4.417969 0 8-3.582031 8-8s-3.582031-8-8-8zm0 0"/><path d="m184 120v8h-32c-13.230469.058594-23.941406 10.769531-24 24 0 13.253906 10.746094 24 24 24h112c13.230469-.054688 23.945312-10.769531 24-24 0-13.253906-10.746094-24-24-24h-32v-8h56c17.671875 0 32-14.324219 32-32 0-17.671875-14.328125-32-32-32h-96v-8h200c6.335938.050781 12.421875-2.46875 16.863281-6.984375 4.59375-4.464844 7.171875-10.609375 7.136719-17.015625 0-13.253906-10.746094-24-24-24h-288c-6.335938-.0507812-12.417969 2.46875-16.863281 6.984375-4.59375 4.464844-7.171875 10.609375-7.136719 17.015625 0 13.253906 10.746094 24 24 24h8v8h-80c-17.671875 0-32 14.328125-32 32 0 17.675781 14.328125 32 32 32zm-168-32c0-8.835938 7.164062-16 16-16h88c4.417969 0 8-3.582031 8-8v-24c0-4.417969-3.582031-8-8-8h-16c-4.417969 0-8-3.582031-8-8-.007812-2.15625.878906-4.222656 2.449219-5.703125 1.464843-1.484375 3.464843-2.3125 5.550781-2.296875h288c4.417969 0 8 3.582031 8 8 .007812 2.160156-.878906 4.222656-2.449219 5.703125-1.464843 1.484375-3.464843 2.3125-5.550781 2.296875h-208c-4.417969 0-8 3.582031-8 8v24c0 4.417969 3.582031 8 8 8h104c8.835938 0 16 7.164062 16 16s-7.164062 16-16 16h-64c-4.417969 0-8 3.582031-8 8v24c0 4.417969 3.582031 8 8 8h40c4.417969 0 8 3.582031 8 8 .007812 2.160156-.878906 4.222656-2.449219 5.703125-1.464843 1.484375-3.464843 2.3125-5.550781 2.296875h-112c-4.417969 0-8-3.582031-8-8-.007812-2.15625.878906-4.222656 2.449219-5.703125 1.464843-1.484375 3.464843-2.3125 5.550781-2.296875h40c4.417969 0 8-3.582031 8-8v-24c0-4.417969-3.582031-8-8-8h-160c-8.835938 0-16-7.164062-16-16zm0 0"/><path d="m360 224h-8v-24c0-4.417969-3.582031-8-8-8h-304c-4.417969 0-8 3.582031-8 8v128c.09375 83.910156 68.089844 151.90625 152 152h16c55.917969-.042969 107.304688-30.765625 133.816406-80h26.183594c48.601562 0 88-39.398438 88-88s-39.398438-88-88-88zm-8 48h8c22.089844 0 40 17.910156 40 40 0 22.09375-17.910156 40-40 40h-10.085938c1.332032-7.929688 2.03125-15.957031 2.085938-24zm-152 192h-16c-75.074219-.082031-135.914062-60.921875-136-136v-120h288v120c-.082031 75.078125-60.921875 135.917969-136 136zm210.90625-101.09375c-13.472656 13.542969-31.800781 21.140625-50.90625 21.09375h-18.824219c2.070313-5.226562 3.839844-10.570312 5.304688-16h13.519531c30.929688 0 56-25.070312 56-56 0-30.925781-25.070312-56-56-56h-8v-16h8c29.117188.007812 55.363281 17.550781 66.503906 44.449219 11.144532 26.902343 4.984375 57.863281-15.597656 78.457031zm0 0"/></g></svg>