<svg height="480pt" viewBox="-4 0 480 480.00498" width="480pt" xmlns="http://www.w3.org/2000/svg"><path d="m216 224.003906c0 13.253906-10.746094 24-24 24s-24-10.746094-24-24v-24h-32v64c0 8.835938-7.164062 16-16 16s-16-7.164062-16-16v-64h-40v96c0 79.53125 64.472656 144 144 144h16c79.53125 0 144-64.46875 144-144v-96h-152zm120 72c-.066406 61.828125-50.171875 111.933594-112 112 61.828125-.066406 111.933594-50.171875 112-112zm0 0" fill="#00b6bd"/><path d="m64 168.003906v32h40v64c0 8.835938 7.164062 16 16 16s16-7.164062 16-16v-64h32v24c0 13.253906 10.746094 24 24 24s24-10.746094 24-24v-24h152v-32zm0 0" fill="#a97c50"/><path d="m8 440.003906 3.878906 3.878906c18.007813 18.007813 42.425782 28.121094 67.890625 28.121094h288.464844c25.460937 0 49.882813-10.113281 67.886719-28.121094l3.878906-3.878906zm0 0" fill="#399497"/><path d="m432 40.003906c4.929688-.027344 9.574219-2.316406 12.59375-6.210937 3.023438-3.894531 4.085938-8.960938 2.886719-13.742188-2.089844-7.257812-8.804688-12.203125-16.359375-12.046875h-215.121094c-4.929688.027344-9.570312 2.316406-12.59375 6.210938-3.019531 3.894531-4.085938 8.960937-2.886719 13.742187 2.09375 7.261719 8.808594 12.203125 16.359375 12.046875h31.121094v32h-96c-4.480469.03125-8.742188 1.925782-11.769531 5.230469-3.023438 3.304687-4.53125 7.722656-4.164063 12.1875 1.03125 8.460937 8.308594 14.765625 16.832032 14.582031h23.101562v16c0 8.835938 7.164062 16 16 16s16-7.164062 16-16v-16h104c4.480469-.027344 8.746094-1.925781 11.769531-5.230468 3.023438-3.304688 4.535157-7.71875 4.167969-12.183594-1.035156-8.464844-8.308594-14.765625-16.832031-14.585938h-31.105469v-32zm0 0" fill="#ffb655"/><path d="m368 200.003906h16c44.183594 0 80 35.816406 80 80s-35.816406 80-80 80h-30.984375l11.65625-32.625 19.121094.175782c12.742187.121093 25.007812-4.859376 34.0625-13.828126 9.050781-8.96875 14.144531-21.183593 14.144531-33.929687.019531-26.390625-21.371094-47.792969-47.757812-47.792969h-16.242188zm0 0" fill="#009698"/><g fill="#231f20"><path d="m344 296.003906c0-4.417968-3.582031-8-8-8s-8 3.582032-8 8c-.066406 57.410156-46.589844 103.933594-104 104-4.417969 0-8 3.582032-8 8 0 4.417969 3.582031 8 8 8 66.242188-.074218 119.925781-53.757812 120-120zm0 0"/><path d="m440 432.003906h-148.527344c28.171875-14 51.339844-36.347656 66.34375-64h26.183594c48.601562 0 88-39.398437 88-88 0-48.601562-39.398438-88-88-88h-8v-24c0-4.417968-3.582031-8-8-8h-304c-4.417969 0-8 3.582032-8 8v128c.078125 57.703125 32.824219 110.386719 84.527344 136h-132.527344c-3.234375 0-6.152344 1.949219-7.386719 4.941406-1.238281 2.988282-.5546872 6.425782 1.730469 8.714844l3.882812 3.878906c19.460938 19.570313 45.941407 30.539063 73.542969 30.464844h288.464844c27.597656.074219 54.078125-10.894531 73.542969-30.464844l3.878906-3.878906c2.289062-2.289062 2.972656-5.726562 1.734375-8.714844-1.238281-2.992187-4.15625-4.941406-7.390625-4.941406zm-64-192h8c22.09375 0 40 17.910156 40 40 0 22.09375-17.90625 40-40 40h-10.085938c1.332032-7.929687 2.03125-15.957031 2.085938-24zm80 40c0 39.765625-32.234375 72-72 72h-18.824219c2.070313-5.226562 3.839844-10.570312 5.304688-16h13.519531c30.929688 0 56-25.070312 56-56 0-30.925781-25.070312-56-56-56h-8v-16h8c39.746094.042969 71.957031 32.253906 72 72zm-96-104v16h-144c-4.417969 0-8 3.582032-8 8v24c0 8.835938-7.164062 16-16 16s-16-7.164062-16-16v-24c0-4.417968-3.582031-8-8-8h-32c-4.417969 0-8 3.582032-8 8v64c0 4.417969-3.582031 8-8 8s-8-3.582031-8-8v-64c0-4.417968-3.582031-8-8-8h-32v-16zm-288 120v-88h24v56c0 13.253906 10.746094 24 24 24s24-10.746094 24-24v-56h16v16c0 17.671875 14.328125 32 32 32 17.675781 0 32-14.328125 32-32v-16h136v88c-.082031 75.078125-60.921875 135.917969-136 136h-16c-75.074219-.082031-135.914062-60.921875-136-136zm296.234375 168h-288.464844c-18.128906.054688-35.828125-5.539062-50.632812-16h389.726562c-14.804687 10.460938-32.5 16.054688-50.628906 16zm0 0"/><path d="m152.898438 112.003906h15.101562v8c0 13.253906 10.746094 24 24 24s24-10.746094 24-24v-8h96c6.332031.054688 12.417969-2.464844 16.855469-6.984375 5.105469-4.980469 7.695312-12 7.050781-19.101562-1.390625-12.601563-12.125-22.089844-24.800781-21.914063h-23.105469v-16h144c6.335938.054688 12.425781-2.46875 16.863281-6.992187 6.117188-5.925781 8.5625-14.683594 6.402344-22.917969-2.949219-10.851562-12.902344-18.308594-24.144531-18.08984375h-215.121094c-6.335938-.05078125-12.421875 2.47265575-16.863281 6.99218775-6.113281 5.925781-8.558594 14.683594-6.398438 22.921875 2.949219 10.847656 12.898438 18.304687 24.140625 18.085937h23.121094v16h-88c-6.332031-.050781-12.414062 2.46875-16.855469 6.984375-5.105469 4.984375-7.691406 12-7.046875 19.105469 1.386719 12.601562 12.121094 22.085938 24.800782 21.910156zm-6.402344-29.703125c1.449218-1.476562 3.433594-2.304687 5.503906-2.296875h96c4.417969 0 8-3.582031 8-8v-32c0-4.417968-3.582031-8-8-8h-31.121094c-3.890625.160156-7.414062-2.296875-8.605468-6.007812-.59375-2.390625-.058594-4.917969 1.445312-6.863282 1.507812-1.949218 3.820312-3.101562 6.28125-3.128906h215.121094c3.890625-.15625 7.410156 2.300782 8.609375 6.007813.589843 2.390625.058593 4.917969-1.449219 6.867187-1.503906 1.945313-3.820312 3.097656-6.28125 3.125h-152c-4.417969 0-8 3.582032-8 8v32c0 4.417969 3.582031 8 8 8h31.105469c4.375-.171875 8.191406 2.945313 8.894531 7.265625.222656 2.386719-.660156 4.746094-2.398438 6.398438-1.46875 1.515625-3.492187 2.359375-5.601562 2.335937h-104c-4.417969 0-8 3.582032-8 8v16c0 4.417969-3.582031 8-8 8s-8-3.582031-8-8v-16c0-4.417968-3.582031-8-8-8h-23.101562c-4.375.175782-8.195313-2.941406-8.898438-7.261718-.21875-2.414063.6875-4.789063 2.457031-6.441407zm0 0"/></g></svg>