<svg height="477pt" viewBox="-94 0 477 477.44929" width="477pt" xmlns="http://www.w3.org/2000/svg"><path d="m55.121094 454.640625c.625 8.351563 7.578125 14.808594 15.953125 14.808594h146.308593c8.371094 0 15.324219-6.453125 15.953126-14.800781l6.730468-89.199219h-191.601562zm132.582031-17.191406c8.375.003906 15.332031-6.449219 15.960937-14.800781l1.898438-17.199219-1.898438 17.199219c-.628906 8.351562-7.585937 14.804687-15.960937 14.800781zm0 0" fill="#ebe5dd"/><path d="m32.226562 149.449219 2.398438 32h219.199219l2.402343-32zm0 0" fill="#ebe5dd"/><path d="m264.226562 149.449219c8.835938 0 16-7.164063 16-16 0-8.835938-7.164062-16-16-16h-240c-8.839843 0-16 7.164062-16 16 0 8.835937 7.160157 16 16 16zm0 0" fill="#806749"/><path d="m223.425781 38.25c-15.1875-15.164062-34.398437-25.65625-55.359375-30.242188-1.40625 12.105469-11.65625 21.234376-23.839844 21.234376-12.1875 0-22.4375-9.128907-23.84375-21.234376-51.460937 11.214844-88.160156 56.769532-88.15625 109.441407h224c.003907-29.707031-11.792968-58.195313-32.800781-79.199219zm0 0" fill="#a78966"/><path d="m33.664062 181.449219c-4.476562.007812-8.746093 1.886719-11.769531 5.1875-3.023437 3.296875-4.53125 7.710937-4.148437 12.171875l13.199218 152c.703126 8.273437 7.617188 14.628906 15.917969 14.640625h194.722657c8.300781-.011719 15.214843-6.367188 15.917968-14.640625l13.199219-152c.382813-4.460938-1.125-8.875-4.148437-12.171875-3.023438-3.300781-7.292969-5.179688-11.769532-5.1875zm78.5625 52.121093c12.496094-12.5 32.757813-12.5 45.253907 0l22.625 22.621094c12.496093 12.5 12.496093 32.761719 0 45.257813-12.496094 12.496093-32.757813 12.496093-45.257813 0l-22.621094-22.625c-12.5-12.496094-12.5-32.757813 0-45.253907zm0 0" fill="#c0ab91"/><path d="m138.25 265.511719 19.773438 8.578125c6.882812 2.984375 12.496093 8.289062 15.863281 14.992187l6.21875 12.367188c12.496093-12.496094 12.496093-32.757813 0-45.257813l-22.625-22.621094c-12.496094-12.5-32.757813-12.5-45.253907 0l11.199219 18.910157c3.445313 5.796875 8.632813 10.359375 14.824219 13.03125zm0 0" fill="#a97c50"/><path d="m134.847656 301.449219c12.496094 12.496093 32.761719 12.496093 45.257813 0l-6.21875-12.367188c-3.367188-6.703125-8.980469-12.007812-15.863281-14.992187l-19.773438-8.578125c-6.183594-2.675781-11.363281-7.238281-14.800781-13.03125l-11.222657-18.910157c-12.5 12.496094-12.5 32.757813 0 45.253907zm0 0" fill="#8b5e3c"/><g fill="#231f20"><path d="m165.929688 445.449219h21.78125c12.449218-.003907 22.828124-9.519531 23.90625-21.921875l1.894531-17.199219c.488281-4.390625-2.679688-8.34375-7.070313-8.832031-4.390625-.484375-8.347656 2.679687-8.832031 7.074218l-1.921875 17.480469c-.3125 4.179688-3.804688 7.410157-8 7.398438h-21.757812c-4.417969 0-8 3.582031-8 8s3.582031 8 8 8zm0 0"/><path d="m264.226562 157.449219c13.253907 0 24-10.746094 24-24 0-13.253907-10.746093-24-24-24h-.394531c-3.453125-53.335938-41.839843-97.921875-94.070312-109.257813-2.226563-.5-4.5625-.011718-6.402344 1.347656-1.847656 1.339844-3.035156 3.40625-3.261719 5.679688-.988281 8.019531-7.800781 14.042969-15.882812 14.042969-8.078125 0-14.890625-6.023438-15.878906-14.042969-.226563-2.273438-1.414063-4.339844-3.261719-5.679688-1.839844-1.355468-4.175781-1.847656-6.402344-1.347656-52.222656 11.34375-90.605469 55.925782-94.054687 109.257813h-.390626c-13.257812 0-24 10.746093-24 24 0 13.253906 10.742188 24 24 24h.574219l1.304688 17.359375c-10.570313 3.367187-17.367188 13.644531-16.328125 24.6875l13.199218 152c.839844 10.199218 8.109376 18.71875 18.046876 21.152344l6.160156 82.59375c.976562 12.488281 11.363281 22.140624 23.890625 22.207031h146.320312c12.53125-.050781 22.933594-9.699219 23.925781-22.191407l6.230469-82.640624c9.882813-2.472657 17.089844-10.96875 17.921875-21.121094l13.199219-152c1.035156-11.039063-5.761719-21.3125-16.328125-24.679688l1.304688-17.367187zm-193.5625-113.527344c12.265626-12.246094 27.386719-21.246094 44-26.183594 4.972657 11.957031 16.648438 19.75 29.601563 19.75 12.949219 0 24.628906-7.792969 29.597656-19.75 41.300781 12.277344 70.753907 48.75 74.058594 91.710938h-207.394531c1.871094-24.75 12.5625-48.003907 30.136718-65.527344zm-54.4375 89.527344c0-4.417969 3.578126-8 8-8h240c4.417969 0 8 3.582031 8 8s-3.582031 8-8 8h-240c-4.421874 0-8-3.582031-8-8zm209.140626 320.601562c-.3125 4.179688-3.804688 7.410157-8 7.398438h-146.292969c-4.195313.011719-7.6875-3.21875-8-7.398438l-5.992188-80.601562h174.34375zm24.167968-103.929687c-.367187 4.125-3.808594 7.296875-7.949218 7.328125h-194.722657c-4.140625-.035157-7.582031-3.210938-7.949219-7.335938l-13.195312-152c-.195312-2.226562.550781-4.433593 2.0625-6.082031s3.648438-2.585938 5.882812-2.582031h221.121094c2.234375-.003907 4.371094.933593 5.882813 2.582031s2.257812 3.855469 2.0625 6.082031zm-3.132812-176.671875h-204.355469l-1.199219-16h206.753906zm0 0"/><path d="m185.761719 250.539062-22.625-22.625c-15.621094-15.621093-40.945313-15.621093-56.566407 0-.242187.230469-.402343.519532-.632812.800782-.066406.078125-.144531.160156-.207031.246094-14.828125 15.679687-14.457031 40.320312.839843 55.542968l22.621094 22.632813c15.632813 15.59375 40.9375 15.59375 56.570313 0 .109375-.113281.183593-.238281.296875-.351563l.253906-.3125c15.105469-15.660156 14.859375-40.542968-.550781-55.902344zm-50.90625-18.328124c6.367187-.011719 12.472656 2.511718 16.96875 7.015624l22.625 22.621094c6.089843 5.96875 8.457031 14.769532 6.183593 22.984375-4.230468-8.0625-11.085937-14.445312-19.433593-18.085937l-19.773438-8.570313c-4.640625-2-8.523437-5.421875-11.089843-9.773437l-7.605469-12.800782c3.667969-2.191406 7.855469-3.359374 12.125-3.390624zm5.648437 63.582031-22.625-22.632813c-6.414062-6.277344-8.671875-15.671875-5.8125-24.183594l4.503906 7.59375c4.289063 7.246094 10.761719 12.949219 18.496094 16.285157l19.773438 8.59375c5.152344 2.226562 9.363281 6.191406 11.898437 11.199219l3.285157 6.535156c-9.441407 5.832031-21.644532 4.429687-29.519532-3.390625zm0 0"/></g></svg>