<svg height="480pt" viewBox="-80 0 480 480" width="480pt" xmlns="http://www.w3.org/2000/svg"><path d="m40 88c-17.671875 0-32 14.328125-32 32l16 116c0 6.628906 5.371094 12 12 12s12-5.371094 12-12l-16-108c0-8.835938 7.164062-16 16-16h27.273438l-3.273438-24zm0 0" fill="#898890"/><path d="m143.273438 168 8.726562 96h48l16-176h-80l4.367188 48-4.367188-48h-64l3.273438 24 18.839843 138.160156c1.078125 7.929688 7.851563 13.839844 15.855469 13.839844h42.03125zm0 0" fill="#acabb1"/><path d="m200 264h41.863281c8.074219 0 14.882813-6.011719 15.878907-14.023438l13.082031-105.289062c.777343-6.15625 3.324219-11.953125 7.335937-16.6875l33.839844-40h-96zm0 0" fill="#898890"/><path d="m152 264h-24v32h96v-32zm0 0" fill="#57565c"/><path d="m205.121094 352.304688-5.121094-56.304688h-48l-16 176h80l-8-88 8 88h56l-24-176h-48zm0 0" fill="#c6c5ca"/><path d="m128 296h-24l-24 176h56l16-176zm0 0" fill="#898890"/><path d="m93.257812 74.742188-13.257812 13.257812h192l-13.257812-13.257812c-12-12-28.28125-18.742188-45.253907-18.742188h-74.976562c-16.972657 0-33.253907 6.742188-45.253907 18.742188zm0 0" fill="#c6c5ca"/><path d="m196.894531 26.632812c.773438-4.640624-.53125-9.386718-3.574219-12.976562-3.039062-3.585938-7.503906-5.65625-12.207031-5.65625h-10.226562c-4.703125 0-9.167969 2.070312-12.207031 5.65625-3.042969 3.589844-4.347657 8.335938-3.574219 12.976562l4.894531 29.367188h32zm0 0" fill="#57565c"/><path d="m319.257812 84.632812c-1.3125-2.824218-4.144531-4.632812-7.257812-4.632812h-36.6875l-10.914062-10.910156c-13.46875-13.546875-31.800782-21.140625-50.902344-21.089844h-12.054688l3.359375-20.054688c1.160157-6.960937-.804687-14.082031-5.367187-19.464843-4.5625-5.382813-11.265625-8.48437525-18.320313-8.480469h-10.226562c-7.054688-.00390625-13.757813 3.097656-18.320313 8.480469-4.5625 5.382812-6.527344 12.503906-5.367187 19.464843l3.359375 20.054688h-12.054688c-19.101562-.050781-37.433594 7.542969-50.902344 21.089844l-10.914062 10.910156h-36.6875c-22.082031.027344-39.9726562 17.917969-40 40 0 .367188.0234375.734375.0703125 1.097656l15.9296875 115.519532c.171875 11.042968 9.261719 19.859374 20.308594 19.691406 11.046875-.171875 19.863281-9.261719 19.691406-20.308594.003906-.390625-.027344-.78125-.089844-1.167969l-15.910156-107.328125c.261719-4.222656 3.769531-7.511718 8-7.503906h20.289062l17.894532 131.246094c1.664062 11.871094 11.796875 20.714844 23.785156 20.753906h10.03125v16h-16c-4 0-7.386719 2.957031-7.929688 6.921875l-24 176c-.308593 2.289063.382813 4.597656 1.902344 6.339844 1.519532 1.738281 3.71875 2.738281 6.027344 2.738281h192c2.308594 0 4.507812-1 6.027344-2.738281 1.519531-1.742188 2.210937-4.050781 1.902344-6.339844l-24-176c-.542969-3.964844-3.929688-6.921875-7.929688-6.921875h-16v-16h9.863281c12.109375 0 22.324219-9.023438 23.816407-21.039062l13.082031-105.289063c.570312-4.628906 2.484375-8.988281 5.503906-12.542969l33.839844-39.960937c2.011719-2.378907 2.460937-5.710938 1.152343-8.535157zm-156.257812-59.3125c-.386719-2.320312.265625-4.691406 1.785156-6.488281 1.519532-1.796875 3.75-2.832031 6.101563-2.832031h10.226562c2.351563 0 4.582031 1.035156 6.101563 2.832031 1.519531 1.796875 2.171875 4.167969 1.785156 6.488281l-3.777344 22.679688h-18.445312zm-24.496094 38.679688h74.992188c14.664062-.039062 28.75 5.710938 39.199218 16h-153.382812c10.445312-10.289062 24.53125-16.039062 39.191406-16zm-90.503906 40c-13.253906 0-24 10.746094-24 24-.003906.390625.027344.78125.089844 1.167969l15.910156 107.265625c-.121094 2.207031-2.007812 3.902344-4.214844 3.78125-2.210937-.117188-3.90625-2.003906-3.785156-4.214844 0-.367188-.023438-.734375-.070312-1.097656l-15.929688-115.40625c.296875-13.046875 10.949219-23.476563 24-23.496094h25.015625l1.097656 8zm54.039062 145.089844-20.871093-153.089844h47.527343l3.703126 40.800781c.378906 4.132813 3.851562 7.289063 8 7.269531h.730468c2.113282-.1875 4.066406-1.210937 5.425782-2.84375 1.359374-1.632812 2.015624-3.734374 1.820312-5.851562l-3.574219-39.375h62.480469l-14.585938 160h-33.390624l-8.066407-88.726562c-.398437-4.402344-4.292969-7.644532-8.695312-7.242188-4.398438.402344-7.640625 4.296875-7.238281 8.695312l7.933593 87.273438h-33.269531c-4 0-7.386719-2.949219-7.929688-6.910156zm8.945313 54.910156h32.253906l-14.542969 160h-39.527343zm151.847656 160h-39.527343l-7.304688-80.726562c-.402344-4.417969-4.308594-7.675782-8.726562-7.273438-4.417969.402344-7.675782 4.308594-7.273438 8.726562l7.199219 79.273438h-62.398438l14.542969-160h33.390625l4.457031 49.023438c.378906 4.132812 3.851563 7.289062 8 7.273437h.730469c2.113281-.191406 4.066406-1.214844 5.425781-2.847656 1.359375-1.628907 2.011719-3.734375 1.820313-5.847657l-4.367188-47.601562h32.253907zm-46.832031-176h-80v-16h80zm56.054688-165.207031c-5.03125 5.925781-8.21875 13.195312-9.167969 20.910156l-13.078125 105.289063c-.5 4.003906-3.90625 7.011718-7.945313 7.007812h-33.0625l14.542969-160h71.433594zm0 0" fill="#231f20"/></svg>