<svg height="480pt" viewBox="-16 0 480 480" width="480pt" xmlns="http://www.w3.org/2000/svg"><path d="m280 344v-208h-272v336h272zm-120-176 32 48zm-48 23.328125v-23.328125 23.328125l16 .671875-16-.671875v24.671875zm-72-23.328125 24 40 24-40-24 40zm208 192h-208v-112h208zm0-160c0 8.835938-7.164062 16-16 16s-16-7.164062-16-16c0 8.835938 7.164062 16 16 16s16-7.164062 16-16zm0 0" fill="#c2b59b"/><path d="m280 152v192h160v-336h-272l112 128zm-8-32" fill="#cec4af"/><path d="m168 8v128h112zm0 0" fill="#726658"/><path d="m40 248h208v112h-208zm0 0" fill="#ffe477"/><g fill="#231f20"><path d="m440 0h-272c-.375.046875-.742188.121094-1.105469.222656-.574219.050782-1.144531.167969-1.695312.34375-.515625.210938-1.007813.480469-1.464844.800782-.351563.164062-.6875.355468-1.007813.578124-.0625.054688-.085937.144532-.160156.207032-.394531.417968-.746094.875-1.046875 1.367187-.296875.363281-.5625.746094-.800781 1.152344-.152344.429687-.265625.871094-.34375 1.320313-.179688.554687-.296875 1.128906-.34375 1.710937 0 .089844-.054688.167969-.054688.257813v120.039062h-151.976562c-4.417969 0-8 3.582031-8 8v336c0 4.417969 3.582031 8 8 8h272c4.417969 0 8-3.582031 8-8v-120h152c4.417969 0 8-3.582031 8-8v-336c0-4.417969-3.582031-8-8-8zm-264 29.289062 86.398438 98.710938h-86.398438zm96 434.710938h-256v-320h256zm160-128h-144v-32h72c4.417969 0 8-3.582031 8-8s-3.582031-8-8-8h-72v-32h48c4.417969 0 8-3.582031 8-8s-3.582031-8-8-8h-48v-16h48c4.417969 0 8-3.582031 8-8s-3.582031-8-8-8h-48v-16h48c4.417969 0 8-3.582031 8-8s-3.582031-8-8-8h-48v-16h48c4.417969 0 8-3.582031 8-8s-3.582031-8-8-8h-48v-8c-.046875-.378906-.121094-.753906-.222656-1.121094-.054688-.566406-.171875-1.128906-.34375-1.671875-.222656-.523437-.507813-1.019531-.839844-1.480469-.171875-.34375-.363281-.679687-.578125-1l-2.398437-2.726562h52.382812c4.417969 0 8-3.582031 8-8s-3.582031-8-8-8h-64c-.6875.046875-1.363281.183594-2.015625.40625l-14.351563-16.40625h80.367188c4.417969 0 8-3.582031 8-8s-3.582031-8-8-8h-94.398438l-56-64h246.398438zm0 0"/><path d="m280 48h80c4.417969 0 8-3.582031 8-8s-3.582031-8-8-8h-80c-4.417969 0-8 3.582031-8 8s3.582031 8 8 8zm0 0"/><path d="m376 96h16c4.417969 0 8-3.582031 8-8s-3.582031-8-8-8h-16c-4.417969 0-8 3.582031-8 8s3.582031 8 8 8zm0 0"/><path d="m392 112h-16c-4.417969 0-8 3.582031-8 8s3.582031 8 8 8h16c4.417969 0 8-3.582031 8-8s-3.582031-8-8-8zm0 0"/><path d="m392 144h-16c-4.417969 0-8 3.582031-8 8s3.582031 8 8 8h16c4.417969 0 8-3.582031 8-8s-3.582031-8-8-8zm0 0"/><path d="m392 176h-16c-4.417969 0-8 3.582031-8 8s3.582031 8 8 8h16c4.417969 0 8-3.582031 8-8s-3.582031-8-8-8zm0 0"/><path d="m392 208h-16c-4.417969 0-8 3.582031-8 8s3.582031 8 8 8h16c4.417969 0 8-3.582031 8-8s-3.582031-8-8-8zm0 0"/><path d="m392 240h-16c-4.417969 0-8 3.582031-8 8s3.582031 8 8 8h16c4.417969 0 8-3.582031 8-8s-3.582031-8-8-8zm0 0"/><path d="m40 224c4.417969 0 8-3.582031 8-8v-19.121094l9.144531 15.242188c1.550781 2.261718 4.113281 3.613281 6.855469 3.613281s5.304688-1.351563 6.855469-3.613281l9.144531-15.242188v19.121094c0 4.417969 3.582031 8 8 8s8-3.582031 8-8v-48c0-3.59375-2.398438-6.746094-5.863281-7.707031-3.460938-.960938-7.140625.507812-8.992188 3.585937l-17.144531 28.570313-17.144531-28.570313c-1.851563-3.078125-5.53125-4.546875-8.992188-3.585937-3.464843.960937-5.863281 4.113281-5.863281 7.707031v48c0 4.417969 3.582031 8 8 8zm0 0"/><path d="m112 224h24c4.417969 0 8-3.582031 8-8s-3.582031-8-8-8h-16v-8.328125l7.664062.320313h.335938c4.417969.09375 8.074219-3.414063 8.167969-7.832032.09375-4.417968-3.414063-8.074218-7.832031-8.167968l-8.335938-.328126v-7.664062h16c4.417969 0 8-3.582031 8-8s-3.582031-8-8-8h-24c-4.417969 0-8 3.582031-8 8v48c0 4.417969 3.582031 8 8 8zm0 0"/><path d="m160 224c4.417969 0 8-3.582031 8-8v-21.601562l17.34375 26.015624c1.953125 2.929688 5.59375 4.238282 8.964844 3.222657s5.683594-4.117188 5.691406-7.636719v-48c0-4.417969-3.582031-8-8-8s-8 3.582031-8 8v21.601562l-17.34375-26.015624c-1.953125-2.929688-5.59375-4.238282-8.964844-3.222657s-5.683594 4.117188-5.691406 7.636719v48c0 4.417969 3.582031 8 8 8zm0 0"/><path d="m248 160c-4.417969 0-8 3.582031-8 8v32c0 4.417969-3.582031 8-8 8s-8-3.582031-8-8v-32c0-4.417969-3.582031-8-8-8s-8 3.582031-8 8v32c0 13.253906 10.746094 24 24 24s24-10.746094 24-24v-32c0-4.417969-3.582031-8-8-8zm0 0"/><path d="m248 240h-208c-4.417969 0-8 3.582031-8 8v112c0 4.417969 3.582031 8 8 8h208c4.417969 0 8-3.582031 8-8v-112c0-4.417969-3.582031-8-8-8zm-8 112h-192v-96h192zm0 0"/><path d="m152 384h-64c-4.417969 0-8 3.582031-8 8s3.582031 8 8 8h64c4.417969 0 8-3.582031 8-8s-3.582031-8-8-8zm0 0"/><path d="m200 384h-16c-4.417969 0-8 3.582031-8 8s3.582031 8 8 8h16c4.417969 0 8-3.582031 8-8s-3.582031-8-8-8zm0 0"/><path d="m152 408h-64c-4.417969 0-8 3.582031-8 8s3.582031 8 8 8h64c4.417969 0 8-3.582031 8-8s-3.582031-8-8-8zm0 0"/><path d="m200 408h-16c-4.417969 0-8 3.582031-8 8s3.582031 8 8 8h16c4.417969 0 8-3.582031 8-8s-3.582031-8-8-8zm0 0"/><path d="m152 432h-64c-4.417969 0-8 3.582031-8 8s3.582031 8 8 8h64c4.417969 0 8-3.582031 8-8s-3.582031-8-8-8zm0 0"/><path d="m200 432h-16c-4.417969 0-8 3.582031-8 8s3.582031 8 8 8h16c4.417969 0 8-3.582031 8-8s-3.582031-8-8-8zm0 0"/></g></svg>