<svg height="479pt" viewBox="1 -31 479.99712 479" width="479pt" xmlns="http://www.w3.org/2000/svg"><path d="m249.515625 186.800781-67.679687 11.242188c-41.492188 6.894531-83.96875 5.101562-124.734376-5.265625l-1.105468-.277344v184c0 17.671875 14.328125 32 32 32h256c17.675781 0 32-14.328125 32-32v-184l-3.40625-.847656c-40.265625-9.996094-82.148438-11.648438-123.074219-4.851563zm94.480469 173.699219c0 8.835938-7.164063 16-16 16 8.835937 0 16-7.164062 16-16zm0 0" fill="#754c29"/><path d="m367.996094 56.5h-360l36.320312 66.75c7.664063 14.078125 11.679688 29.851562 11.679688 45.878906v23.371094l1.105468.277344c40.765626 10.367187 83.242188 12.160156 124.734376 5.265625l67.679687-11.242188c40.925781-6.796875 82.808594-5.144531 123.074219 4.851563l3.40625.847656v-136zm0 0" fill="#e0e0e2"/><path d="m367.996094 24.5c0-8.839844-7.164063-16-16-16h-272c-8.835938 0-16 7.160156-16 16v32h304zm0 0" fill="#ffaf46"/><path d="m439.996094 56.5h-64v32h48c8.835937 0 16 7.160156 16 16v144c0 8.835938 7.164062 16 16 16 8.835937 0 16-7.164062 16-16v-160c0-17.675781-14.324219-32-32-32zm0 0" fill="#898890"/><g fill="#231f20"><path d="m439.996094 48.5h-64v-24c0-13.257812-10.742188-24-24-24h-272c-13.253906 0-24 10.742188-24 24v24h-48c-2.820313 0-5.433594 1.488281-6.875 3.914062-1.441406 2.425782-1.496094 5.429688-.148438 7.910157l36.320313 66.75c7.011719 12.914062 10.691406 27.371093 10.703125 42.0625v207.363281c.027344 22.078125 17.921875 39.972656 40 40h256c22.082031-.027344 39.972656-17.921875 40-40v-280h40c4.417968 0 8 3.582031 8 8v144c0 13.253906 10.746094 24 24 24 13.257812 0 24-10.746094 24-24v-160c-.027344-22.082031-17.917969-39.976562-40-40zm-368-24c0-4.417969 3.582031-8 8-8h272c4.417968 0 8 3.582031 8 8v24h-288zm-50.535156 40h346.535156v117.941406c-39.320313-8.957031-80.007813-10.164062-119.789063-3.542968l-67.691406 11.238281c-38.714844 6.460937-78.335937 5.105469-116.519531-3.988281v-17.011719c-.011719-17.363281-4.363282-34.453125-12.65625-49.710938zm322.535156 336h-256c-13.253906 0-24-10.746094-24-24v-174c22.265625 5.058594 45.023437 7.640625 67.855468 7.695312 17.1875-.007812 34.34375-1.429687 51.296876-4.257812l67.679687-11.246094c38.9375-6.496094 78.785156-5.089844 117.167969 4.128906v177.679688c0 13.253906-10.742188 24-24 24zm120-152c0 4.417969-3.582032 8-8 8-4.417969 0-8-3.582031-8-8v-144c0-13.257812-10.742188-24-24-24h-40v-16h56c13.257812 0 24 10.742188 24 24zm0 0"/><path d="m343.996094 320.5c-4.417969 0-8 3.582031-8 8v32c0 4.417969-3.582032 8-8 8h-32c-4.417969 0-8 3.582031-8 8s3.582031 8 8 8h32c13.257812 0 24-10.746094 24-24v-32c0-4.417969-3.582032-8-8-8zm0 0"/></g></svg>