<svg height="480pt" viewBox="0 -2 480.05136 480" width="480pt" xmlns="http://www.w3.org/2000/svg"><path d="m120.042969 324.792969h-.039063l24.039063 23.570312-24.039063 16.429688 24 16.265625-24 16.183594 24 15.550781-24 16.136719 24 16.183593-24 23.679688h40.039063v-144zm0 0" fill="#ffaf46"/><path d="m432.042969 324.792969v144h40l-24.039063-23.566407 24.039063-16.433593-24-16.261719 24-16.183594-24-15.554687 24-16.136719-24-16.183594 24-23.679687zm0 0" fill="#ffaf46"/><path d="m160.042969 324.792969v144h272v-144zm208 104h-144c-17.671875 0-32-14.324219-32-32 0-17.671875 14.328125-32 32-32h144c17.671875 0 32 14.328125 32 32 0 17.675781-14.328125 32-32 32zm0 0" fill="#a78966"/><path d="m368.042969 364.792969h-144c-17.671875 0-32 14.328125-32 32 0 17.675781 14.328125 32 32 32h144c17.671875 0 32-14.324219 32-32 0-17.671875-14.328125-32-32-32zm0 0" fill="#c2b59b"/><path d="m384.882812 132.792969-32.609374-8.390625 12.609374-26.25-28.921874-2.085938 12.699218-26.015625-28.5625-1.464843 12.722656-25.976563-28.882812-2.015625 8.945312-32.511719-34.640624 20 72 124.710938zm0 0" fill="#ffaf46"/><path d="m28.003906 218.746094 28.917969 2.085937-12.695313 26.019531 28.558594 1.460938-12.710937 25.976562 28.871093 2.015626-8.941406 32.511718.039063-.023437 34.640625-20-72-124.710938 117.785156-68-152.425781 88-.039063.023438 32.605469 8.390625zm0 0" fill="#ffaf46"/><path d="m114.683594 288.792969 117.785156-68zm0 0" fill="#898890"/><path d="m278.242188 28.082031-117.773438 68zm0 0" fill="#898890"/><path d="m114.683594 288.792969 117.785156-68 117.773438-68-72-124.710938-117.773438 68-117.785156 68zm3.421875-122.0625 124.714843-72c15.289063-8.695313 34.730469-3.417969 43.527344 11.816406s3.644532 34.710937-11.527344 43.605469l-124.714843 72c-15.289063 8.695312-34.730469 3.417968-43.527344-11.816406-8.796875-15.234376-3.644531-34.710938 11.527344-43.605469zm0 0" fill="#a78966"/><path d="m106.394531 210.441406c8.835938 15.304688 28.40625 20.546875 43.710938 11.710938l124.714843-72c15.171876-8.894532 20.324219-28.371094 11.527344-43.605469s-28.238281-20.511719-43.527344-11.816406l-124.714843 72c-15.304688 8.835937-20.546875 28.40625-11.710938 43.710937zm0 0" fill="#c2b59b"/><g fill="#231f20"><path d="m480.042969 396.265625c-.023438-2.683594-1.394531-5.179687-3.648438-6.640625l-13.832031-8.960938 13.945312-9.367187c2.207032-1.484375 3.53125-3.972656 3.53125-6.636719 0-2.660156-1.324218-5.148437-3.53125-6.632812l-15.90625-10.730469 17.042969-16.800781c2.3125-2.273438 3.023438-5.722656 1.792969-8.730469-1.226562-3.003906-4.148438-4.96875-7.394531-4.972656h-352.046875c-3.25 0-6.175782 1.96875-7.40625 4.976562-1.230469 3.007813-.515625 6.460938 1.804687 8.734375l17.089844 16.753906-16 10.9375c-2.1875 1.488282-3.496094 3.964844-3.496094 6.609376 0 2.648437 1.308594 5.125 3.496094 6.613281l14.199219 9.601562-14.191406 9.597657c-2.238282 1.503906-3.566407 4.035156-3.535157 6.730468.03125 2.695313 1.414063 5.191406 3.6875 6.644532l13.832031 8.960937-13.9375 9.367187c-2.207031 1.488282-3.53125 3.976563-3.53125 6.636719 0 2.664063 1.324219 5.148438 3.53125 6.636719l15.894532 10.726562-17.039063 16.800782c-2.308593 2.277344-3.015625 5.722656-1.789062 8.722656 1.230469 3.003906 4.148437 4.96875 7.390625 4.972656h352.046875c3.25 0 6.175781-1.964844 7.40625-4.972656 1.226562-3.011719.515625-6.460938-1.804688-8.738281l-17.089843-16.75 16-10.9375c2.1875-1.488281 3.496093-3.964844 3.496093-6.613281 0-2.644532-1.308593-5.121094-3.496093-6.609376l-14.207032-9.601562 14.199219-9.601562c2.222656-1.511719 3.535156-4.039063 3.496094-6.726563zm-331.566407 42.214844-14.160156-9.542969 14.140625-9.503906c2.230469-1.5 3.558594-4.019532 3.539063-6.707032-.023438-2.6875-1.394532-5.183593-3.648438-6.644531l-13.839844-8.96875 13.96875-9.421875c2.199219-1.488281 3.519532-3.972656 3.519532-6.628906s-1.320313-5.140625-3.519532-6.628906l-14.265624-9.640625 14.34375-9.808594c1.976562-1.351563 3.242187-3.515625 3.453124-5.898437.210938-2.382813-.65625-4.734376-2.363281-6.414063l-10.058593-9.878906h12.457031v128h-12.542969l10.144531-9.984375c1.707031-1.683594 2.570313-4.042969 2.351563-6.433594-.222656-2.386719-1.5-4.550781-3.488282-5.894531zm19.566407 22.3125v-128h256v128zm272 0v-16.160157c-.179688 2.347657.679687 4.652344 2.351562 6.304688l10.054688 9.855469zm3.441406-22.167969c-1.964844 1.335938-3.226563 3.484375-3.441406 5.847656v-111.679687h12.496093l-10.097656 9.984375c-1.707031 1.683594-2.570312 4.046875-2.351562 6.433594.222656 2.386718 1.5 4.550781 3.488281 5.894531l14.160156 9.542969-14.160156 9.503906c-2.230469 1.5-3.558594 4.019531-3.535156 6.707031.023437 2.6875 1.394531 5.183594 3.648437 6.644531l13.847656 8.96875-13.976562 9.425782c-2.199219 1.488281-3.519531 3.96875-3.519531 6.628906 0 2.65625 1.320312 5.136718 3.519531 6.625l14.265625 9.640625zm0 0"/><path d="m368.042969 356.792969h-144c-22.089844 0-40 17.910156-40 40 0 22.09375 17.910156 40 40 40h144c22.089843 0 40-17.90625 40-40 0-22.089844-17.910157-40-40-40zm0 64h-144c-13.253907 0-24-10.746094-24-24 0-13.253907 10.746093-24 24-24h144c13.253906 0 24 10.746093 24 24 0 13.253906-10.746094 24-24 24zm0 0"/><path d="m388.882812 139.722656c2.816407-1.625 4.371094-4.792968 3.929688-8.015625-.441406-3.222656-2.789062-5.855469-5.9375-6.664062l-23.199219-5.960938 8.421875-17.488281c1.144532-2.386719 1.035156-5.183594-.289062-7.472656-1.328125-2.289063-3.703125-3.773438-6.339844-3.96875l-17.121094-1.230469 7.503906-15.382813c1.179688-2.414062 1.070313-5.261718-.292968-7.574218-1.363282-2.316406-3.800782-3.792969-6.484375-3.929688l-16.464844-.800781 7.433594-15.113281c1.167969-2.390625 1.074219-5.207032-.257813-7.511719-1.328125-2.304687-3.71875-3.800781-6.375-3.984375l-19.128906-1.335938 6.355469-23.078124c.894531-3.152344-.226563-6.535157-2.824219-8.53125-2.601562-1.996094-6.15625-2.203126-8.96875-.527344l-304.960938 176.097656c-2.765624 1.660156-4.265624 4.820312-3.8007808 8.011719.4648438 3.191406 2.8046878 5.792969 5.9296878 6.597656l23.199219 5.957031-8.417969 17.472656c-1.140625 2.386719-1.027344 5.179688.296875 7.46875 1.328125 2.285157 3.699218 3.769532 6.335937 3.964844l17.113281 1.238282-7.496093 15.375c-1.179688 2.414062-1.070313 5.261718.292969 7.578124 1.363281 2.3125 3.800781 3.789063 6.484374 3.925782l16.453126.800781-7.390626 15.097656c-1.171874 2.390625-1.078124 5.210938.253907 7.519531 1.332031 2.308594 3.726562 3.804688 6.386719 3.984376l19.121093 1.328124-6.355469 23.078126c-.867187 3.152343.265626 6.511718 2.863282 8.492187s6.140625 2.183594 8.945312.507813zm-24.960937-4.066406-10.742187 6.210938-8.089844-14.007813c1.015625 2.125 2.914062 3.695313 5.191406 4.292969zm-88.605469-96.636719 64 110.847657-221.707031 128-64-110.859376zm77.261719 66.269531-7.511719 15.65625c-1.03125 2.144532-1.046875 4.636719-.046875 6.792969l-16-27.65625c1.3125 2.308594 3.6875 3.808594 6.335938 4zm-16.414063-27.871093-7.386718 15.144531c-1.160156 2.375-1.070313 5.171875.242187 7.472656l-15.808593-27.394531c1.359374 2.316406 3.789062 3.792969 6.472656 3.9375zm-38.753906-32.199219c1.394532 1.953125 3.582032 3.183594 5.976563 3.359375l17.023437 1.183594-7.503906 15.304687c-1.175781 2.410156-1.066406 5.253906.296875 7.566406l-24-41.597656 10.800781-6.242187-3.777344 13.703125c-.628906 2.304687-.195312 4.769531 1.183594 6.722656zm-201.925781 226.464844c-1.394531-1.953125-3.585937-3.183594-5.976563-3.363282l-17.023437-1.183593 7.496094-15.304688c1.183593-2.410156 1.074219-5.257812-.289063-7.574219-1.359375-2.320312-3.796875-3.796874-6.480468-3.9375l-16.480469-.839843 7.382812-15.144531c1.164063-2.382813 1.066407-5.191407-.257812-7.492188-1.324219-2.296875-3.703125-3.792969-6.347657-3.984375l-17.199218-1.242187 7.519531-15.65625c1.03125-2.15625 1.042969-4.664063.03125-6.832032-1.011719-2.167968-2.9375-3.769531-5.257813-4.367187l-13.597656-3.503907 10.789063-6.230468 64 110.855468-10.863281 6.269532 3.769531-13.703125c.632812-2.324219.1875-4.808594-1.214844-6.765625zm0 0"/><path d="m154.113281 229.082031 124.707031-72c19.132813-11.046875 25.6875-35.511719 14.640626-54.644531-11.042969-19.132812-35.507813-25.691406-54.640626-14.644531l-124.707031 72c-19.132812 11.046875-25.6875 35.511719-14.640625 54.644531 11.042969 19.132812 35.507813 25.691406 54.640625 14.644531zm-40.796875-22.640625c-3.1875-5.515625-4.050781-12.070312-2.398437-18.222656 1.648437-6.152344 5.675781-11.398438 11.195312-14.578125l124.707031-72c11.484376-6.625 26.171876-2.6875 32.796876 8.800781 6.628906 11.488282 2.6875 26.171875-8.796876 32.800782l-124.707031 72c-11.484375 6.628906-26.167969 2.6875-32.789062-8.800782zm0 0"/></g></svg>