<svg height="480pt" viewBox="-28 0 480 480" width="480pt" xmlns="http://www.w3.org/2000/svg"><path d="m216 472c30.960938 0 56-57.039062 56-88-.855469-25.214844-12.894531-48.742188-32.847656-64.183594-4.425782-2.976562-7.101563-7.941406-7.152344-13.273437v-216c.011719-3.410157.378906-6.808594 1.097656-10.144531 3.480469-15.941407 5.789063-32.117188 6.902344-48.398438 0-13.253906-10.746094-24-24-24s-24 10.746094-24 24c1.109375 16.292969 3.417969 32.480469 6.902344 48.433594.71875 3.332031 1.085937 6.730468 1.097656 10.140625v216c-.050781 5.332031-2.726562 10.296875-7.152344 13.273437-19.945312 15.4375-31.984375 38.949219-32.847656 64.152344 0 30.960938 25.039062 88 56 88zm24-88c0 19.769531-14.953125 48.800781-24 55.28125 9.046875-6.480469 24-35.511719 24-55.28125zm0 0" fill="#ffaf46"/><path d="m416 104h-96v96h96zm-24 48v-24zm0 0" fill="#e0e0e2"/><path d="m120 192h-96v96h96zm-72 72" fill="#ebe5dd"/><path d="m104 376h-96v96h96zm-72 72" fill="#c0ab91"/><path d="m416 280h-96v96h96zm-24 72" fill="#d9ccbc"/><g fill="#231f20"><path d="m243.710938 313.238281c-2.273438-1.472656-3.664063-3.984375-3.710938-6.695312v-216c.011719-2.855469.324219-5.703125.929688-8.496094 3.605468-16.480469 5.96875-33.210937 7.070312-50.046875 0-17.671875-14.328125-32-32-32s-32 14.328125-32 32c1.097656 16.851562 3.460938 33.59375 7.070312 50.089844.605469 2.789062.917969 5.632812.929688 8.484375v216c-.046875 2.710937-1.4375 5.222656-3.710938 6.699219-22.039062 16.984374-35.347656 42.917968-36.289062 70.726562 0 33.71875 26.398438 96 64 96s64-62.28125 64-96c-.933594-27.820312-14.242188-53.769531-36.289062-70.761719zm-27.710938 150.761719c-24.28125 0-48-50.617188-48-80 .878906-22.585938 11.628906-43.644531 29.40625-57.601562 6.574219-4.480469 10.53125-11.898438 10.59375-19.855469v-216c-.011719-3.964844-.4375-7.914063-1.273438-11.789063-3.355468-15.40625-5.601562-31.03125-6.726562-46.753906 0-8.835938 7.164062-16 16-16s16 7.164062 16 16c-1.121094 15.734375-3.371094 31.363281-6.726562 46.777344-.835938 3.875-1.261719 7.832031-1.273438 11.796875v216c.074219 7.945312 4.027344 15.351562 10.59375 19.824219 17.777344 13.957031 28.527344 35.015624 29.40625 57.601562 0 29.382812-23.71875 80-48 80zm0 0"/><path d="m232 384c-1.546875 18.042969-8.777344 35.125-20.648438 48.800781-3.597656 2.566407-4.429687 7.5625-1.863281 11.160157 2.566407 3.59375 7.5625 4.429687 11.160157 1.863281 11.6875-8.375 27.351562-40.457031 27.351562-61.824219 0-4.417969-3.582031-8-8-8s-8 3.582031-8 8zm0 0"/><path d="m416 96h-96c-4.417969 0-8 3.582031-8 8v96c0 4.417969 3.582031 8 8 8h96c4.417969 0 8-3.582031 8-8v-96c0-4.417969-3.582031-8-8-8zm-8 96h-80v-80h80zm0 0"/><path d="m120 184h-96c-4.417969 0-8 3.582031-8 8v96c0 4.417969 3.582031 8 8 8h96c4.417969 0 8-3.582031 8-8v-96c0-4.417969-3.582031-8-8-8zm-8 96h-80v-80h80zm0 0"/><path d="m104 368h-96c-4.417969 0-8 3.582031-8 8v96c0 4.417969 3.582031 8 8 8h96c4.417969 0 8-3.582031 8-8v-96c0-4.417969-3.582031-8-8-8zm-8 96h-80v-80h80zm0 0"/><path d="m416 272h-96c-4.417969 0-8 3.582031-8 8v96c0 4.417969 3.582031 8 8 8h96c4.417969 0 8-3.582031 8-8v-96c0-4.417969-3.582031-8-8-8zm-8 96h-80v-80h80zm0 0"/><path d="m368 136h16v16c0 4.417969 3.582031 8 8 8s8-3.582031 8-8v-24c0-4.417969-3.582031-8-8-8h-24c-4.417969 0-8 3.582031-8 8s3.582031 8 8 8zm0 0"/><path d="m48 272h24c4.417969 0 8-3.582031 8-8s-3.582031-8-8-8h-16v-16c0-4.417969-3.582031-8-8-8s-8 3.582031-8 8v24c0 4.417969 3.582031 8 8 8zm0 0"/><path d="m32 456h24c4.417969 0 8-3.582031 8-8s-3.582031-8-8-8h-16v-16c0-4.417969-3.582031-8-8-8s-8 3.582031-8 8v24c0 4.417969 3.582031 8 8 8zm0 0"/><path d="m368 360h24c4.417969 0 8-3.582031 8-8v-24c0-4.417969-3.582031-8-8-8s-8 3.582031-8 8v16h-16c-4.417969 0-8 3.582031-8 8s3.582031 8 8 8zm0 0"/></g></svg>